SplineFontDB: 3.0
FontName: Kartika
FullName: Kartika
FamilyName: Kartika
Weight: Book
Copyright: (c) 2015 Microsoft Corporation. All Rights Reserved.
Version: 6.90
ItalicAngle: 0
UnderlinePosition: -1184
UnderlineWidth: 72
Ascent: 1638
Descent: 410
InvalidEm: 0
sfntRevision: 0x0006e666
LayerCount: 2
Layer: 0 1 "Back" 1
Layer: 1 1 "Fore" 0
XUID: [1021 399 -1201440533 32254]
StyleMap: 0x0040
FSType: 8
OS2Version: 3
OS2_WeightWidthSlopeOnly: 0
OS2_UseTypoMetrics: 0
CreationTime: 1099333609
ModificationTime: 1558446167
PfmFamily: 17
TTFWeight: 400
TTFWidth: 5
LineGap: 0
VLineGap: 0
Panose: 2 2 5 3 3 4 4 6 2 3
OS2TypoAscent: 2013
OS2TypoAOffset: 0
OS2TypoDescent: -908
OS2TypoDOffset: 0
OS2TypoLinegap: 0
OS2WinAscent: 2013
OS2WinAOffset: 0
OS2WinDescent: 908
OS2WinDOffset: 0
HheadAscent: 2013
HheadAOffset: 0
HheadDescent: -908
HheadDOffset: 0
OS2SubXSize: 305
OS2SubYSize: 305
OS2SubXOff: 0
OS2SubYOff: 684
OS2SupXSize: 305
OS2SupYSize: 305
OS2SupXOff: 0
OS2SupYOff: 1300
OS2StrikeYSize: 102
OS2StrikeYPos: 600
OS2CapHeight: 1517
OS2XHeight: 1100
OS2Vendor: 'MS  '
OS2CodePages: 00000001.00000000
OS2UnicodeRanges: 00800003.00000000.00000000.00000000
Lookup: 4 0 0 "'ccmp' Glyph Composition/Decomposition lookup 0" { "'ccmp' Glyph Composition/Decomposition lookup 0-1"  "'ccmp' Glyph Composition/Decomposition lookup 0-2"  } ['ccmp' ('DFLT' <'dflt' > 'deva' <'dflt' > 'latn' <'dflt' > 'mlm2' <'dflt' > 'mlym' <'dflt' > ) ]
Lookup: 4 0 0 "'pref' Pre Base Forms lookup 0" { "'pref' Pre Base Forms lookup 0 subtable"  } ['pref' ('DFLT' <'dflt' > 'deva' <'dflt' > 'latn' <'dflt' > 'mlm2' <'dflt' > 'mlym' <'dflt' > ) ]
Lookup: 4 0 0 "'pres' Pre Base Substitutions lookup 1" { "'pres' Pre Base Substitutions lookup 1 subtable"  } ['pres' ('DFLT' <'dflt' > 'deva' <'dflt' > 'latn' <'dflt' > 'mlm2' <'dflt' > 'mlym' <'dflt' > ) ]
Lookup: 4 0 0 "'akhn' Akhand in Malay+AQEA-lam lookup 2" { "'akhn' Akhand in Malay+AQEA-lam lookup 2 subtable"  } ['akhn' ('mlym' <'dflt' > ) ]

StartChar: .notdef
Encoding: 334 -1 0
Width: 1025
GlyphClass: 2
Flags: W
LayerCount: 2
Fore
SplineSet
129 0 m 1,0,-1
 129 1993 l 1,1,-1
 897 1993 l 1,2,-1
 897 0 l 1,3,-1
 129 0 l 1,0,-1
256 129 m 1,4,-1
 769 129 l 1,5,-1
 769 1865 l 1,6,-1
 256 1865 l 1,7,-1
 256 129 l 1,4,-1
EndSplineSet
EndChar

StartChar: glyph2
Encoding: 336 -1 2
Width: 1321
GlyphClass: 2
Flags: W
LayerCount: 2
Fore
SplineSet
0 0 m 1024,0,-1
EndSplineSet
EndChar

StartChar: space
Encoding: 0 32 3
Width: 1520
GlyphClass: 2
Flags: W
LayerCount: 2
Fore
SplineSet
0 0 m 1024,0,-1
EndSplineSet
EndChar

StartChar: exclam
Encoding: 1 33 4
Width: 589
GlyphClass: 2
Flags: W
LayerCount: 2
Fore
SplineSet
402 0 m 1,0,-1
 189 0 l 1,1,-1
 189 212 l 1,2,-1
 402 212 l 1,3,-1
 402 0 l 1,0,-1
402 1517 m 1,4,-1
 402 379 l 1,5,-1
 229 379 l 1,6,-1
 229 1517 l 1,7,-1
 402 1517 l 1,4,-1
EndSplineSet
EndChar

StartChar: quotedbl
Encoding: 2 34 5
Width: 754
GlyphClass: 2
Flags: W
LayerCount: 2
Fore
SplineSet
665 1271 m 1,0,-1
 616 980 l 1,1,-1
 502 980 l 1,2,-1
 450 1517 l 1,3,-1
 665 1517 l 1,4,-1
 665 1271 l 1,0,-1
299 1271 m 1,5,-1
 253 980 l 1,6,-1
 139 980 l 1,7,-1
 87 1517 l 1,8,-1
 299 1517 l 1,9,-1
 299 1271 l 1,5,-1
EndSplineSet
EndChar

StartChar: numbersign
Encoding: 3 35 6
Width: 1181
GlyphClass: 2
Flags: W
LayerCount: 2
Fore
SplineSet
1155 945 m 1,0,-1
 951 945 l 1,1,-1
 875 569 l 1,2,-1
 1072 569 l 1,3,-1
 1072 416 l 1,4,-1
 842 416 l 1,5,-1
 758 0 l 1,6,-1
 601 0 l 1,7,-1
 686 416 l 1,8,-1
 355 416 l 1,9,-1
 270 0 l 1,10,-1
 113 0 l 1,11,-1
 197 416 l 1,12,-1
 24 416 l 1,13,-1
 24 569 l 1,14,-1
 229 569 l 1,15,-1
 306 945 l 1,16,-1
 109 945 l 1,17,-1
 109 1100 l 1,18,-1
 337 1100 l 1,19,-1
 423 1517 l 1,20,-1
 579 1517 l 1,21,-1
 493 1100 l 1,22,-1
 825 1100 l 1,23,-1
 911 1517 l 1,24,-1
 1067 1517 l 1,25,-1
 982 1100 l 1,26,-1
 1155 1100 l 1,27,-1
 1155 945 l 1,0,-1
792 945 m 1,28,-1
 462 945 l 1,29,-1
 386 569 l 1,30,-1
 716 569 l 1,31,-1
 792 945 l 1,28,-1
EndSplineSet
EndChar

StartChar: dollar
Encoding: 4 36 7
Width: 1181
GlyphClass: 2
Flags: W
LayerCount: 2
Fore
SplineSet
643 865 m 1,0,1
 772 839 772 839 857 802 c 128,-1,2
 942 765 942 765 993 713 c 128,-1,3
 1044 661 1044 661 1064 593 c 128,-1,4
 1084 525 1084 525 1084 438 c 0,5,6
 1084 347 1084 347 1054 265.5 c 128,-1,7
 1024 184 1024 184 966.5 122 c 128,-1,8
 909 60 909 60 827.5 20.5 c 128,-1,9
 746 -19 746 -19 643 -24 c 1,10,-1
 643 -184 l 1,11,-1
 533 -184 l 1,12,-1
 533 -26 l 1,13,14
 110 20 110 20 80 429 c 1,15,-1
 283 429 l 1,16,17
 305 170 305 170 533 132 c 1,18,-1
 533 711 l 1,19,20
 113 794 113 794 113 1120 c 0,21,22
 113 1213 113 1213 142.5 1288 c 128,-1,23
 172 1363 172 1363 226 1417 c 128,-1,24
 280 1471 280 1471 358 1503.5 c 128,-1,25
 436 1536 436 1536 533 1544 c 1,26,-1
 533 1703 l 1,27,-1
 643 1703 l 1,28,-1
 643 1544 l 1,29,30
 1011 1516 1011 1516 1050 1170 c 1,31,-1
 845 1170 l 1,32,33
 829 1360 829 1360 643 1389 c 1,34,-1
 643 865 l 1,0,1
533 888 m 1,35,-1
 533 1390 l 1,36,37
 315 1348 315 1348 315 1135 c 0,38,39
 315 1078 315 1078 330 1037.5 c 128,-1,40
 345 997 345 997 372.5 967.5 c 128,-1,41
 400 938 400 938 441 919.5 c 128,-1,42
 482 901 482 901 533 888 c 1,35,-1
643 132 m 1,43,44
 884 162 884 162 884 425 c 0,45,46
 884 478 884 478 874 518 c 128,-1,47
 864 558 864 558 837.5 588.5 c 128,-1,48
 811 619 811 619 763.5 642.5 c 128,-1,49
 716 666 716 666 643 686 c 1,50,-1
 643 132 l 1,43,44
EndSplineSet
EndChar

StartChar: percent
Encoding: 5 37 8
Width: 1886
GlyphClass: 2
Flags: W
LayerCount: 2
Fore
SplineSet
824 1141 m 0,0,1
 824 1045 824 1045 798 970 c 128,-1,2
 772 895 772 895 726.5 843.5 c 128,-1,3
 681 792 681 792 617 765 c 128,-1,4
 553 738 553 738 478 738 c 0,5,6
 400 738 400 738 337.5 766.5 c 128,-1,7
 275 795 275 795 229 847 c 128,-1,8
 183 899 183 899 158 973.5 c 128,-1,9
 133 1048 133 1048 133 1141 c 0,10,11
 133 1233 133 1233 158 1307 c 128,-1,12
 183 1381 183 1381 229 1434 c 128,-1,13
 275 1487 275 1487 337.5 1515.5 c 128,-1,14
 400 1544 400 1544 478 1544 c 0,15,16
 553 1544 553 1544 617 1516.5 c 128,-1,17
 681 1489 681 1489 726.5 1436.5 c 128,-1,18
 772 1384 772 1384 798 1310 c 128,-1,19
 824 1236 824 1236 824 1141 c 0,0,1
658 1141 m 256,20,21
 658 1417 658 1417 478 1417 c 0,22,23
 299 1417 299 1417 299 1141 c 256,24,25
 299 865 299 865 478 865 c 0,26,27
 658 865 658 865 658 1141 c 256,20,21
1433 1517 m 1,28,-1
 603 0 l 1,29,-1
 450 0 l 1,30,-1
 1281 1517 l 1,31,-1
 1433 1517 l 1,28,-1
1753 379 m 0,32,33
 1753 286 1753 286 1727.5 211.5 c 128,-1,34
 1702 137 1702 137 1656 84 c 128,-1,35
 1610 31 1610 31 1546.5 2.5 c 128,-1,36
 1483 -26 1483 -26 1406 -26 c 0,37,38
 1330 -26 1330 -26 1266.5 2 c 128,-1,39
 1203 30 1203 30 1158 83 c 128,-1,40
 1113 136 1113 136 1087.5 210.5 c 128,-1,41
 1062 285 1062 285 1062 379 c 0,42,43
 1062 470 1062 470 1087.5 544 c 128,-1,44
 1113 618 1113 618 1158 671 c 128,-1,45
 1203 724 1203 724 1265.5 752.5 c 128,-1,46
 1328 781 1328 781 1406 781 c 0,47,48
 1483 781 1483 781 1546.5 752.5 c 128,-1,49
 1610 724 1610 724 1656 671 c 128,-1,50
 1702 618 1702 618 1727.5 544 c 128,-1,51
 1753 470 1753 470 1753 379 c 0,32,33
1587 379 m 0,52,53
 1587 655 1587 655 1406 655 c 0,54,55
 1228 655 1228 655 1228 379 c 0,56,57
 1228 102 1228 102 1406 102 c 0,58,59
 1587 102 1587 102 1587 379 c 0,52,53
EndSplineSet
EndChar

StartChar: ampersand
Encoding: 6 38 9
Width: 1414
GlyphClass: 2
Flags: W
LayerCount: 2
Fore
SplineSet
1273 715 m 1,0,1
 1266 591 1266 591 1236.5 490 c 128,-1,2
 1207 389 1207 389 1153 295 c 1,3,-1
 1307 102 l 1,4,-1
 1155 -26 l 1,5,-1
 1024 140 l 1,6,7
 845 -26 845 -26 573 -26 c 0,8,9
 469 -26 469 -26 380.5 9 c 128,-1,10
 292 44 292 44 227.5 104 c 128,-1,11
 163 164 163 164 126.5 245 c 128,-1,12
 90 326 90 326 90 418 c 0,13,14
 90 489 90 489 111.5 549 c 128,-1,15
 133 609 133 609 176.5 663.5 c 128,-1,16
 220 718 220 718 286.5 768 c 128,-1,17
 353 818 353 818 442 869 c 1,18,19
 283 1075 283 1075 283 1205 c 0,20,21
 283 1278 283 1278 311 1340.5 c 128,-1,22
 339 1403 339 1403 389 1448 c 128,-1,23
 439 1493 439 1493 508.5 1518.5 c 128,-1,24
 578 1544 578 1544 659 1544 c 0,25,26
 736 1544 736 1544 800.5 1517.5 c 128,-1,27
 865 1491 865 1491 911.5 1447 c 128,-1,28
 958 1403 958 1403 984.5 1344.5 c 128,-1,29
 1011 1286 1011 1286 1011 1220 c 0,30,31
 1011 1160 1011 1160 993 1109 c 128,-1,32
 975 1058 975 1058 938.5 1013 c 128,-1,33
 902 968 902 968 846.5 926 c 128,-1,34
 791 884 791 884 715 839 c 1,35,-1
 1020 459 l 1,36,37
 1044 515 1044 515 1056 578 c 128,-1,38
 1068 641 1068 641 1072 715 c 1,39,-1
 1273 715 l 1,0,1
822 1217 m 0,40,41
 822 1257 822 1257 807 1289 c 128,-1,42
 792 1321 792 1321 768 1344 c 128,-1,43
 744 1367 744 1367 712.5 1379 c 128,-1,44
 681 1391 681 1391 649 1391 c 0,45,46
 612 1391 612 1391 580.5 1379 c 128,-1,47
 549 1367 549 1367 524.5 1345.5 c 128,-1,48
 500 1324 500 1324 486.5 1293.5 c 128,-1,49
 473 1263 473 1263 473 1226 c 0,50,51
 473 1145 473 1145 566 1022 c 1,52,-1
 616 961 l 1,53,54
 726 1021 726 1021 774 1079 c 128,-1,55
 822 1137 822 1137 822 1217 c 0,40,41
914 280 m 1,56,-1
 545 744 l 1,57,58
 480 706 480 706 434 672 c 128,-1,59
 388 638 388 638 356.5 600.5 c 128,-1,60
 325 563 325 563 310 521.5 c 128,-1,61
 295 480 295 480 295 430 c 0,62,63
 295 372 295 372 316 319.5 c 128,-1,64
 337 267 337 267 374.5 227 c 128,-1,65
 412 187 412 187 462.5 163.5 c 128,-1,66
 513 140 513 140 573 140 c 0,67,68
 782 140 782 140 914 280 c 1,56,-1
EndSplineSet
EndChar

StartChar: quotesingle
Encoding: 7 39 10
Width: 405
GlyphClass: 2
Flags: W
LayerCount: 2
Fore
SplineSet
307 1271 m 1,0,-1
 262 980 l 1,1,-1
 146 980 l 1,2,-1
 96 1271 l 1,3,-1
 96 1517 l 1,4,-1
 307 1517 l 1,5,-1
 307 1271 l 1,0,-1
EndSplineSet
EndChar

StartChar: parenleft
Encoding: 8 40 11
Width: 708
GlyphClass: 2
Flags: W
LayerCount: 2
Fore
SplineSet
629 -446 m 1,0,-1
 496 -446 l 1,1,2
 129 37 129 37 129 549 c 0,3,4
 129 1065 129 1065 496 1544 c 1,5,-1
 629 1544 l 1,6,7
 320 1047 320 1047 320 549 c 256,8,9
 320 51 320 51 629 -446 c 1,0,-1
EndSplineSet
EndChar

StartChar: parenright
Encoding: 9 41 12
Width: 708
GlyphClass: 2
Flags: W
LayerCount: 2
Fore
SplineSet
210 1544 m 1,0,1
 579 1068 579 1068 579 549 c 0,2,3
 579 36 579 36 210 -446 c 1,4,-1
 77 -446 l 1,5,6
 386 49 386 49 386 549 c 0,7,8
 386 1048 386 1048 77 1544 c 1,9,-1
 210 1544 l 1,0,1
EndSplineSet
EndChar

StartChar: asterisk
Encoding: 10 42 13
Width: 825
GlyphClass: 2
Flags: W
LayerCount: 2
Fore
SplineSet
755 1238 m 1,0,-1
 502 1183 l 1,1,-1
 672 985 l 1,2,-1
 545 891 l 1,3,-1
 412 1118 l 1,4,-1
 277 891 l 1,5,-1
 150 985 l 1,6,-1
 322 1183 l 1,7,-1
 67 1238 l 1,8,-1
 117 1389 l 1,9,-1
 357 1284 l 1,10,-1
 333 1544 l 1,11,-1
 490 1544 l 1,12,-1
 468 1284 l 1,13,-1
 708 1389 l 1,14,-1
 755 1238 l 1,0,-1
EndSplineSet
EndChar

StartChar: plus
Encoding: 11 43 14
Width: 1238
GlyphClass: 2
Flags: W
LayerCount: 2
Fore
SplineSet
1123 662 m 1,0,-1
 708 662 l 1,1,-1
 708 247 l 1,2,-1
 533 247 l 1,3,-1
 533 662 l 1,4,-1
 117 662 l 1,5,-1
 117 835 l 1,6,-1
 533 835 l 1,7,-1
 533 1251 l 1,8,-1
 708 1251 l 1,9,-1
 708 835 l 1,10,-1
 1123 835 l 1,11,-1
 1123 662 l 1,0,-1
EndSplineSet
EndChar

StartChar: comma
Encoding: 12 44 15
Width: 589
GlyphClass: 2
Flags: W
LayerCount: 2
Fore
SplineSet
402 0 m 2,0,1
 402 -66 402 -66 388.5 -121 c 128,-1,2
 375 -176 375 -176 348.5 -215.5 c 128,-1,3
 322 -255 322 -255 282 -277 c 128,-1,4
 242 -299 242 -299 189 -299 c 1,5,-1
 189 -200 l 1,6,7
 295 -200 295 -200 295 0 c 1,8,-1
 189 0 l 1,9,-1
 189 212 l 1,10,-1
 402 212 l 1,11,-1
 402 0 l 2,0,1
EndSplineSet
EndChar

StartChar: hyphen
Encoding: 13 45 16
AltUni2: 0000ad.ffffffff.0
Width: 708
GlyphClass: 2
Flags: W
LayerCount: 2
Fore
SplineSet
638 456 m 1,0,-1
 67 456 l 1,1,-1
 67 643 l 1,2,-1
 638 643 l 1,3,-1
 638 456 l 1,0,-1
EndSplineSet
EndChar

StartChar: period
Encoding: 14 46 17
Width: 589
GlyphClass: 2
Flags: W
LayerCount: 2
Fore
SplineSet
402 0 m 1,0,-1
 189 0 l 1,1,-1
 189 212 l 1,2,-1
 402 212 l 1,3,-1
 402 0 l 1,0,-1
EndSplineSet
EndChar

StartChar: slash
Encoding: 15 47 18
Width: 589
GlyphClass: 2
Flags: W
LayerCount: 2
Fore
SplineSet
589 1517 m 1,0,-1
 150 0 l 1,1,-1
 0 0 l 1,2,-1
 439 1517 l 1,3,-1
 589 1517 l 1,0,-1
EndSplineSet
EndChar

StartChar: zero
Encoding: 16 48 19
Width: 1181
GlyphClass: 2
Flags: W
LayerCount: 2
Fore
SplineSet
1084 758 m 0,0,1
 1084 -26 1084 -26 589 -26 c 0,2,3
 96 -26 96 -26 96 758 c 0,4,5
 96 1544 96 1544 589 1544 c 0,6,7
 1084 1544 1084 1544 1084 758 c 0,0,1
884 758 m 0,8,9
 884 934 884 934 864.5 1054.5 c 128,-1,10
 845 1175 845 1175 808 1250.5 c 128,-1,11
 771 1326 771 1326 716 1358.5 c 128,-1,12
 661 1391 661 1391 589 1391 c 0,13,14
 518 1391 518 1391 463.5 1359 c 128,-1,15
 409 1327 409 1327 372 1253.5 c 128,-1,16
 335 1180 335 1180 316 1058.5 c 128,-1,17
 297 937 297 937 297 758 c 256,18,19
 297 579 297 579 316 458 c 128,-1,20
 335 337 335 337 372 264.5 c 128,-1,21
 409 192 409 192 463.5 160.5 c 128,-1,22
 518 129 518 129 589 129 c 0,23,24
 661 129 661 129 716 161.5 c 128,-1,25
 771 194 771 194 808 268.5 c 128,-1,26
 845 343 845 343 864.5 463 c 128,-1,27
 884 583 884 583 884 758 c 0,8,9
EndSplineSet
EndChar

StartChar: one
Encoding: 17 49 20
Width: 1181
GlyphClass: 2
Flags: W
LayerCount: 2
Fore
SplineSet
797 0 m 1,0,-1
 601 0 l 1,1,-1
 601 1195 l 1,2,3
 486 1115 486 1115 235 1115 c 1,4,-1
 235 1268 l 1,5,6
 593 1268 593 1268 646 1544 c 1,7,-1
 797 1544 l 1,8,-1
 797 0 l 1,0,-1
EndSplineSet
EndChar

StartChar: two
Encoding: 18 50 21
Width: 1181
GlyphClass: 2
Flags: W
LayerCount: 2
Fore
SplineSet
1072 0 m 1,0,-1
 66 0 l 1,1,2
 66 140 66 140 152 265 c 0,3,4
 194 329 194 329 272 405.5 c 128,-1,5
 350 482 350 482 465 576 c 0,6,7
 583 671 583 671 660.5 743 c 128,-1,8
 738 815 738 815 781 872 c 0,9,10
 865 981 865 981 865 1123 c 0,11,12
 865 1248 865 1248 794.5 1319.5 c 128,-1,13
 724 1391 724 1391 589 1391 c 0,14,15
 469 1391 469 1391 392 1318.5 c 128,-1,16
 315 1246 315 1246 305 1105 c 1,17,-1
 102 1105 l 1,18,19
 110 1207 110 1207 148.5 1288.5 c 128,-1,20
 187 1370 187 1370 251 1426.5 c 128,-1,21
 315 1483 315 1483 402 1513.5 c 128,-1,22
 489 1544 489 1544 593 1544 c 0,23,24
 709 1544 709 1544 798 1511.5 c 128,-1,25
 887 1479 887 1479 946 1421 c 128,-1,26
 1005 1363 1005 1363 1036 1285.5 c 128,-1,27
 1067 1208 1067 1208 1067 1118 c 0,28,29
 1067 1032 1067 1032 1044.5 960 c 128,-1,30
 1022 888 1022 888 977 824 c 0,31,32
 928 759 928 759 838 672.5 c 128,-1,33
 748 586 748 586 613 472 c 0,34,35
 339 242 339 242 337 182 c 1,36,-1
 1072 182 l 1,37,-1
 1072 0 l 1,0,-1
EndSplineSet
EndChar

StartChar: three
Encoding: 19 51 22
Width: 1181
GlyphClass: 2
Flags: W
LayerCount: 2
Fore
SplineSet
1088 448 m 0,0,1
 1088 342 1088 342 1049.5 254.5 c 128,-1,2
 1011 167 1011 167 943 105 c 128,-1,3
 875 43 875 43 783.5 8.5 c 128,-1,4
 692 -26 692 -26 588 -26 c 0,5,6
 482 -26 482 -26 393.5 5 c 128,-1,7
 305 36 305 36 239.5 91.5 c 128,-1,8
 174 147 174 147 136.5 226 c 128,-1,9
 99 305 99 305 94 402 c 1,10,-1
 295 402 l 1,11,12
 295 345 295 345 314 295.5 c 128,-1,13
 333 246 333 246 370.5 209 c 128,-1,14
 408 172 408 172 462 150.5 c 128,-1,15
 516 129 516 129 588 129 c 0,16,17
 655 129 655 129 710 151.5 c 128,-1,18
 765 174 765 174 804.5 215.5 c 128,-1,19
 844 257 844 257 865.5 314.5 c 128,-1,20
 887 372 887 372 887 442 c 0,21,22
 887 589 887 589 804 665 c 128,-1,23
 721 741 721 741 556 741 c 2,24,-1
 482 741 l 1,25,-1
 482 892 l 1,26,-1
 526 892 l 2,27,28
 811 892 811 892 811 1154 c 0,29,30
 811 1270 811 1270 750 1330.5 c 128,-1,31
 689 1391 689 1391 573 1391 c 0,32,33
 340 1391 340 1391 315 1150 c 1,34,-1
 113 1150 l 1,35,36
 124 1248 124 1248 163.5 1322 c 128,-1,37
 203 1396 203 1396 263 1445 c 128,-1,38
 323 1494 323 1494 401 1519 c 128,-1,39
 479 1544 479 1544 569 1544 c 0,40,41
 669 1544 669 1544 750.5 1515 c 128,-1,42
 832 1486 832 1486 890 1433.5 c 128,-1,43
 948 1381 948 1381 979.5 1309 c 128,-1,44
 1011 1237 1011 1237 1011 1150 c 0,45,46
 1011 1050 1011 1050 959.5 966 c 128,-1,47
 908 882 908 882 801 834 c 1,48,49
 867 817 867 817 919.5 781 c 128,-1,50
 972 745 972 745 1009.5 695 c 128,-1,51
 1047 645 1047 645 1067.5 582 c 128,-1,52
 1088 519 1088 519 1088 448 c 0,0,1
EndSplineSet
EndChar

StartChar: four
Encoding: 20 52 23
Width: 1181
GlyphClass: 2
Flags: W
LayerCount: 2
Fore
SplineSet
1083 363 m 1,0,-1
 877 363 l 1,1,-1
 877 0 l 1,2,-1
 681 0 l 1,3,-1
 681 363 l 1,4,-1
 33 363 l 1,5,-1
 33 535 l 1,6,-1
 724 1537 l 1,7,-1
 877 1537 l 1,8,-1
 877 535 l 1,9,-1
 1083 535 l 1,10,-1
 1083 363 l 1,0,-1
681 535 m 1,11,-1
 681 1230 l 1,12,-1
 214 535 l 1,13,-1
 681 535 l 1,11,-1
EndSplineSet
EndChar

StartChar: five
Encoding: 21 53 24
Width: 1181
GlyphClass: 2
Flags: W
LayerCount: 2
Fore
SplineSet
1095 516 m 0,0,1
 1095 400 1095 400 1058 301 c 128,-1,2
 1021 202 1021 202 953 129.5 c 128,-1,3
 885 57 885 57 789.5 15.5 c 128,-1,4
 694 -26 694 -26 578 -26 c 0,5,6
 482 -26 482 -26 397.5 0.5 c 128,-1,7
 313 27 313 27 248 80 c 128,-1,8
 183 133 183 133 141.5 212.5 c 128,-1,9
 100 292 100 292 89 398 c 1,10,-1
 292 398 l 1,11,12
 310 259 310 259 386 194 c 128,-1,13
 462 129 462 129 578 129 c 0,14,15
 648 129 648 129 706 157.5 c 128,-1,16
 764 186 764 186 805.5 236 c 128,-1,17
 847 286 847 286 869.5 353 c 128,-1,18
 892 420 892 420 892 498 c 256,19,20
 892 576 892 576 869.5 640.5 c 128,-1,21
 847 705 847 705 804.5 749.5 c 128,-1,22
 762 794 762 794 703.5 818 c 128,-1,23
 645 842 645 842 573 842 c 0,24,25
 410 842 410 842 297 716 c 1,26,-1
 144 716 l 1,27,-1
 209 1517 l 1,28,-1
 1022 1517 l 1,29,-1
 1022 1338 l 1,30,-1
 375 1338 l 1,31,-1
 342 917 l 1,32,33
 455 1008 455 1008 623 1008 c 0,34,35
 715 1008 715 1008 800 974 c 128,-1,36
 885 940 885 940 951 876 c 128,-1,37
 1017 812 1017 812 1056 720.5 c 128,-1,38
 1095 629 1095 629 1095 516 c 0,0,1
EndSplineSet
EndChar

StartChar: six
Encoding: 22 54 25
Width: 1181
GlyphClass: 2
Flags: W
LayerCount: 2
Fore
SplineSet
1093 493 m 0,0,1
 1093 389 1093 389 1059 295.5 c 128,-1,2
 1025 202 1025 202 963 130.5 c 128,-1,3
 901 59 901 59 813 16.5 c 128,-1,4
 725 -26 725 -26 616 -26 c 0,5,6
 493 -26 493 -26 396 22 c 128,-1,7
 299 70 299 70 232.5 163 c 128,-1,8
 166 256 166 256 131 393.5 c 128,-1,9
 96 531 96 531 96 711 c 0,10,11
 96 1544 96 1544 632 1544 c 0,12,13
 716 1544 716 1544 790 1521.5 c 128,-1,14
 864 1499 864 1499 920.5 1451.5 c 128,-1,15
 977 1404 977 1404 1014.5 1332.5 c 128,-1,16
 1052 1261 1052 1261 1065 1165 c 1,17,-1
 865 1165 l 1,18,19
 835 1391 835 1391 622 1391 c 0,20,21
 480 1391 480 1391 395 1247 c 128,-1,22
 310 1103 310 1103 295 819 c 1,23,24
 443 985 443 985 638 985 c 0,25,26
 731 985 731 985 814 948 c 128,-1,27
 897 911 897 911 959 845 c 128,-1,28
 1021 779 1021 779 1057 689 c 128,-1,29
 1093 599 1093 599 1093 493 c 0,0,1
888 482 m 0,30,31
 888 559 888 559 868 623.5 c 128,-1,32
 848 688 848 688 811.5 734.5 c 128,-1,33
 775 781 775 781 722 806.5 c 128,-1,34
 669 832 669 832 605 832 c 0,35,36
 443 832 443 832 292 668 c 1,37,38
 296 405 296 405 379 267 c 128,-1,39
 462 129 462 129 612 129 c 0,40,41
 675 129 675 129 726.5 156 c 128,-1,42
 778 183 778 183 813.5 231 c 128,-1,43
 849 279 849 279 868.5 343.5 c 128,-1,44
 888 408 888 408 888 482 c 0,30,31
EndSplineSet
EndChar

StartChar: seven
Encoding: 23 55 26
Width: 1181
GlyphClass: 2
Flags: W
LayerCount: 2
Fore
SplineSet
1084 1381 m 1,0,-1
 533 0 l 1,1,-1
 315 0 l 1,2,-1
 879 1338 l 1,3,-1
 102 1338 l 1,4,-1
 102 1517 l 1,5,-1
 1084 1517 l 1,6,-1
 1084 1381 l 1,0,-1
EndSplineSet
EndChar

StartChar: eight
Encoding: 24 56 27
Width: 1181
GlyphClass: 2
Flags: W
LayerCount: 2
Fore
SplineSet
1093 403 m 0,0,1
 1093 309 1093 309 1056.5 230.5 c 128,-1,2
 1020 152 1020 152 953.5 95.5 c 128,-1,3
 887 39 887 39 794.5 6.5 c 128,-1,4
 702 -26 702 -26 589 -26 c 0,5,6
 478 -26 478 -26 386.5 5 c 128,-1,7
 295 36 295 36 228.5 92.5 c 128,-1,8
 162 149 162 149 125.5 227.5 c 128,-1,9
 89 306 89 306 89 403 c 0,10,11
 89 652 89 652 405 798 c 1,12,13
 149 947 149 947 149 1170 c 0,14,15
 149 1251 149 1251 180.5 1320 c 128,-1,16
 212 1389 212 1389 269.5 1439 c 128,-1,17
 327 1489 327 1489 408.5 1516.5 c 128,-1,18
 490 1544 490 1544 589 1544 c 256,19,20
 688 1544 688 1544 769.5 1516.5 c 128,-1,21
 851 1489 851 1489 909 1439 c 128,-1,22
 967 1389 967 1389 999 1320 c 128,-1,23
 1031 1251 1031 1251 1031 1170 c 0,24,25
 1031 947 1031 947 775 798 c 1,26,27
 1093 652 1093 652 1093 403 c 0,0,1
589 878 m 1,28,29
 831 985 831 985 831 1170 c 0,30,31
 831 1274 831 1274 768 1332.5 c 128,-1,32
 705 1391 705 1391 589 1391 c 256,33,34
 473 1391 473 1391 411.5 1332.5 c 128,-1,35
 350 1274 350 1274 350 1170 c 0,36,37
 350 985 350 985 589 878 c 1,28,29
888 403 m 0,38,39
 888 502 888 502 817 572.5 c 128,-1,40
 746 643 746 643 589 712 c 1,41,42
 508 675 508 675 451.5 640 c 128,-1,43
 395 605 395 605 359 568.5 c 128,-1,44
 323 532 323 532 307.5 491 c 128,-1,45
 292 450 292 450 292 403 c 0,46,47
 292 339 292 339 313.5 288 c 128,-1,48
 335 237 335 237 374 201.5 c 128,-1,49
 413 166 413 166 467.5 147.5 c 128,-1,50
 522 129 522 129 589 129 c 0,51,52
 655 129 655 129 710 146.5 c 128,-1,53
 765 164 765 164 804.5 199.5 c 128,-1,54
 844 235 844 235 866 285.5 c 128,-1,55
 888 336 888 336 888 403 c 0,38,39
EndSplineSet
EndChar

StartChar: nine
Encoding: 25 57 28
Width: 1181
GlyphClass: 2
Flags: W
LayerCount: 2
Fore
SplineSet
1084 808 m 0,0,1
 1084 -26 1084 -26 548 -26 c 0,2,3
 463 -26 463 -26 389.5 -2.5 c 128,-1,4
 316 21 316 21 259 68.5 c 128,-1,5
 202 116 202 116 164.5 186.5 c 128,-1,6
 127 257 127 257 116 352 c 1,7,-1
 316 352 l 1,8,9
 339 129 339 129 559 129 c 0,10,11
 701 129 701 129 786 272.5 c 128,-1,12
 871 416 871 416 887 701 c 1,13,14
 736 535 736 535 541 535 c 0,15,16
 443 535 443 535 361 572 c 128,-1,17
 279 609 279 609 218 674 c 128,-1,18
 157 739 157 739 123 828.5 c 128,-1,19
 89 918 89 918 89 1024 c 0,20,21
 89 1128 89 1128 121.5 1222.5 c 128,-1,22
 154 1317 154 1317 215.5 1388.5 c 128,-1,23
 277 1460 277 1460 365 1502 c 128,-1,24
 453 1544 453 1544 563 1544 c 0,25,26
 814 1544 814 1544 949 1357.5 c 128,-1,27
 1084 1171 1084 1171 1084 808 c 0,0,1
888 851 m 1,28,29
 882 1120 882 1120 798.5 1255.5 c 128,-1,30
 715 1391 715 1391 569 1391 c 0,31,32
 505 1391 505 1391 454 1364 c 128,-1,33
 403 1337 403 1337 366.5 1289 c 128,-1,34
 330 1241 330 1241 311 1177 c 128,-1,35
 292 1113 292 1113 292 1038 c 0,36,37
 292 962 292 962 311 898.5 c 128,-1,38
 330 835 330 835 366 788.5 c 128,-1,39
 402 742 402 742 454 715.5 c 128,-1,40
 506 689 506 689 573 689 c 0,41,42
 738 689 738 689 888 851 c 1,28,29
EndSplineSet
EndChar

StartChar: colon
Encoding: 26 58 29
Width: 589
GlyphClass: 2
Flags: W
LayerCount: 2
Fore
SplineSet
402 0 m 1,0,-1
 189 0 l 1,1,-1
 189 212 l 1,2,-1
 402 212 l 1,3,-1
 402 0 l 1,0,-1
402 887 m 1,4,-1
 189 887 l 1,5,-1
 189 1100 l 1,6,-1
 402 1100 l 1,7,-1
 402 887 l 1,4,-1
EndSplineSet
EndChar

StartChar: semicolon
Encoding: 27 59 30
Width: 589
GlyphClass: 2
Flags: W
LayerCount: 2
Fore
SplineSet
402 0 m 2,0,1
 402 -66 402 -66 388.5 -121 c 128,-1,2
 375 -176 375 -176 348.5 -215.5 c 128,-1,3
 322 -255 322 -255 282 -277 c 128,-1,4
 242 -299 242 -299 189 -299 c 1,5,-1
 189 -200 l 1,6,7
 295 -200 295 -200 295 0 c 1,8,-1
 189 0 l 1,9,-1
 189 212 l 1,10,-1
 402 212 l 1,11,-1
 402 0 l 2,0,1
402 887 m 1,12,-1
 189 887 l 1,13,-1
 189 1100 l 1,14,-1
 402 1100 l 1,15,-1
 402 887 l 1,12,-1
EndSplineSet
EndChar

StartChar: less
Encoding: 28 60 31
Width: 1238
GlyphClass: 2
Flags: W
LayerCount: 2
Fore
SplineSet
1123 235 m 1,0,-1
 117 662 l 1,1,-1
 117 835 l 1,2,-1
 1123 1263 l 1,3,-1
 1123 1077 l 1,4,-1
 325 749 l 1,5,-1
 1123 420 l 1,6,-1
 1123 235 l 1,0,-1
EndSplineSet
EndChar

StartChar: equal
Encoding: 29 61 32
Width: 1238
GlyphClass: 2
Flags: W
LayerCount: 2
Fore
SplineSet
1123 892 m 1,0,-1
 117 892 l 1,1,-1
 117 1067 l 1,2,-1
 1123 1067 l 1,3,-1
 1123 892 l 1,0,-1
1123 430 m 1,4,-1
 117 430 l 1,5,-1
 117 605 l 1,6,-1
 1123 605 l 1,7,-1
 1123 430 l 1,4,-1
EndSplineSet
EndChar

StartChar: greater
Encoding: 30 62 33
Width: 1238
GlyphClass: 2
Flags: W
LayerCount: 2
Fore
SplineSet
1123 662 m 1,0,-1
 117 235 l 1,1,-1
 117 420 l 1,2,-1
 914 749 l 1,3,-1
 117 1077 l 1,4,-1
 117 1263 l 1,5,-1
 1123 835 l 1,6,-1
 1123 662 l 1,0,-1
EndSplineSet
EndChar

StartChar: question
Encoding: 31 63 34
Width: 1181
GlyphClass: 2
Flags: W
LayerCount: 2
Fore
SplineSet
1077 1131 m 0,0,1
 1077 1078 1077 1078 1067 1032.5 c 128,-1,2
 1057 987 1057 987 1032 942.5 c 128,-1,3
 1007 898 1007 898 964 851.5 c 128,-1,4
 921 805 921 805 857 749 c 0,5,6
 792 694 792 694 755 657.5 c 128,-1,7
 718 621 718 621 699.5 583.5 c 128,-1,8
 681 546 681 546 676.5 498 c 128,-1,9
 672 450 672 450 672 373 c 1,10,-1
 490 373 l 1,11,12
 490 469 490 469 499 531 c 128,-1,13
 508 593 508 593 530 642 c 128,-1,14
 552 691 552 691 592 736.5 c 128,-1,15
 632 782 632 782 695 844 c 0,16,17
 739 887 739 887 774 917 c 0,18,19
 808 947 808 947 831 975.5 c 128,-1,20
 854 1004 854 1004 865.5 1037 c 128,-1,21
 877 1070 877 1070 877 1118 c 0,22,23
 877 1177 877 1177 855.5 1227 c 128,-1,24
 834 1277 834 1277 796 1313.5 c 128,-1,25
 758 1350 758 1350 706 1370.5 c 128,-1,26
 654 1391 654 1391 592 1391 c 0,27,28
 345 1391 345 1391 299 1105 c 1,29,-1
 99 1105 l 1,30,31
 106 1204 106 1204 144.5 1285 c 128,-1,32
 183 1366 183 1366 247.5 1423.5 c 128,-1,33
 312 1481 312 1481 399 1512.5 c 128,-1,34
 486 1544 486 1544 589 1544 c 0,35,36
 701 1544 701 1544 791 1512.5 c 128,-1,37
 881 1481 881 1481 944.5 1426 c 128,-1,38
 1008 1371 1008 1371 1042.5 1295.5 c 128,-1,39
 1077 1220 1077 1220 1077 1131 c 0,0,1
694 0 m 1,40,-1
 482 0 l 1,41,-1
 482 212 l 1,42,-1
 694 212 l 1,43,-1
 694 0 l 1,40,-1
EndSplineSet
EndChar

StartChar: at
Encoding: 32 64 35
Width: 2155
GlyphClass: 2
Flags: W
LayerCount: 2
Fore
SplineSet
2031 738 m 0,0,1
 2031 563 2031 563 1983.5 426 c 128,-1,2
 1936 289 1936 289 1853 194 c 128,-1,3
 1770 99 1770 99 1655 49 c 128,-1,4
 1540 -1 1540 -1 1406 -1 c 0,5,6
 1316 -1 1316 -1 1264.5 46.5 c 128,-1,7
 1213 94 1213 94 1207 172 c 1,8,9
 1085 -1 1085 -1 888 -1 c 0,10,11
 807 -1 807 -1 738 29 c 128,-1,12
 669 59 669 59 619 114 c 128,-1,13
 569 169 569 169 541 247.5 c 128,-1,14
 513 326 513 326 513 423 c 0,15,16
 513 559 513 559 560.5 685 c 128,-1,17
 608 811 608 811 684.5 908 c 128,-1,18
 761 1005 761 1005 856.5 1064 c 128,-1,19
 952 1123 952 1123 1051 1123 c 0,20,21
 1274 1123 1274 1123 1377 990 c 1,22,-1
 1401 1093 l 1,23,-1
 1586 1093 l 1,24,-1
 1426 398 l 2,25,26
 1411 340 1411 340 1405.5 298 c 128,-1,27
 1400 256 1400 256 1400 223 c 0,28,29
 1400 150 1400 150 1456 150 c 0,30,31
 1543 150 1543 150 1620 191.5 c 128,-1,32
 1697 233 1697 233 1754.5 310.5 c 128,-1,33
 1812 388 1812 388 1845 497 c 128,-1,34
 1878 606 1878 606 1878 744 c 0,35,36
 1878 885 1878 885 1824 1005 c 128,-1,37
 1770 1125 1770 1125 1673.5 1214 c 128,-1,38
 1577 1303 1577 1303 1441.5 1353 c 128,-1,39
 1306 1403 1306 1403 1141 1403 c 0,40,41
 950 1403 950 1403 789.5 1330 c 128,-1,42
 629 1257 629 1257 514 1132 c 128,-1,43
 399 1007 399 1007 335.5 839.5 c 128,-1,44
 272 672 272 672 272 485 c 0,45,46
 272 297 272 297 332.5 151.5 c 128,-1,47
 393 6 393 6 508 -95 c 128,-1,48
 623 -196 623 -196 788.5 -248 c 128,-1,49
 954 -300 954 -300 1164 -300 c 0,50,51
 1427 -300 1427 -300 1600 -220 c 1,52,-1
 1676 -347 l 1,53,54
 1450 -446 1450 -446 1165 -446 c 0,55,56
 921 -446 921 -446 727 -381.5 c 128,-1,57
 533 -317 533 -317 398 -196.5 c 128,-1,58
 263 -76 263 -76 191 96.5 c 128,-1,59
 119 269 119 269 119 485 c 0,60,61
 119 940 119 940 409 1246 c 1,62,63
 702 1547 702 1547 1144 1547 c 0,64,65
 1347 1547 1347 1547 1511 1485.5 c 128,-1,66
 1675 1424 1675 1424 1790.5 1315.5 c 128,-1,67
 1906 1207 1906 1207 1968.5 1059 c 128,-1,68
 2031 911 2031 911 2031 738 c 0,0,1
1341 839 m 1,69,70
 1256 968 1256 968 1065 968 c 0,71,72
 994 968 994 968 929 920 c 128,-1,73
 864 872 864 872 814 795.5 c 128,-1,74
 764 719 764 719 734 622.5 c 128,-1,75
 704 526 704 526 704 429 c 0,76,77
 704 150 704 150 925 150 c 0,78,79
 980 150 980 150 1032.5 174.5 c 128,-1,80
 1085 199 1085 199 1130 242.5 c 128,-1,81
 1175 286 1175 286 1209.5 347.5 c 128,-1,82
 1244 409 1244 409 1261 485 c 2,83,-1
 1341 839 l 1,69,70
EndSplineSet
EndChar

StartChar: A
Encoding: 33 65 36
Width: 1414
GlyphClass: 2
Flags: W
LayerCount: 2
Fore
SplineSet
955 622 m 1,0,-1
 689 1326 l 1,1,-1
 432 622 l 1,2,-1
 955 622 l 1,0,-1
1417 0 m 1,3,-1
 1191 0 l 1,4,-1
 1015 462 l 1,5,-1
 379 462 l 1,6,-1
 210 0 l 1,7,-1
 -1 0 l 1,8,-1
 582 1517 l 1,9,-1
 798 1517 l 1,10,-1
 1417 0 l 1,3,-1
EndSplineSet
EndChar

StartChar: B
Encoding: 34 66 37
Width: 1414
GlyphClass: 2
Flags: W
LayerCount: 2
Fore
SplineSet
1306 440 m 0,0,1
 1306 222 1306 222 1163.5 111 c 128,-1,2
 1021 0 1021 0 738 0 c 2,3,-1
 172 0 l 1,4,-1
 172 1517 l 1,5,-1
 711 1517 l 2,6,7
 834 1517 834 1517 930.5 1490 c 128,-1,8
 1027 1463 1027 1463 1093.5 1413 c 128,-1,9
 1160 1363 1160 1363 1195 1291.5 c 128,-1,10
 1230 1220 1230 1220 1230 1131 c 0,11,12
 1230 911 1230 911 1011 807 c 1,13,14
 1085 788 1085 788 1141 751.5 c 128,-1,15
 1197 715 1197 715 1233.5 666.5 c 128,-1,16
 1270 618 1270 618 1288 560 c 128,-1,17
 1306 502 1306 502 1306 440 c 0,0,1
370 884 m 1,18,-1
 709 884 l 2,19,20
 878 884 878 884 955 936 c 128,-1,21
 1032 988 1032 988 1032 1114 c 0,22,23
 1032 1168 1032 1168 1015 1210.5 c 128,-1,24
 998 1253 998 1253 958.5 1281.5 c 128,-1,25
 919 1310 919 1310 853.5 1324 c 128,-1,26
 788 1338 788 1338 689 1338 c 2,27,-1
 370 1338 l 1,28,-1
 370 884 l 1,18,-1
370 182 m 1,29,-1
 736 182 l 2,30,31
 1097 182 1097 182 1097 440 c 0,32,33
 1097 508 1097 508 1077 557 c 128,-1,34
 1057 606 1057 606 1012 638.5 c 128,-1,35
 967 671 967 671 893 686.5 c 128,-1,36
 819 702 819 702 711 702 c 2,37,-1
 370 702 l 1,38,-1
 370 182 l 1,29,-1
EndSplineSet
EndChar

StartChar: C
Encoding: 35 67 38
Width: 1533
GlyphClass: 2
Flags: W
LayerCount: 2
Fore
SplineSet
1424 1060 m 1,0,-1
 1217 1060 l 1,1,2
 1208 1130 1208 1130 1176 1188 c 128,-1,3
 1144 1246 1144 1246 1092 1286.5 c 128,-1,4
 1040 1327 1040 1327 967.5 1349 c 128,-1,5
 895 1371 895 1371 808 1371 c 0,6,7
 691 1371 691 1371 598 1329.5 c 128,-1,8
 505 1288 505 1288 440.5 1210.5 c 128,-1,9
 376 1133 376 1133 341.5 1019 c 128,-1,10
 307 905 307 905 307 759 c 0,11,12
 307 611 307 611 342.5 497 c 128,-1,13
 378 383 378 383 442 304.5 c 128,-1,14
 506 226 506 226 597.5 186 c 128,-1,15
 689 146 689 146 804 146 c 0,16,17
 992 146 992 146 1096.5 234 c 128,-1,18
 1201 322 1201 322 1217 482 c 1,19,-1
 1424 482 l 1,20,21
 1413 359 1413 359 1362 264 c 128,-1,22
 1311 169 1311 169 1229 104.5 c 128,-1,23
 1147 40 1147 40 1039 7 c 128,-1,24
 931 -26 931 -26 807 -26 c 0,25,26
 645 -26 645 -26 514 29 c 128,-1,27
 383 84 383 84 291 186.5 c 128,-1,28
 199 289 199 289 149 434 c 128,-1,29
 99 579 99 579 99 759 c 0,30,31
 99 940 99 940 149 1085 c 128,-1,32
 199 1230 199 1230 291 1332 c 128,-1,33
 383 1434 383 1434 514 1489 c 128,-1,34
 645 1544 645 1544 807 1544 c 0,35,36
 929 1544 929 1544 1037 1509 c 128,-1,37
 1145 1474 1145 1474 1227.5 1410.5 c 128,-1,38
 1310 1347 1310 1347 1361.5 1257.5 c 128,-1,39
 1413 1168 1413 1168 1424 1060 c 1,0,-1
EndSplineSet
EndChar

StartChar: D
Encoding: 36 68 39
Width: 1533
GlyphClass: 2
Flags: W
LayerCount: 2
Fore
SplineSet
172 1517 m 1,0,-1
 651 1517 l 2,1,2
 1426 1517 1426 1517 1426 768 c 0,3,4
 1426 0 1426 0 651 0 c 2,5,-1
 172 0 l 1,6,-1
 172 1517 l 1,0,-1
370 182 m 1,7,-1
 646 182 l 2,8,9
 818 182 818 182 929 222.5 c 128,-1,10
 1040 263 1040 263 1104 339 c 128,-1,11
 1168 415 1168 415 1193 523.5 c 128,-1,12
 1218 632 1218 632 1218 768 c 0,13,14
 1218 901 1218 901 1192.5 1006 c 128,-1,15
 1167 1111 1167 1111 1102.5 1185.5 c 128,-1,16
 1038 1260 1038 1260 927.5 1299 c 128,-1,17
 817 1338 817 1338 646 1338 c 2,18,-1
 370 1338 l 1,19,-1
 370 182 l 1,7,-1
EndSplineSet
EndChar

StartChar: E
Encoding: 37 69 40
Width: 1414
GlyphClass: 2
Flags: W
LayerCount: 2
Fore
SplineSet
1303 0 m 1,0,-1
 172 0 l 1,1,-1
 172 1517 l 1,2,-1
 1268 1517 l 1,3,-1
 1268 1338 l 1,4,-1
 370 1338 l 1,5,-1
 370 875 l 1,6,-1
 1208 875 l 1,7,-1
 1208 694 l 1,8,-1
 370 694 l 1,9,-1
 370 182 l 1,10,-1
 1303 182 l 1,11,-1
 1303 0 l 1,0,-1
EndSplineSet
EndChar

StartChar: F
Encoding: 38 70 41
Width: 1296
GlyphClass: 2
Flags: W
LayerCount: 2
Fore
SplineSet
1195 1338 m 1,0,-1
 370 1338 l 1,1,-1
 370 868 l 1,2,-1
 1084 868 l 1,3,-1
 1084 689 l 1,4,-1
 370 689 l 1,5,-1
 370 0 l 1,6,-1
 172 0 l 1,7,-1
 172 1517 l 1,8,-1
 1195 1517 l 1,9,-1
 1195 1338 l 1,0,-1
EndSplineSet
EndChar

StartChar: G
Encoding: 39 71 42
Width: 1652
GlyphClass: 2
Flags: W
LayerCount: 2
Fore
SplineSet
834 -26 m 0,0,1
 671 -26 671 -26 535 31.5 c 128,-1,2
 399 89 399 89 302.5 192 c 128,-1,3
 206 295 206 295 152.5 439 c 128,-1,4
 99 583 99 583 99 759 c 0,5,6
 99 934 99 934 150.5 1078.5 c 128,-1,7
 202 1223 202 1223 297.5 1326.5 c 128,-1,8
 393 1430 393 1430 527 1487 c 128,-1,9
 661 1544 661 1544 827 1544 c 0,10,11
 962 1544 962 1544 1078.5 1510 c 128,-1,12
 1195 1476 1195 1476 1282.5 1412 c 128,-1,13
 1370 1348 1370 1348 1423.5 1259 c 128,-1,14
 1477 1170 1477 1170 1487 1060 c 1,15,-1
 1280 1060 l 1,16,17
 1266 1203 1266 1203 1151.5 1287 c 128,-1,18
 1037 1371 1037 1371 831 1371 c 0,19,20
 714 1371 714 1371 617.5 1330.5 c 128,-1,21
 521 1290 521 1290 452 1212 c 128,-1,22
 383 1134 383 1134 345 1020.5 c 128,-1,23
 307 907 307 907 307 759 c 0,24,25
 307 616 307 616 344.5 502.5 c 128,-1,26
 382 389 382 389 450.5 309.5 c 128,-1,27
 519 230 519 230 616.5 188 c 128,-1,28
 714 146 714 146 832 146 c 0,29,30
 1161 146 1161 146 1320 363 c 1,31,-1
 1320 593 l 1,32,-1
 919 593 l 1,33,-1
 919 775 l 1,34,-1
 1514 775 l 1,35,-1
 1514 0 l 1,36,-1
 1371 0 l 1,37,-1
 1320 160 l 1,38,39
 1165 -26 1165 -26 834 -26 c 0,0,1
EndSplineSet
EndChar

StartChar: H
Encoding: 40 72 43
Width: 1533
GlyphClass: 2
Flags: W
LayerCount: 2
Fore
SplineSet
1361 0 m 1,0,-1
 1161 0 l 1,1,-1
 1161 715 l 1,2,-1
 370 715 l 1,3,-1
 370 0 l 1,4,-1
 172 0 l 1,5,-1
 172 1517 l 1,6,-1
 370 1517 l 1,7,-1
 370 897 l 1,8,-1
 1161 897 l 1,9,-1
 1161 1517 l 1,10,-1
 1361 1517 l 1,11,-1
 1361 0 l 1,0,-1
EndSplineSet
EndChar

StartChar: I
Encoding: 41 73 44
Width: 589
GlyphClass: 2
Flags: W
LayerCount: 2
Fore
SplineSet
398 0 m 1,0,-1
 194 0 l 1,1,-1
 194 1517 l 1,2,-1
 398 1517 l 1,3,-1
 398 0 l 1,0,-1
EndSplineSet
EndChar

StartChar: J
Encoding: 42 74 45
Width: 1061
GlyphClass: 2
Flags: W
LayerCount: 2
Fore
SplineSet
891 485 m 2,0,1
 891 347 891 347 864 250 c 128,-1,2
 837 153 837 153 783 91.5 c 128,-1,3
 729 30 729 30 649 2 c 128,-1,4
 569 -26 569 -26 465 -26 c 0,5,6
 372 -26 372 -26 296 5 c 128,-1,7
 220 36 220 36 166.5 91 c 128,-1,8
 113 146 113 146 84.5 223 c 128,-1,9
 56 300 56 300 56 393 c 2,10,-1
 56 432 l 1,11,-1
 260 432 l 1,12,13
 260 156 260 156 465 156 c 0,14,15
 518 156 518 156 560 168 c 128,-1,16
 602 180 602 180 630.5 215 c 128,-1,17
 659 250 659 250 674 312.5 c 128,-1,18
 689 375 689 375 689 475 c 2,19,-1
 689 1517 l 1,20,-1
 891 1517 l 1,21,-1
 891 485 l 2,0,1
EndSplineSet
EndChar

StartChar: K
Encoding: 43 75 46
Width: 1414
GlyphClass: 2
Flags: W
LayerCount: 2
Fore
SplineSet
1411 0 m 1,0,-1
 1147 0 l 1,1,-1
 606 758 l 1,2,-1
 370 526 l 1,3,-1
 370 0 l 1,4,-1
 172 0 l 1,5,-1
 172 1517 l 1,6,-1
 370 1517 l 1,7,-1
 370 766 l 1,8,-1
 1111 1517 l 1,9,-1
 1383 1517 l 1,10,-1
 746 897 l 1,11,-1
 1411 0 l 1,0,-1
EndSplineSet
EndChar

StartChar: L
Encoding: 44 76 47
Width: 1181
GlyphClass: 2
Flags: W
LayerCount: 2
Fore
SplineSet
1110 0 m 1,0,-1
 172 0 l 1,1,-1
 172 1517 l 1,2,-1
 370 1517 l 1,3,-1
 370 182 l 1,4,-1
 1110 182 l 1,5,-1
 1110 0 l 1,0,-1
EndSplineSet
EndChar

StartChar: M
Encoding: 45 77 48
Width: 1766
GlyphClass: 2
Flags: W
LayerCount: 2
Fore
SplineSet
1599 0 m 1,0,-1
 1406 0 l 1,1,-1
 1406 1291 l 1,2,-1
 974 0 l 1,3,-1
 792 0 l 1,4,-1
 360 1291 l 1,5,-1
 360 0 l 1,6,-1
 172 0 l 1,7,-1
 172 1517 l 1,8,-1
 470 1517 l 1,9,-1
 884 253 l 1,10,-1
 1296 1517 l 1,11,-1
 1599 1517 l 1,12,-1
 1599 0 l 1,0,-1
EndSplineSet
EndChar

StartChar: N
Encoding: 46 78 49
Width: 1533
GlyphClass: 2
Flags: W
LayerCount: 2
Fore
SplineSet
1361 0 m 1,0,-1
 1155 0 l 1,1,-1
 360 1198 l 1,2,-1
 360 0 l 1,3,-1
 172 0 l 1,4,-1
 172 1517 l 1,5,-1
 375 1517 l 1,6,-1
 1171 320 l 1,7,-1
 1171 1517 l 1,8,-1
 1361 1517 l 1,9,-1
 1361 0 l 1,0,-1
EndSplineSet
EndChar

StartChar: O
Encoding: 47 79 50
Width: 1652
GlyphClass: 2
Flags: W
LayerCount: 2
Fore
SplineSet
827 1544 m 0,0,1
 987 1544 987 1544 1120 1488.5 c 128,-1,2
 1253 1433 1253 1433 1349.5 1330 c 128,-1,3
 1446 1227 1446 1227 1499.5 1082 c 128,-1,4
 1553 937 1553 937 1553 759 c 256,5,6
 1553 581 1553 581 1498.5 435.5 c 128,-1,7
 1444 290 1444 290 1347.5 188 c 128,-1,8
 1251 86 1251 86 1118 30 c 128,-1,9
 985 -26 985 -26 827 -26 c 0,10,11
 668 -26 668 -26 534 31.5 c 128,-1,12
 400 89 400 89 303.5 192 c 128,-1,13
 207 295 207 295 153 439 c 128,-1,14
 99 583 99 583 99 759 c 0,15,16
 99 932 99 932 151.5 1076.5 c 128,-1,17
 204 1221 204 1221 300 1325 c 128,-1,18
 396 1429 396 1429 530 1486.5 c 128,-1,19
 664 1544 664 1544 827 1544 c 0,0,1
825 146 m 0,20,21
 941 146 941 146 1037 189 c 128,-1,22
 1133 232 1133 232 1201.5 312 c 128,-1,23
 1270 392 1270 392 1308 505 c 128,-1,24
 1346 618 1346 618 1346 759 c 0,25,26
 1346 902 1346 902 1308 1016 c 128,-1,27
 1270 1130 1270 1130 1201.5 1208.5 c 128,-1,28
 1133 1287 1133 1287 1038.5 1329 c 128,-1,29
 944 1371 944 1371 831 1371 c 0,30,31
 715 1371 715 1371 619 1329.5 c 128,-1,32
 523 1288 523 1288 454 1210.5 c 128,-1,33
 385 1133 385 1133 346 1019 c 128,-1,34
 307 905 307 905 307 759 c 0,35,36
 307 616 307 616 346 502.5 c 128,-1,37
 385 389 385 389 453.5 309.5 c 128,-1,38
 522 230 522 230 617 188 c 128,-1,39
 712 146 712 146 825 146 c 0,20,21
EndSplineSet
EndChar

StartChar: P
Encoding: 48 80 51
Width: 1414
GlyphClass: 2
Flags: W
LayerCount: 2
Fore
SplineSet
172 1517 m 1,0,-1
 807 1517 l 2,1,2
 907 1517 907 1517 1000.5 1496.5 c 128,-1,3
 1094 1476 1094 1476 1165.5 1425 c 128,-1,4
 1237 1374 1237 1374 1280 1289 c 128,-1,5
 1323 1204 1323 1204 1323 1075 c 0,6,7
 1323 842 1323 842 1180 724 c 128,-1,8
 1037 606 1037 606 754 606 c 2,9,-1
 370 606 l 1,10,-1
 370 0 l 1,11,-1
 172 0 l 1,12,-1
 172 1517 l 1,0,-1
370 788 m 1,13,-1
 755 788 l 2,14,15
 854 788 854 788 922 806.5 c 128,-1,16
 990 825 990 825 1032.5 860 c 128,-1,17
 1075 895 1075 895 1094.5 948 c 128,-1,18
 1114 1001 1114 1001 1114 1070 c 0,19,20
 1114 1148 1114 1148 1087.5 1200.5 c 128,-1,21
 1061 1253 1061 1253 1014.5 1283.5 c 128,-1,22
 968 1314 968 1314 905 1326 c 128,-1,23
 842 1338 842 1338 771 1338 c 2,24,-1
 370 1338 l 1,25,-1
 370 788 l 1,13,-1
EndSplineSet
EndChar

StartChar: Q
Encoding: 49 81 52
Width: 1652
GlyphClass: 2
Flags: W
LayerCount: 2
Fore
SplineSet
1579 21 m 1,0,-1
 1460 -122 l 1,1,-1
 1208 77 l 1,2,3
 1038 -26 1038 -26 827 -26 c 0,4,5
 668 -26 668 -26 534 31.5 c 128,-1,6
 400 89 400 89 303.5 192 c 128,-1,7
 207 295 207 295 153 439 c 128,-1,8
 99 583 99 583 99 759 c 0,9,10
 99 932 99 932 151.5 1076.5 c 128,-1,11
 204 1221 204 1221 300 1325 c 128,-1,12
 396 1429 396 1429 530 1486.5 c 128,-1,13
 664 1544 664 1544 827 1544 c 0,14,15
 987 1544 987 1544 1120 1488.5 c 128,-1,16
 1253 1433 1253 1433 1349.5 1330 c 128,-1,17
 1446 1227 1446 1227 1499.5 1082 c 128,-1,18
 1553 937 1553 937 1553 759 c 0,19,20
 1553 420 1553 420 1357 194 c 1,21,-1
 1579 21 l 1,0,-1
1205 315 m 1,22,23
 1346 479 1346 479 1346 759 c 0,24,25
 1346 902 1346 902 1308 1016 c 128,-1,26
 1270 1130 1270 1130 1201.5 1208.5 c 128,-1,27
 1133 1287 1133 1287 1038.5 1329 c 128,-1,28
 944 1371 944 1371 831 1371 c 0,29,30
 715 1371 715 1371 619 1329.5 c 128,-1,31
 523 1288 523 1288 454 1210.5 c 128,-1,32
 385 1133 385 1133 346 1019 c 128,-1,33
 307 905 307 905 307 759 c 0,34,35
 307 616 307 616 346 502.5 c 128,-1,36
 385 389 385 389 453.5 309.5 c 128,-1,37
 522 230 522 230 617 188 c 128,-1,38
 712 146 712 146 825 146 c 0,39,40
 951 146 951 146 1054 197 c 1,41,-1
 902 316 l 1,42,-1
 1022 459 l 1,43,-1
 1205 315 l 1,22,23
EndSplineSet
EndChar

StartChar: R
Encoding: 50 82 53
Width: 1533
GlyphClass: 2
Flags: W
LayerCount: 2
Fore
SplineSet
1436 0 m 1,0,-1
 1218 0 l 1,1,-1
 1075 405 l 2,2,3
 1055 458 1055 458 1022.5 503 c 128,-1,4
 990 548 990 548 947 580.5 c 128,-1,5
 904 613 904 613 852.5 631 c 128,-1,6
 801 649 801 649 744 649 c 2,7,-1
 370 649 l 1,8,-1
 370 0 l 1,9,-1
 172 0 l 1,10,-1
 172 1517 l 1,11,-1
 842 1517 l 2,12,13
 964 1517 964 1517 1064 1495.5 c 128,-1,14
 1164 1474 1164 1474 1235 1425 c 128,-1,15
 1306 1376 1306 1376 1344.5 1294.5 c 128,-1,16
 1383 1213 1383 1213 1383 1093 c 0,17,18
 1383 1011 1383 1011 1358.5 944.5 c 128,-1,19
 1334 878 1334 878 1289 827 c 128,-1,20
 1244 776 1244 776 1181 741 c 128,-1,21
 1118 706 1118 706 1042 689 c 1,22,23
 1201 638 1201 638 1284 413 c 2,24,-1
 1436 0 l 1,0,-1
370 831 m 1,25,-1
 819 831 l 2,26,27
 911 831 911 831 978 844 c 128,-1,28
 1045 857 1045 857 1089 887.5 c 128,-1,29
 1133 918 1133 918 1154 968 c 128,-1,30
 1175 1018 1175 1018 1175 1093 c 0,31,32
 1175 1351 1175 1351 851 1351 c 2,33,-1
 370 1351 l 1,34,-1
 370 831 l 1,25,-1
EndSplineSet
EndChar

StartChar: S
Encoding: 51 83 54
Width: 1414
GlyphClass: 2
Flags: W
LayerCount: 2
Fore
SplineSet
744 -26 m 0,0,1
 581 -26 581 -26 460 12.5 c 128,-1,2
 339 51 339 51 259 120 c 128,-1,3
 179 189 179 189 139 283.5 c 128,-1,4
 99 378 99 378 96 489 c 1,5,-1
 289 489 l 1,6,7
 296 403 296 403 332.5 340 c 128,-1,8
 369 277 369 277 428.5 236.5 c 128,-1,9
 488 196 488 196 566.5 176 c 128,-1,10
 645 156 645 156 735 156 c 0,11,12
 817 156 817 156 886 173 c 128,-1,13
 955 190 955 190 1004.5 223 c 128,-1,14
 1054 256 1054 256 1082 304 c 128,-1,15
 1110 352 1110 352 1110 413 c 0,16,17
 1110 476 1110 476 1085 519.5 c 128,-1,18
 1060 563 1060 563 1004 596 c 128,-1,19
 948 629 948 629 857 655 c 128,-1,20
 766 681 766 681 635 709 c 0,21,22
 502 736 502 736 409 774 c 128,-1,23
 316 812 316 812 258 862 c 128,-1,24
 200 912 200 912 174.5 976.5 c 128,-1,25
 149 1041 149 1041 149 1123 c 0,26,27
 149 1214 149 1214 187 1292 c 128,-1,28
 225 1370 225 1370 295.5 1425.5 c 128,-1,29
 366 1481 366 1481 466 1512.5 c 128,-1,30
 566 1544 566 1544 689 1544 c 0,31,32
 815 1544 815 1544 921 1513.5 c 128,-1,33
 1027 1483 1027 1483 1102.5 1425 c 128,-1,34
 1178 1367 1178 1367 1222 1282 c 128,-1,35
 1266 1197 1266 1197 1268 1088 c 1,36,-1
 1072 1088 l 1,37,38
 1044 1366 1044 1366 698 1366 c 0,39,40
 525 1366 525 1366 434 1302 c 128,-1,41
 343 1238 343 1238 343 1135 c 0,42,43
 343 1087 343 1087 358 1052.5 c 128,-1,44
 373 1018 373 1018 412.5 991.5 c 128,-1,45
 452 965 452 965 520 943 c 128,-1,46
 588 921 588 921 694 898 c 0,47,48
 798 874 798 874 877.5 852.5 c 128,-1,49
 957 831 957 831 1017 811 c 0,50,51
 1072 791 1072 791 1123.5 758 c 128,-1,52
 1175 725 1175 725 1216 678 c 128,-1,53
 1257 631 1257 631 1281.5 568.5 c 128,-1,54
 1306 506 1306 506 1306 429 c 0,55,56
 1306 330 1306 330 1264.5 247 c 128,-1,57
 1223 164 1223 164 1148.5 103.5 c 128,-1,58
 1074 43 1074 43 970.5 8.5 c 128,-1,59
 867 -26 867 -26 744 -26 c 0,0,1
EndSplineSet
EndChar

StartChar: T
Encoding: 52 84 55
Width: 1296
GlyphClass: 2
Flags: W
LayerCount: 2
Fore
SplineSet
1250 1338 m 1,0,-1
 746 1338 l 1,1,-1
 746 0 l 1,2,-1
 545 0 l 1,3,-1
 545 1338 l 1,4,-1
 46 1338 l 1,5,-1
 46 1517 l 1,6,-1
 1250 1517 l 1,7,-1
 1250 1338 l 1,0,-1
EndSplineSet
EndChar

StartChar: U
Encoding: 53 85 56
Width: 1533
GlyphClass: 2
Flags: W
LayerCount: 2
Fore
SplineSet
766 -26 m 0,0,1
 631 -26 631 -26 534.5 0.5 c 128,-1,2
 438 27 438 27 372 73 c 128,-1,3
 306 119 306 119 266.5 182 c 128,-1,4
 227 245 227 245 205.5 319 c 128,-1,5
 184 393 184 393 178 474.5 c 128,-1,6
 172 556 172 556 172 639 c 2,7,-1
 172 1517 l 1,8,-1
 370 1517 l 1,9,-1
 370 643 l 2,10,11
 370 492 370 492 396 397 c 128,-1,12
 422 302 422 302 472 248 c 128,-1,13
 522 194 522 194 595.5 175 c 128,-1,14
 669 156 669 156 766 156 c 0,15,16
 862 156 862 156 936 176 c 128,-1,17
 1010 196 1010 196 1060 249.5 c 128,-1,18
 1110 303 1110 303 1135.5 398 c 128,-1,19
 1161 493 1161 493 1161 643 c 2,20,-1
 1161 1517 l 1,21,-1
 1361 1517 l 1,22,-1
 1361 639 l 2,23,24
 1361 482 1361 482 1334 359 c 128,-1,25
 1307 236 1307 236 1240 150 c 128,-1,26
 1173 64 1173 64 1057.5 19 c 128,-1,27
 942 -26 942 -26 766 -26 c 0,0,1
EndSplineSet
EndChar

StartChar: V
Encoding: 54 86 57
Width: 1414
GlyphClass: 2
Flags: W
LayerCount: 2
Fore
SplineSet
1401 1517 m 1,0,-1
 811 0 l 1,1,-1
 603 0 l 1,2,-1
 13 1517 l 1,3,-1
 227 1517 l 1,4,-1
 708 217 l 1,5,-1
 1185 1517 l 1,6,-1
 1401 1517 l 1,0,-1
EndSplineSet
EndChar

StartChar: W
Encoding: 55 87 58
Width: 2003
GlyphClass: 2
Flags: W
LayerCount: 2
Fore
SplineSet
1982 1517 m 1,0,-1
 1560 0 l 1,1,-1
 1369 0 l 1,2,-1
 1004 1320 l 1,3,-1
 638 0 l 1,4,-1
 446 0 l 1,5,-1
 24 1517 l 1,6,-1
 237 1517 l 1,7,-1
 541 283 l 1,8,-1
 884 1517 l 1,9,-1
 1123 1517 l 1,10,-1
 1466 283 l 1,11,-1
 1769 1517 l 1,12,-1
 1982 1517 l 1,0,-1
EndSplineSet
EndChar

StartChar: X
Encoding: 56 88 59
Width: 1414
GlyphClass: 2
Flags: W
LayerCount: 2
Fore
SplineSet
1404 0 m 1,0,-1
 1158 0 l 1,1,-1
 709 643 l 1,2,-1
 256 0 l 1,3,-1
 10 0 l 1,4,-1
 593 801 l 1,5,-1
 67 1517 l 1,6,-1
 315 1517 l 1,7,-1
 708 957 l 1,8,-1
 1103 1517 l 1,9,-1
 1347 1517 l 1,10,-1
 819 801 l 1,11,-1
 1404 0 l 1,0,-1
EndSplineSet
EndChar

StartChar: Y
Encoding: 57 89 60
Width: 1414
GlyphClass: 2
Flags: W
LayerCount: 2
Fore
SplineSet
1404 1517 m 1,0,-1
 808 643 l 1,1,-1
 808 0 l 1,2,-1
 606 0 l 1,3,-1
 606 643 l 1,4,-1
 10 1517 l 1,5,-1
 255 1517 l 1,6,-1
 709 819 l 1,7,-1
 1161 1517 l 1,8,-1
 1404 1517 l 1,0,-1
EndSplineSet
EndChar

StartChar: Z
Encoding: 58 90 61
Width: 1296
GlyphClass: 2
Flags: W
LayerCount: 2
Fore
SplineSet
1238 0 m 1,0,-1
 37 0 l 1,1,-1
 37 189 l 1,2,-1
 982 1338 l 1,3,-1
 124 1338 l 1,4,-1
 124 1517 l 1,5,-1
 1214 1517 l 1,6,-1
 1214 1330 l 1,7,-1
 270 182 l 1,8,-1
 1238 182 l 1,9,-1
 1238 0 l 1,0,-1
EndSplineSet
EndChar

StartChar: bracketleft
Encoding: 59 91 62
Width: 589
GlyphClass: 2
Flags: W
LayerCount: 2
Fore
SplineSet
556 -423 m 1,0,-1
 144 -423 l 1,1,-1
 144 1517 l 1,2,-1
 556 1517 l 1,3,-1
 556 1366 l 1,4,-1
 340 1366 l 1,5,-1
 340 -266 l 1,6,-1
 556 -266 l 1,7,-1
 556 -423 l 1,0,-1
EndSplineSet
EndChar

StartChar: backslash
Encoding: 60 92 63
Width: 589
GlyphClass: 2
Flags: W
LayerCount: 2
Fore
SplineSet
589 0 m 1,0,-1
 439 0 l 1,1,-1
 0 1517 l 1,2,-1
 150 1517 l 1,3,-1
 589 0 l 1,0,-1
EndSplineSet
EndChar

StartChar: bracketright
Encoding: 61 93 64
Width: 589
GlyphClass: 2
Flags: W
LayerCount: 2
Fore
SplineSet
446 -423 m 1,0,-1
 34 -423 l 1,1,-1
 34 -266 l 1,2,-1
 252 -266 l 1,3,-1
 252 1366 l 1,4,-1
 34 1366 l 1,5,-1
 34 1517 l 1,6,-1
 446 1517 l 1,7,-1
 446 -423 l 1,0,-1
EndSplineSet
EndChar

StartChar: asciicircum
Encoding: 62 94 65
Width: 997
GlyphClass: 2
Flags: W
LayerCount: 2
Fore
SplineSet
917 879 m 1,0,-1
 725 879 l 1,1,-1
 496 1330 l 1,2,-1
 266 879 l 1,3,-1
 77 879 l 1,4,-1
 423 1517 l 1,5,-1
 571 1517 l 1,6,-1
 917 879 l 1,0,-1
EndSplineSet
EndChar

StartChar: underscore
Encoding: 63 95 66
Width: 1171
GlyphClass: 2
Flags: W
LayerCount: 2
Fore
SplineSet
1184 -333 m 1,0,-1
 -13 -333 l 1,1,-1
 -13 -229 l 1,2,-1
 1184 -229 l 1,3,-1
 1184 -333 l 1,0,-1
EndSplineSet
EndChar

StartChar: grave
Encoding: 64 96 67
Width: 708
GlyphClass: 2
Flags: W
LayerCount: 2
Fore
SplineSet
470 1253 m 1,0,-1
 317 1253 l 1,1,-1
 89 1544 l 1,2,-1
 333 1544 l 1,3,-1
 470 1253 l 1,0,-1
EndSplineSet
EndChar

StartChar: a
Encoding: 65 97 68
Width: 1181
GlyphClass: 2
Flags: W
LayerCount: 2
Fore
SplineSet
841 289 m 1,0,-1
 841 533 l 1,1,-1
 708 533 l 2,2,3
 283 533 283 533 283 300 c 0,4,5
 283 214 283 214 344 171.5 c 128,-1,6
 405 129 405 129 513 129 c 0,7,8
 561 129 561 129 607.5 139.5 c 128,-1,9
 654 150 654 150 696.5 171 c 128,-1,10
 739 192 739 192 776.5 221 c 128,-1,11
 814 250 814 250 841 289 c 1,0,-1
841 113 m 1,12,13
 694 -26 694 -26 456 -26 c 0,14,15
 375 -26 375 -26 306 -3 c 128,-1,16
 237 20 237 20 186.5 61.5 c 128,-1,17
 136 103 136 103 108 161.5 c 128,-1,18
 80 220 80 220 80 292 c 0,19,20
 80 678 80 678 745 678 c 2,21,-1
 841 678 l 1,22,23
 841 754 841 754 834.5 809.5 c 128,-1,24
 828 865 828 865 802 901.5 c 128,-1,25
 776 938 776 938 723.5 955 c 128,-1,26
 671 972 671 972 578 972 c 0,27,28
 316 972 316 972 307 785 c 1,29,-1
 113 785 l 1,30,31
 137 1123 137 1123 588 1123 c 0,32,33
 692 1123 692 1123 775 1105.5 c 128,-1,34
 858 1088 858 1088 916 1042.5 c 128,-1,35
 974 997 974 997 1004 917 c 128,-1,36
 1034 837 1034 837 1034 711 c 2,37,-1
 1034 0 l 1,38,-1
 841 0 l 1,39,-1
 841 113 l 1,12,13
EndSplineSet
EndChar

StartChar: b
Encoding: 66 98 69
Width: 1181
GlyphClass: 2
Flags: W
LayerCount: 2
Fore
SplineSet
340 968 m 1,0,1
 469 1123 469 1123 655 1123 c 0,2,3
 762 1123 762 1123 845.5 1082.5 c 128,-1,4
 929 1042 929 1042 987 968.5 c 128,-1,5
 1045 895 1045 895 1075 791.5 c 128,-1,6
 1105 688 1105 688 1105 559 c 0,7,8
 1105 425 1105 425 1070 317 c 128,-1,9
 1035 209 1035 209 973 132.5 c 128,-1,10
 911 56 911 56 825 15 c 128,-1,11
 739 -26 739 -26 639 -26 c 0,12,13
 460 -26 460 -26 340 86 c 1,14,-1
 340 0 l 1,15,-1
 144 0 l 1,16,-1
 144 1517 l 1,17,-1
 340 1517 l 1,18,-1
 340 968 l 1,0,1
340 262 m 1,19,20
 465 129 465 129 628 129 c 0,21,22
 758 129 758 129 830 234.5 c 128,-1,23
 902 340 902 340 902 559 c 0,24,25
 902 768 902 768 834 870 c 128,-1,26
 766 972 766 972 636 972 c 0,27,28
 475 972 475 972 340 782 c 1,29,-1
 340 262 l 1,19,20
EndSplineSet
EndChar

StartChar: c
Encoding: 67 99 70
Width: 1061
GlyphClass: 2
Flags: W
LayerCount: 2
Fore
SplineSet
589 -26 m 0,0,1
 475 -26 475 -26 380.5 11.5 c 128,-1,2
 286 49 286 49 218 121.5 c 128,-1,3
 150 194 150 194 113 301.5 c 128,-1,4
 76 409 76 409 76 549 c 256,5,6
 76 689 76 689 113 796.5 c 128,-1,7
 150 904 150 904 218 976 c 128,-1,8
 286 1048 286 1048 380.5 1085.5 c 128,-1,9
 475 1123 475 1123 589 1123 c 0,10,11
 684 1123 684 1123 761 1098.5 c 128,-1,12
 838 1074 838 1074 895 1028 c 128,-1,13
 952 982 952 982 987 916.5 c 128,-1,14
 1022 851 1022 851 1032 769 c 1,15,-1
 832 769 l 1,16,17
 829 818 829 818 808.5 856 c 128,-1,18
 788 894 788 894 755 919.5 c 128,-1,19
 722 945 722 945 679 958.5 c 128,-1,20
 636 972 636 972 589 972 c 0,21,22
 519 972 519 972 461 944.5 c 128,-1,23
 403 917 403 917 361.5 863 c 128,-1,24
 320 809 320 809 297.5 730 c 128,-1,25
 275 651 275 651 275 549 c 0,26,27
 275 340 275 340 358.5 234.5 c 128,-1,28
 442 129 442 129 589 129 c 0,29,30
 636 129 636 129 679 140.5 c 128,-1,31
 722 152 722 152 755 176 c 128,-1,32
 788 200 788 200 808.5 238 c 128,-1,33
 829 276 829 276 832 329 c 1,34,-1
 1032 329 l 1,35,36
 1022 242 1022 242 984.5 176 c 128,-1,37
 947 110 947 110 888 65 c 128,-1,38
 829 20 829 20 752.5 -3 c 128,-1,39
 676 -26 676 -26 589 -26 c 0,0,1
EndSplineSet
EndChar

StartChar: d
Encoding: 68 100 71
Width: 1181
GlyphClass: 2
Flags: W
LayerCount: 2
Fore
SplineSet
841 316 m 1,0,-1
 841 839 l 1,1,2
 712 972 712 972 551 972 c 0,3,4
 426 972 426 972 350.5 865 c 128,-1,5
 275 758 275 758 275 541 c 0,6,7
 275 332 275 332 346.5 230.5 c 128,-1,8
 418 129 418 129 543 129 c 0,9,10
 705 129 705 129 841 316 c 1,0,-1
841 132 m 1,11,12
 709 -26 709 -26 526 -26 c 0,13,14
 420 -26 420 -26 336.5 13.5 c 128,-1,15
 253 53 253 53 195 126 c 128,-1,16
 137 199 137 199 106.5 304 c 128,-1,17
 76 409 76 409 76 541 c 0,18,19
 76 675 76 675 110 783 c 128,-1,20
 144 891 144 891 206.5 966.5 c 128,-1,21
 269 1042 269 1042 353.5 1082.5 c 128,-1,22
 438 1123 438 1123 539 1123 c 0,23,24
 718 1123 718 1123 841 1015 c 1,25,-1
 841 1517 l 1,26,-1
 1034 1517 l 1,27,-1
 1034 0 l 1,28,-1
 841 0 l 1,29,-1
 841 132 l 1,11,12
EndSplineSet
EndChar

StartChar: e
Encoding: 69 101 72
Width: 1181
GlyphClass: 2
Flags: W
LayerCount: 2
Fore
SplineSet
612 -26 m 0,0,1
 492 -26 492 -26 393.5 12.5 c 128,-1,2
 295 51 295 51 224 124 c 128,-1,3
 153 197 153 197 114.5 304.5 c 128,-1,4
 76 412 76 412 76 549 c 0,5,6
 76 685 76 685 114 791.5 c 128,-1,7
 152 898 152 898 219.5 971.5 c 128,-1,8
 287 1045 287 1045 381.5 1084 c 128,-1,9
 476 1123 476 1123 589 1123 c 0,10,11
 706 1123 706 1123 802 1084 c 128,-1,12
 898 1045 898 1045 965 971.5 c 128,-1,13
 1032 898 1032 898 1068.5 791.5 c 128,-1,14
 1105 685 1105 685 1105 549 c 2,15,-1
 1105 502 l 1,16,-1
 277 502 l 1,17,18
 285 405 285 405 312.5 334 c 128,-1,19
 340 263 340 263 384.5 217.5 c 128,-1,20
 429 172 429 172 487 150.5 c 128,-1,21
 545 129 545 129 612 129 c 0,22,23
 661 129 661 129 708.5 141.5 c 128,-1,24
 756 154 756 154 794 179 c 128,-1,25
 832 204 832 204 856.5 241.5 c 128,-1,26
 881 279 881 279 884 329 c 1,27,-1
 1084 329 l 1,28,29
 1072 242 1072 242 1031.5 176 c 128,-1,30
 991 110 991 110 928 65 c 128,-1,31
 865 20 865 20 784.5 -3 c 128,-1,32
 704 -26 704 -26 612 -26 c 0,0,1
899 656 m 1,33,34
 875 817 875 817 795 894.5 c 128,-1,35
 715 972 715 972 589 972 c 0,36,37
 532 972 532 972 481 953.5 c 128,-1,38
 430 935 430 935 390 896 c 128,-1,39
 350 857 350 857 322.5 797.5 c 128,-1,40
 295 738 295 738 283 656 c 1,41,-1
 899 656 l 1,33,34
EndSplineSet
EndChar

StartChar: f
Encoding: 70 102 73
Width: 589
GlyphClass: 2
Flags: W
LayerCount: 2
Fore
SplineSet
373 945 m 1,0,-1
 373 0 l 1,1,-1
 179 0 l 1,2,-1
 179 945 l 1,3,-1
 17 945 l 1,4,-1
 17 1100 l 1,5,-1
 179 1100 l 1,6,-1
 179 1195 l 2,7,8
 179 1544 179 1544 485 1544 c 0,9,10
 535 1544 535 1544 572 1542 c 128,-1,11
 609 1540 609 1540 632 1533 c 1,12,-1
 632 1361 l 1,13,14
 603 1369 603 1369 574 1370 c 128,-1,15
 545 1371 545 1371 513 1371 c 0,16,17
 440 1371 440 1371 406.5 1332.5 c 128,-1,18
 373 1294 373 1294 373 1195 c 2,19,-1
 373 1100 l 1,20,-1
 582 1100 l 1,21,-1
 582 945 l 1,22,-1
 373 945 l 1,0,-1
EndSplineSet
EndChar

StartChar: g
Encoding: 71 103 74
Width: 1181
GlyphClass: 2
Flags: W
LayerCount: 2
Fore
SplineSet
1034 86 m 2,0,1
 1034 -446 1034 -446 556 -446 c 0,2,3
 453 -446 453 -446 370 -422.5 c 128,-1,4
 287 -399 287 -399 229.5 -355.5 c 128,-1,5
 172 -312 172 -312 140.5 -250.5 c 128,-1,6
 109 -189 109 -189 109 -113 c 1,7,-1
 313 -113 l 1,8,9
 313 -295 313 -295 555 -295 c 0,10,11
 619 -295 619 -295 672 -279 c 128,-1,12
 725 -263 725 -263 762 -222.5 c 128,-1,13
 799 -182 799 -182 820 -109.5 c 128,-1,14
 841 -37 841 -37 841 77 c 2,15,-1
 841 132 l 1,16,17
 709 -26 709 -26 526 -26 c 0,18,19
 420 -26 420 -26 336.5 13.5 c 128,-1,20
 253 53 253 53 195 126 c 128,-1,21
 137 199 137 199 106.5 304 c 128,-1,22
 76 409 76 409 76 541 c 0,23,24
 76 675 76 675 110 783 c 128,-1,25
 144 891 144 891 206.5 966.5 c 128,-1,26
 269 1042 269 1042 353.5 1082.5 c 128,-1,27
 438 1123 438 1123 539 1123 c 0,28,29
 718 1123 718 1123 841 1015 c 1,30,-1
 841 1100 l 1,31,-1
 1034 1100 l 1,32,-1
 1034 86 l 2,0,1
841 316 m 1,33,-1
 841 839 l 1,34,35
 712 972 712 972 551 972 c 0,36,37
 426 972 426 972 350.5 865 c 128,-1,38
 275 758 275 758 275 541 c 0,39,40
 275 332 275 332 346.5 230.5 c 128,-1,41
 418 129 418 129 543 129 c 0,42,43
 705 129 705 129 841 316 c 1,33,-1
EndSplineSet
EndChar

StartChar: h
Encoding: 72 104 75
Width: 1181
GlyphClass: 2
Flags: W
LayerCount: 2
Fore
SplineSet
340 958 m 1,0,1
 413 1044 413 1044 494.5 1083.5 c 128,-1,2
 576 1123 576 1123 668 1123 c 0,3,4
 1041 1123 1041 1123 1041 721 c 2,5,-1
 1041 0 l 1,6,-1
 844 0 l 1,7,-1
 844 711 l 2,8,9
 844 845 844 845 796.5 904.5 c 128,-1,10
 749 964 749 964 638 964 c 0,11,12
 488 964 488 964 340 788 c 1,13,-1
 340 0 l 1,14,-1
 144 0 l 1,15,-1
 144 1517 l 1,16,-1
 340 1517 l 1,17,-1
 340 958 l 1,0,1
EndSplineSet
EndChar

StartChar: i
Encoding: 73 105 76
Width: 483
GlyphClass: 2
Flags: W
LayerCount: 2
Fore
SplineSet
340 0 m 1,0,-1
 144 0 l 1,1,-1
 144 1100 l 1,2,-1
 340 1100 l 1,3,-1
 340 0 l 1,0,-1
340 1307 m 1,4,-1
 144 1307 l 1,5,-1
 144 1517 l 1,6,-1
 340 1517 l 1,7,-1
 340 1307 l 1,4,-1
EndSplineSet
EndChar

StartChar: j
Encoding: 74 106 77
Width: 483
GlyphClass: 2
Flags: W
LayerCount: 2
Fore
SplineSet
340 -59 m 2,0,1
 340 -182 340 -182 320 -257 c 128,-1,2
 300 -332 300 -332 262.5 -374 c 128,-1,3
 225 -416 225 -416 172.5 -430.5 c 128,-1,4
 120 -445 120 -445 56 -445 c 0,5,6
 -24 -445 -24 -445 -76 -432 c 1,7,-1
 -76 -266 l 1,8,9
 -19 -283 -19 -283 34 -283 c 0,10,11
 66 -283 66 -283 86.5 -273 c 128,-1,12
 107 -263 107 -263 120 -237.5 c 128,-1,13
 133 -212 133 -212 138.5 -168 c 128,-1,14
 144 -124 144 -124 144 -56 c 2,15,-1
 144 1100 l 1,16,-1
 340 1100 l 1,17,-1
 340 -59 l 2,0,1
340 1307 m 1,18,-1
 144 1307 l 1,19,-1
 144 1517 l 1,20,-1
 340 1517 l 1,21,-1
 340 1307 l 1,18,-1
EndSplineSet
EndChar

StartChar: k
Encoding: 75 107 78
Width: 1061
GlyphClass: 2
Flags: W
LayerCount: 2
Fore
SplineSet
1052 0 m 1,0,-1
 819 0 l 1,1,-1
 462 559 l 1,2,-1
 340 438 l 1,3,-1
 340 0 l 1,4,-1
 144 0 l 1,5,-1
 144 1517 l 1,6,-1
 340 1517 l 1,7,-1
 340 658 l 1,8,-1
 764 1100 l 1,9,-1
 1010 1100 l 1,10,-1
 593 689 l 1,11,-1
 1052 0 l 1,0,-1
EndSplineSet
EndChar

StartChar: l
Encoding: 76 108 79
Width: 483
GlyphClass: 2
Flags: W
LayerCount: 2
Fore
SplineSet
340 0 m 1,0,-1
 144 0 l 1,1,-1
 144 1517 l 1,2,-1
 340 1517 l 1,3,-1
 340 0 l 1,0,-1
EndSplineSet
EndChar

StartChar: m
Encoding: 77 109 80
Width: 1766
GlyphClass: 2
Flags: W
LayerCount: 2
Fore
SplineSet
1630 0 m 1,0,-1
 1434 0 l 1,1,-1
 1434 711 l 2,2,3
 1434 779 1434 779 1425 828 c 128,-1,4
 1416 877 1416 877 1396 907 c 128,-1,5
 1376 937 1376 937 1343 950.5 c 128,-1,6
 1310 964 1310 964 1263 964 c 0,7,8
 1120 964 1120 964 985 788 c 1,9,-1
 985 0 l 1,10,-1
 789 0 l 1,11,-1
 789 711 l 2,12,13
 789 847 789 847 750 905.5 c 128,-1,14
 711 964 711 964 616 964 c 0,15,16
 473 964 473 964 340 788 c 1,17,-1
 340 0 l 1,18,-1
 144 0 l 1,19,-1
 144 1100 l 1,20,-1
 340 1100 l 1,21,-1
 340 958 l 1,22,23
 473 1123 473 1123 646 1123 c 0,24,25
 888 1123 888 1123 955 925 c 1,26,27
 1012 992 1012 992 1058 1031.5 c 128,-1,28
 1104 1071 1104 1071 1143.5 1091 c 128,-1,29
 1183 1111 1183 1111 1218.5 1117 c 128,-1,30
 1254 1123 1254 1123 1291 1123 c 0,31,32
 1630 1123 1630 1123 1630 721 c 2,33,-1
 1630 0 l 1,0,-1
EndSplineSet
EndChar

StartChar: n
Encoding: 78 110 81
Width: 1181
GlyphClass: 2
Flags: W
LayerCount: 2
Fore
SplineSet
340 958 m 1,0,1
 413 1044 413 1044 494.5 1083.5 c 128,-1,2
 576 1123 576 1123 668 1123 c 0,3,4
 1041 1123 1041 1123 1041 721 c 2,5,-1
 1041 0 l 1,6,-1
 844 0 l 1,7,-1
 844 711 l 2,8,9
 844 845 844 845 796.5 904.5 c 128,-1,10
 749 964 749 964 638 964 c 0,11,12
 488 964 488 964 340 788 c 1,13,-1
 340 0 l 1,14,-1
 144 0 l 1,15,-1
 144 1100 l 1,16,-1
 340 1100 l 1,17,-1
 340 958 l 1,0,1
EndSplineSet
EndChar

StartChar: o
Encoding: 79 111 82
Width: 1181
GlyphClass: 2
Flags: W
LayerCount: 2
Fore
SplineSet
589 1123 m 0,0,1
 706 1123 706 1123 802 1084 c 128,-1,2
 898 1045 898 1045 965 971.5 c 128,-1,3
 1032 898 1032 898 1068.5 791.5 c 128,-1,4
 1105 685 1105 685 1105 549 c 0,5,6
 1105 409 1105 409 1067.5 301.5 c 128,-1,7
 1030 194 1030 194 962 121.5 c 128,-1,8
 894 49 894 49 799 11.5 c 128,-1,9
 704 -26 704 -26 589 -26 c 0,10,11
 475 -26 475 -26 380.5 11.5 c 128,-1,12
 286 49 286 49 218 121.5 c 128,-1,13
 150 194 150 194 113 301.5 c 128,-1,14
 76 409 76 409 76 549 c 256,15,16
 76 689 76 689 113 796.5 c 128,-1,17
 150 904 150 904 218 976 c 128,-1,18
 286 1048 286 1048 380.5 1085.5 c 128,-1,19
 475 1123 475 1123 589 1123 c 0,0,1
589 129 m 0,20,21
 735 129 735 129 818.5 234 c 128,-1,22
 902 339 902 339 902 549 c 0,23,24
 902 655 902 655 879.5 734.5 c 128,-1,25
 857 814 857 814 815.5 866.5 c 128,-1,26
 774 919 774 919 716 945.5 c 128,-1,27
 658 972 658 972 589 972 c 0,28,29
 519 972 519 972 461 944.5 c 128,-1,30
 403 917 403 917 361.5 863 c 128,-1,31
 320 809 320 809 297.5 730 c 128,-1,32
 275 651 275 651 275 549 c 0,33,34
 275 340 275 340 358.5 234.5 c 128,-1,35
 442 129 442 129 589 129 c 0,20,21
EndSplineSet
EndChar

StartChar: p
Encoding: 80 112 83
Width: 1181
GlyphClass: 2
Flags: W
LayerCount: 2
Fore
SplineSet
340 968 m 1,0,1
 469 1123 469 1123 655 1123 c 0,2,3
 762 1123 762 1123 845.5 1082.5 c 128,-1,4
 929 1042 929 1042 987 968.5 c 128,-1,5
 1045 895 1045 895 1075 791.5 c 128,-1,6
 1105 688 1105 688 1105 559 c 0,7,8
 1105 425 1105 425 1070 317 c 128,-1,9
 1035 209 1035 209 973 132.5 c 128,-1,10
 911 56 911 56 825 15 c 128,-1,11
 739 -26 739 -26 639 -26 c 0,12,13
 460 -26 460 -26 340 86 c 1,14,-1
 340 -423 l 1,15,-1
 144 -423 l 1,16,-1
 144 1100 l 1,17,-1
 340 1100 l 1,18,-1
 340 968 l 1,0,1
340 262 m 1,19,20
 465 129 465 129 628 129 c 0,21,22
 758 129 758 129 830 234.5 c 128,-1,23
 902 340 902 340 902 559 c 0,24,25
 902 768 902 768 834 870 c 128,-1,26
 766 972 766 972 636 972 c 0,27,28
 475 972 475 972 340 782 c 1,29,-1
 340 262 l 1,19,20
EndSplineSet
EndChar

StartChar: q
Encoding: 81 113 84
Width: 1181
GlyphClass: 2
Flags: W
LayerCount: 2
Fore
SplineSet
1034 -423 m 1,0,-1
 841 -423 l 1,1,-1
 841 132 l 1,2,3
 709 -26 709 -26 526 -26 c 0,4,5
 420 -26 420 -26 336.5 13.5 c 128,-1,6
 253 53 253 53 195 126 c 128,-1,7
 137 199 137 199 106.5 304 c 128,-1,8
 76 409 76 409 76 541 c 0,9,10
 76 675 76 675 110 783 c 128,-1,11
 144 891 144 891 206.5 966.5 c 128,-1,12
 269 1042 269 1042 353.5 1082.5 c 128,-1,13
 438 1123 438 1123 539 1123 c 0,14,15
 718 1123 718 1123 841 1015 c 1,16,-1
 841 1100 l 1,17,-1
 1034 1100 l 1,18,-1
 1034 -423 l 1,0,-1
841 316 m 1,19,-1
 841 839 l 1,20,21
 712 972 712 972 551 972 c 0,22,23
 426 972 426 972 350.5 865 c 128,-1,24
 275 758 275 758 275 541 c 0,25,26
 275 332 275 332 346.5 230.5 c 128,-1,27
 418 129 418 129 543 129 c 0,28,29
 705 129 705 129 841 316 c 1,19,-1
EndSplineSet
EndChar

StartChar: r
Encoding: 82 114 85
Width: 708
GlyphClass: 2
Flags: W
LayerCount: 2
Fore
SplineSet
715 921 m 1,0,1
 668 934 668 934 595 934 c 0,2,3
 449 934 449 934 340 778 c 1,4,-1
 340 0 l 1,5,-1
 144 0 l 1,6,-1
 144 1100 l 1,7,-1
 340 1100 l 1,8,-1
 340 945 l 1,9,10
 458 1123 458 1123 626 1123 c 0,11,12
 648 1123 648 1123 669.5 1121.5 c 128,-1,13
 691 1120 691 1120 715 1115 c 1,14,-1
 715 921 l 1,0,1
EndSplineSet
EndChar

StartChar: s
Encoding: 83 115 86
Width: 1061
GlyphClass: 2
Flags: W
LayerCount: 2
Fore
SplineSet
536 -26 m 0,0,1
 86 -26 86 -26 66 329 c 1,2,-1
 262 329 l 1,3,4
 265 129 265 129 535 129 c 0,5,6
 661 129 661 129 721.5 176 c 128,-1,7
 782 223 782 223 782 305 c 0,8,9
 782 340 782 340 770 364 c 128,-1,10
 758 388 758 388 723.5 407 c 128,-1,11
 689 426 689 426 626 444.5 c 128,-1,12
 563 463 563 463 463 489 c 0,13,14
 365 512 365 512 295 536.5 c 128,-1,15
 225 561 225 561 179 596 c 128,-1,16
 133 631 133 631 111.5 681.5 c 128,-1,17
 90 732 90 732 90 808 c 0,18,19
 90 877 90 877 118.5 934 c 128,-1,20
 147 991 147 991 201 1033 c 128,-1,21
 255 1075 255 1075 331.5 1099 c 128,-1,22
 408 1123 408 1123 502 1123 c 0,23,24
 931 1123 931 1123 942 815 c 1,25,-1
 746 815 l 1,26,27
 738 972 738 972 513 972 c 0,28,29
 468 972 468 972 426.5 963 c 128,-1,30
 385 954 385 954 353.5 936 c 128,-1,31
 322 918 322 918 304 890 c 128,-1,32
 286 862 286 862 286 825 c 0,33,34
 286 792 286 792 292.5 771.5 c 128,-1,35
 299 751 299 751 328 733.5 c 128,-1,36
 357 716 357 716 417.5 699 c 128,-1,37
 478 682 478 682 585 656 c 0,38,39
 684 632 684 632 757.5 606.5 c 128,-1,40
 831 581 831 581 880 544.5 c 128,-1,41
 929 508 929 508 953.5 454 c 128,-1,42
 978 400 978 400 978 322 c 0,43,44
 978 249 978 249 947.5 186 c 128,-1,45
 917 123 917 123 859.5 76 c 128,-1,46
 802 29 802 29 720.5 1.5 c 128,-1,47
 639 -26 639 -26 536 -26 c 0,0,1
EndSplineSet
EndChar

StartChar: t
Encoding: 84 116 87
Width: 589
GlyphClass: 2
Flags: W
LayerCount: 2
Fore
SplineSet
571 -1 m 1,0,1
 538 -9 538 -9 503.5 -11.5 c 128,-1,2
 469 -14 469 -14 430 -14 c 0,3,4
 337 -14 337 -14 286 8.5 c 128,-1,5
 235 31 235 31 209 75 c 128,-1,6
 183 119 183 119 177.5 181 c 128,-1,7
 172 243 172 243 172 322 c 2,8,-1
 172 945 l 1,9,-1
 36 945 l 1,10,-1
 36 1100 l 1,11,-1
 172 1100 l 1,12,-1
 172 1371 l 1,13,-1
 366 1371 l 1,14,-1
 366 1100 l 1,15,-1
 545 1100 l 1,16,-1
 545 945 l 1,17,-1
 366 945 l 1,18,-1
 366 313 l 2,19,20
 366 256 366 256 373 221.5 c 128,-1,21
 380 187 380 187 394.5 168.5 c 128,-1,22
 409 150 409 150 428.5 144.5 c 128,-1,23
 448 139 448 139 473 139 c 0,24,25
 499 139 499 139 522.5 140.5 c 128,-1,26
 546 142 546 142 571 146 c 1,27,-1
 571 -1 l 1,0,1
EndSplineSet
EndChar

StartChar: u
Encoding: 85 117 88
Width: 1181
GlyphClass: 2
Flags: W
LayerCount: 2
Fore
SplineSet
841 140 m 1,0,1
 695 -26 695 -26 513 -26 c 0,2,3
 140 -26 140 -26 140 380 c 2,4,-1
 140 1100 l 1,5,-1
 336 1100 l 1,6,-1
 336 388 l 2,7,8
 336 253 336 253 383 194.5 c 128,-1,9
 430 136 430 136 541 136 c 0,10,11
 702 136 702 136 841 313 c 1,12,-1
 841 1100 l 1,13,-1
 1034 1100 l 1,14,-1
 1034 0 l 1,15,-1
 841 0 l 1,16,-1
 841 140 l 1,0,1
EndSplineSet
EndChar

StartChar: v
Encoding: 86 118 89
Width: 1061
GlyphClass: 2
Flags: W
LayerCount: 2
Fore
SplineSet
1032 1100 m 1,0,-1
 616 0 l 1,1,-1
 442 0 l 1,2,-1
 29 1100 l 1,3,-1
 240 1100 l 1,4,-1
 531 240 l 1,5,-1
 822 1100 l 1,6,-1
 1032 1100 l 1,0,-1
EndSplineSet
EndChar

StartChar: w
Encoding: 87 119 90
Width: 1533
GlyphClass: 2
Flags: W
LayerCount: 2
Fore
SplineSet
1522 1100 m 1,0,-1
 1191 0 l 1,1,-1
 1004 0 l 1,2,-1
 766 808 l 1,3,-1
 528 0 l 1,4,-1
 342 0 l 1,5,-1
 10 1100 l 1,6,-1
 227 1100 l 1,7,-1
 429 262 l 1,8,-1
 678 1100 l 1,9,-1
 854 1100 l 1,10,-1
 1104 262 l 1,11,-1
 1306 1100 l 1,12,-1
 1522 1100 l 1,0,-1
EndSplineSet
EndChar

StartChar: x
Encoding: 88 120 91
Width: 1061
GlyphClass: 2
Flags: W
LayerCount: 2
Fore
SplineSet
1045 0 m 1,0,-1
 804 0 l 1,1,-1
 531 429 l 1,2,-1
 256 0 l 1,3,-1
 14 0 l 1,4,-1
 420 571 l 1,5,-1
 46 1100 l 1,6,-1
 289 1100 l 1,7,-1
 531 715 l 1,8,-1
 771 1100 l 1,9,-1
 1015 1100 l 1,10,-1
 639 573 l 1,11,-1
 1045 0 l 1,0,-1
EndSplineSet
EndChar

StartChar: y
Encoding: 89 121 92
Width: 1061
GlyphClass: 2
Flags: W
LayerCount: 2
Fore
SplineSet
206 -265 m 0,0,1
 352 -265 352 -265 442 0 c 1,2,-1
 29 1100 l 1,3,-1
 240 1100 l 1,4,-1
 531 240 l 1,5,-1
 822 1100 l 1,6,-1
 1032 1100 l 1,7,-1
 616 0 l 2,8,9
 573 -113 573 -113 535.5 -196.5 c 128,-1,10
 498 -280 498 -280 455.5 -336 c 128,-1,11
 413 -392 413 -392 361.5 -419 c 128,-1,12
 310 -446 310 -446 240 -446 c 0,13,14
 202 -446 202 -446 171 -442 c 128,-1,15
 140 -438 140 -438 113 -430 c 1,16,-1
 113 -252 l 1,17,18
 162 -265 162 -265 206 -265 c 0,0,1
EndSplineSet
EndChar

StartChar: z
Encoding: 90 122 93
Width: 1061
GlyphClass: 2
Flags: W
LayerCount: 2
Fore
SplineSet
1017 0 m 1,0,-1
 43 0 l 1,1,-1
 43 166 l 1,2,-1
 726 934 l 1,3,-1
 83 934 l 1,4,-1
 83 1100 l 1,5,-1
 982 1100 l 1,6,-1
 982 934 l 1,7,-1
 297 166 l 1,8,-1
 1017 166 l 1,9,-1
 1017 0 l 1,0,-1
EndSplineSet
EndChar

StartChar: braceleft
Encoding: 91 123 94
Width: 709
GlyphClass: 2
Flags: W
LayerCount: 2
Fore
SplineSet
658 -446 m 1,0,-1
 601 -446 l 2,1,2
 533 -446 533 -446 474 -434.5 c 128,-1,3
 415 -423 415 -423 370.5 -383 c 128,-1,4
 326 -343 326 -343 300.5 -266 c 128,-1,5
 275 -189 275 -189 275 -57 c 2,6,-1
 275 93 l 2,7,8
 275 167 275 167 269 233.5 c 128,-1,9
 263 300 263 300 241 350 c 128,-1,10
 219 400 219 400 176 431 c 128,-1,11
 133 462 133 462 59 465 c 1,12,-1
 59 635 l 1,13,14
 130 635 130 635 172 660 c 128,-1,15
 214 685 214 685 236.5 730.5 c 128,-1,16
 259 776 259 776 265.5 838.5 c 128,-1,17
 272 901 272 901 273 980 c 0,18,19
 273 1051 273 1051 274 1134.5 c 128,-1,20
 275 1218 275 1218 285 1306 c 1,21,22
 299 1380 299 1380 327 1426.5 c 128,-1,23
 355 1473 355 1473 395 1499.5 c 128,-1,24
 435 1526 435 1526 486.5 1535 c 128,-1,25
 538 1544 538 1544 601 1544 c 2,26,-1
 658 1544 l 1,27,-1
 658 1383 l 1,28,-1
 626 1383 l 2,29,30
 516 1383 516 1383 493 1326 c 0,31,32
 480 1297 480 1297 475 1221 c 128,-1,33
 470 1145 470 1145 470 1020 c 0,34,35
 470 908 470 908 456 828 c 128,-1,36
 442 748 442 748 412 693 c 128,-1,37
 382 638 382 638 337 603.5 c 128,-1,38
 292 569 292 569 232 549 c 1,39,40
 289 532 289 532 334 499 c 128,-1,41
 379 466 379 466 409 411 c 128,-1,42
 439 356 439 356 454.5 274.5 c 128,-1,43
 470 193 470 193 470 80 c 0,44,45
 470 -172 470 -172 493 -227 c 0,46,47
 516 -285 516 -285 626 -285 c 2,48,-1
 658 -285 l 1,49,-1
 658 -446 l 1,0,-1
EndSplineSet
EndChar

StartChar: bar
Encoding: 92 124 95
Width: 551
GlyphClass: 2
Flags: W
LayerCount: 2
Fore
SplineSet
357 -446 m 1,0,-1
 194 -446 l 1,1,-1
 194 1517 l 1,2,-1
 357 1517 l 1,3,-1
 357 -446 l 1,0,-1
EndSplineSet
EndChar

StartChar: braceright
Encoding: 93 125 96
Width: 709
GlyphClass: 2
Flags: W
LayerCount: 2
Fore
SplineSet
51 1544 m 1,0,-1
 109 1544 l 2,1,2
 193 1544 193 1544 254.5 1526.5 c 128,-1,3
 316 1509 316 1509 355.5 1464 c 128,-1,4
 395 1419 395 1419 414 1343 c 128,-1,5
 433 1267 433 1267 433 1151 c 0,6,7
 433 1115 433 1115 433 1080 c 0,8,9
 432 1045 432 1045 432 1011 c 0,10,11
 432 934 432 934 437.5 866 c 128,-1,12
 443 798 443 798 465.5 746.5 c 128,-1,13
 488 695 488 695 531.5 665 c 128,-1,14
 575 635 575 635 649 635 c 1,15,-1
 649 465 l 1,16,17
 575 463 575 463 532.5 436.5 c 128,-1,18
 490 410 490 410 469.5 364.5 c 128,-1,19
 449 319 449 319 444 256.5 c 128,-1,20
 439 194 439 194 439 120 c 256,21,22
 439 46 439 46 437.5 -37 c 128,-1,23
 436 -120 436 -120 423 -206 c 0,24,25
 415 -275 415 -275 389 -321.5 c 128,-1,26
 363 -368 363 -368 322.5 -395.5 c 128,-1,27
 282 -423 282 -423 227.5 -434.5 c 128,-1,28
 173 -446 173 -446 109 -446 c 2,29,-1
 51 -446 l 1,30,-1
 51 -285 l 1,31,-1
 83 -285 l 2,32,33
 189 -285 189 -285 214 -227 c 0,34,35
 227 -197 227 -197 233.5 -123.5 c 128,-1,36
 240 -50 240 -50 240 80 c 0,37,38
 240 192 240 192 254.5 272 c 128,-1,39
 269 352 269 352 297.5 407 c 128,-1,40
 326 462 326 462 371 495.5 c 128,-1,41
 416 529 416 529 478 549 c 1,42,43
 416 569 416 569 371 602.5 c 128,-1,44
 326 636 326 636 297.5 692 c 128,-1,45
 269 748 269 748 254.5 828 c 128,-1,46
 240 908 240 908 240 1020 c 0,47,48
 240 1150 240 1150 233.5 1223.5 c 128,-1,49
 227 1297 227 1297 214 1326 c 0,50,51
 200 1354 200 1354 171.5 1368.5 c 128,-1,52
 143 1383 143 1383 83 1383 c 2,53,-1
 51 1383 l 1,54,-1
 51 1544 l 1,0,-1
EndSplineSet
EndChar

StartChar: asciitilde
Encoding: 94 126 97
Width: 1238
GlyphClass: 2
Flags: W
LayerCount: 2
Fore
SplineSet
1150 1308 m 1,0,1
 1040 1184 1040 1184 865 1184 c 0,2,3
 752 1184 752 1184 593 1253 c 0,4,5
 433 1323 433 1323 359 1323 c 0,6,7
 229 1323 229 1323 90 1181 c 1,8,-1
 90 1393 l 1,9,10
 199 1517 199 1517 379 1517 c 0,11,12
 492 1517 492 1517 646 1449 c 0,13,14
 805 1380 805 1380 884 1380 c 0,15,16
 1018 1380 1018 1380 1150 1522 c 1,17,-1
 1150 1308 l 1,0,1
EndSplineSet
EndChar

StartChar: uni00A0
Encoding: 95 160 98
Width: 1061
GlyphClass: 2
Flags: W
LayerCount: 2
Fore
SplineSet
0 0 m 1024,0,-1
EndSplineSet
EndChar

StartChar: exclamdown
Encoding: 96 161 99
Width: 589
GlyphClass: 2
Flags: W
LayerCount: 2
Fore
SplineSet
402 887 m 1,0,-1
 189 887 l 1,1,-1
 189 1100 l 1,2,-1
 402 1100 l 1,3,-1
 402 887 l 1,0,-1
379 719 m 1,4,-1
 379 -420 l 1,5,-1
 206 -420 l 1,6,-1
 206 719 l 1,7,-1
 379 719 l 1,4,-1
EndSplineSet
EndChar

StartChar: cent
Encoding: 97 162 100
Width: 1181
GlyphClass: 2
Flags: W
LayerCount: 2
Fore
SplineSet
1075 329 m 1,0,1
 1064 243 1064 243 1027 176.5 c 128,-1,2
 990 110 990 110 931 65 c 128,-1,3
 872 20 872 20 796.5 -3 c 128,-1,4
 721 -26 721 -26 632 -26 c 0,5,6
 603 -26 603 -26 576 -23 c 128,-1,7
 549 -20 549 -20 518 -14 c 1,8,-1
 450 -260 l 1,9,-1
 342 -229 l 1,10,-1
 409 17 l 1,11,12
 117 150 117 150 117 549 c 0,13,14
 117 685 117 685 153.5 791.5 c 128,-1,15
 190 898 190 898 257.5 971.5 c 128,-1,16
 325 1045 325 1045 420 1084 c 128,-1,17
 515 1123 515 1123 632 1123 c 0,18,19
 655 1123 655 1123 675.5 1122 c 128,-1,20
 696 1121 696 1121 716 1118 c 1,21,-1
 782 1358 l 1,22,-1
 891 1328 l 1,23,-1
 825 1093 l 1,24,25
 1048 1008 1048 1008 1075 769 c 1,26,-1
 875 769 l 1,27,28
 874 878 874 878 781 934 c 1,29,-1
 561 136 l 1,30,31
 579 132 579 132 595.5 130.5 c 128,-1,32
 612 129 612 129 632 129 c 0,33,34
 679 129 679 129 722 141 c 128,-1,35
 765 153 765 153 798 178 c 128,-1,36
 831 203 831 203 851.5 240 c 128,-1,37
 872 277 872 277 875 329 c 1,38,-1
 1075 329 l 1,0,1
675 968 m 1,39,40
 655 972 655 972 632 972 c 0,41,42
 562 972 562 972 504 945.5 c 128,-1,43
 446 919 446 919 404.5 865.5 c 128,-1,44
 363 812 363 812 340 733 c 128,-1,45
 317 654 317 654 317 549 c 0,46,47
 317 285 317 285 456 184 c 1,48,-1
 675 968 l 1,39,40
EndSplineSet
EndChar

StartChar: sterling
Encoding: 98 163 101
Width: 1181
GlyphClass: 2
Flags: W
LayerCount: 2
Fore
SplineSet
1095 21 m 1,0,1
 988 -26 988 -26 875 -26 c 0,2,3
 854 -26 854 -26 818 -18.5 c 128,-1,4
 782 -11 782 -11 738.5 -1 c 128,-1,5
 695 9 695 9 648 21 c 256,6,7
 601 33 601 33 557 43 c 128,-1,8
 513 53 513 53 476 60 c 128,-1,9
 439 67 439 67 418 67 c 0,10,11
 255 67 255 67 51 -26 c 1,12,-1
 51 162 l 1,13,14
 103 189 103 189 143.5 224 c 128,-1,15
 184 259 184 259 212 306 c 128,-1,16
 240 353 240 353 255 414.5 c 128,-1,17
 270 476 270 476 270 556 c 0,18,19
 270 622 270 622 253 686 c 1,20,-1
 51 686 l 1,21,-1
 51 839 l 1,22,-1
 210 839 l 1,23,24
 182 929 182 929 169.5 996.5 c 128,-1,25
 157 1064 157 1064 157 1111 c 0,26,27
 157 1211 157 1211 191.5 1292 c 128,-1,28
 226 1373 226 1373 288 1428.5 c 128,-1,29
 350 1484 350 1484 436.5 1514 c 128,-1,30
 523 1544 523 1544 628 1544 c 0,31,32
 725 1544 725 1544 806 1518.5 c 128,-1,33
 887 1493 887 1493 946 1443.5 c 128,-1,34
 1005 1394 1005 1394 1041.5 1321 c 128,-1,35
 1078 1248 1078 1248 1087 1153 c 1,36,-1
 885 1153 l 1,37,38
 865 1391 865 1391 623 1391 c 0,39,40
 563 1391 563 1391 514.5 1370.5 c 128,-1,41
 466 1350 466 1350 432 1314 c 128,-1,42
 398 1278 398 1278 378.5 1230.5 c 128,-1,43
 359 1183 359 1183 359 1130 c 0,44,45
 359 1015 359 1015 416 839 c 1,46,-1
 741 839 l 1,47,-1
 741 686 l 1,48,-1
 450 686 l 1,49,50
 468 641 468 641 468 593 c 0,51,52
 468 528 468 528 458 475 c 128,-1,53
 448 422 448 422 425.5 377 c 128,-1,54
 403 332 403 332 367.5 290.5 c 128,-1,55
 332 249 332 249 280 206 c 1,56,57
 317 219 317 219 354.5 224 c 128,-1,58
 392 229 392 229 430 229 c 256,59,60
 468 229 468 229 532 218 c 128,-1,61
 596 207 596 207 662.5 195 c 128,-1,62
 729 183 729 183 787 173 c 0,63,64
 844 162 844 162 865 162 c 0,65,66
 982 162 982 162 1095 219 c 1,67,-1
 1095 21 l 1,0,1
EndSplineSet
EndChar

StartChar: currency
Encoding: 99 164 102
Width: 1181
GlyphClass: 2
Flags: W
LayerCount: 2
Fore
SplineSet
1103 365 m 1,0,-1
 980 243 l 1,1,-1
 835 386 l 1,2,3
 725 313 725 313 589 313 c 0,4,5
 452 313 452 313 343 388 c 1,6,-1
 200 243 l 1,7,-1
 79 365 l 1,8,-1
 222 511 l 1,9,10
 150 629 150 629 150 749 c 0,11,12
 150 872 150 872 222 991 c 1,13,-1
 79 1138 l 1,14,-1
 200 1258 l 1,15,-1
 343 1114 l 1,16,17
 456 1191 456 1191 589 1191 c 0,18,19
 721 1191 721 1191 835 1114 c 1,20,-1
 980 1258 l 1,21,-1
 1103 1138 l 1,22,-1
 957 991 l 1,23,24
 1030 875 1030 875 1030 749 c 256,25,26
 1030 623 1030 623 955 511 c 1,27,-1
 1103 365 l 1,0,-1
589 482 m 0,28,29
 643 482 643 482 692.5 502.5 c 128,-1,30
 742 523 742 523 778.5 559.5 c 128,-1,31
 815 596 815 596 836.5 645 c 128,-1,32
 858 694 858 694 858 749 c 0,33,34
 858 805 858 805 836.5 854.5 c 128,-1,35
 815 904 815 904 778.5 940.5 c 128,-1,36
 742 977 742 977 693.5 998.5 c 128,-1,37
 645 1020 645 1020 589 1020 c 256,38,39
 533 1020 533 1020 484 998.5 c 128,-1,40
 435 977 435 977 398.5 940.5 c 128,-1,41
 362 904 362 904 341 854.5 c 128,-1,42
 320 805 320 805 320 749 c 0,43,44
 320 695 320 695 341 646.5 c 128,-1,45
 362 598 362 598 398.5 561.5 c 128,-1,46
 435 525 435 525 484 503.5 c 128,-1,47
 533 482 533 482 589 482 c 0,28,29
EndSplineSet
EndChar

StartChar: yen
Encoding: 100 165 103
Width: 1181
GlyphClass: 2
Flags: W
LayerCount: 2
Fore
SplineSet
1181 1517 m 1,0,-1
 782 825 l 1,1,-1
 1111 825 l 1,2,-1
 1111 681 l 1,3,-1
 686 681 l 1,4,-1
 686 493 l 1,5,-1
 1111 493 l 1,6,-1
 1111 350 l 1,7,-1
 686 350 l 1,8,-1
 686 0 l 1,9,-1
 498 0 l 1,10,-1
 498 350 l 1,11,-1
 67 350 l 1,12,-1
 67 493 l 1,13,-1
 498 493 l 1,14,-1
 498 681 l 1,15,-1
 67 681 l 1,16,-1
 67 825 l 1,17,-1
 398 825 l 1,18,-1
 1 1517 l 1,19,-1
 222 1517 l 1,20,-1
 589 845 l 1,21,-1
 958 1517 l 1,22,-1
 1181 1517 l 1,0,-1
EndSplineSet
EndChar

StartChar: brokenbar
Encoding: 101 166 104
Width: 551
GlyphClass: 2
Flags: W
LayerCount: 2
Fore
SplineSet
357 -446 m 1,0,-1
 194 -446 l 1,1,-1
 194 347 l 1,2,-1
 357 347 l 1,3,-1
 357 -446 l 1,0,-1
357 725 m 1,4,-1
 194 725 l 1,5,-1
 194 1517 l 1,6,-1
 357 1517 l 1,7,-1
 357 725 l 1,4,-1
EndSplineSet
EndChar

StartChar: section
Encoding: 102 167 105
Width: 1181
GlyphClass: 2
Flags: W
LayerCount: 2
Fore
SplineSet
798 1185 m 1,0,1
 778 1391 778 1391 578 1391 c 0,2,3
 483 1391 483 1391 431.5 1346 c 128,-1,4
 380 1301 380 1301 380 1227 c 0,5,6
 380 1191 380 1191 391 1162 c 128,-1,7
 402 1133 402 1133 440 1097.5 c 128,-1,8
 478 1062 478 1062 549.5 1015 c 128,-1,9
 621 968 621 968 741 898 c 0,10,11
 854 829 854 829 922.5 775.5 c 128,-1,12
 991 722 991 722 1027.5 675 c 128,-1,13
 1064 628 1064 628 1076 581.5 c 128,-1,14
 1088 535 1088 535 1088 482 c 0,15,16
 1088 297 1088 297 854 183 c 1,17,18
 1017 76 1017 76 1017 -106 c 0,19,20
 1017 -180 1017 -180 985.5 -242.5 c 128,-1,21
 954 -305 954 -305 898 -350 c 128,-1,22
 842 -395 842 -395 767 -420.5 c 128,-1,23
 692 -446 692 -446 605 -446 c 0,24,25
 515 -446 515 -446 437 -422.5 c 128,-1,26
 359 -399 359 -399 299.5 -352 c 128,-1,27
 240 -305 240 -305 201.5 -235.5 c 128,-1,28
 163 -166 163 -166 152 -73 c 1,29,-1
 355 -73 l 1,30,31
 376 -289 376 -289 605 -289 c 0,32,33
 658 -289 658 -289 698.5 -274 c 128,-1,34
 739 -259 739 -259 766.5 -234 c 128,-1,35
 794 -209 794 -209 808 -176 c 128,-1,36
 822 -143 822 -143 822 -109 c 0,37,38
 822 -73 822 -73 806.5 -41.5 c 128,-1,39
 791 -10 791 -10 748 27 c 128,-1,40
 705 64 705 64 628.5 113 c 128,-1,41
 552 162 552 162 430 233 c 0,42,43
 312 303 312 303 244 359.5 c 128,-1,44
 176 416 176 416 141.5 466 c 128,-1,45
 107 516 107 516 98 564.5 c 128,-1,46
 89 613 89 613 89 666 c 0,47,48
 89 854 89 854 322 961 c 1,49,50
 184 1081 184 1081 184 1218 c 0,51,52
 184 1280 184 1280 210.5 1339.5 c 128,-1,53
 237 1399 237 1399 286.5 1444 c 128,-1,54
 336 1489 336 1489 407 1516.5 c 128,-1,55
 478 1544 478 1544 566 1544 c 0,56,57
 762 1544 762 1544 871.5 1450.5 c 128,-1,58
 981 1357 981 1357 1000 1185 c 1,59,-1
 798 1185 l 1,0,1
761 255 m 1,60,61
 901 323 901 323 901 446 c 0,62,63
 901 482 901 482 887.5 515 c 128,-1,64
 874 548 874 548 843 582 c 128,-1,65
 812 616 812 616 762 653.5 c 128,-1,66
 712 691 712 691 638 735 c 0,67,68
 561 781 561 781 505.5 820 c 128,-1,69
 450 859 450 859 413 888 c 1,70,71
 275 822 275 822 275 689 c 0,72,73
 275 649 275 649 285.5 617 c 128,-1,74
 296 585 296 585 324.5 551.5 c 128,-1,75
 353 518 353 518 404.5 480.5 c 128,-1,76
 456 443 456 443 538 393 c 0,77,78
 619 343 619 343 675 311 c 256,79,80
 731 279 731 279 761 255 c 1,60,61
EndSplineSet
EndChar

StartChar: dieresis
Encoding: 103 168 106
Width: 708
GlyphClass: 2
Flags: W
LayerCount: 2
Fore
SplineSet
639 1296 m 1,0,-1
 450 1296 l 1,1,-1
 450 1509 l 1,2,-1
 639 1509 l 1,3,-1
 639 1296 l 1,0,-1
256 1296 m 1,4,-1
 66 1296 l 1,5,-1
 66 1509 l 1,6,-1
 256 1509 l 1,7,-1
 256 1296 l 1,4,-1
EndSplineSet
EndChar

StartChar: copyright
Encoding: 104 169 107
Width: 1564
GlyphClass: 2
Flags: W
LayerCount: 2
Fore
SplineSet
782 1544 m 0,0,1
 941 1544 941 1544 1083.5 1482 c 128,-1,2
 1226 1420 1226 1420 1333 1313.5 c 128,-1,3
 1440 1207 1440 1207 1502 1064.5 c 128,-1,4
 1564 922 1564 922 1564 764 c 256,5,6
 1564 606 1564 606 1503.5 464 c 128,-1,7
 1443 322 1443 322 1336.5 214.5 c 128,-1,8
 1230 107 1230 107 1087.5 44 c 128,-1,9
 945 -19 945 -19 782 -19 c 0,10,11
 622 -19 622 -19 479.5 43.5 c 128,-1,12
 337 106 337 106 230.5 212.5 c 128,-1,13
 124 319 124 319 62 461 c 128,-1,14
 0 603 0 603 0 764 c 0,15,16
 0 871 0 871 28.5 970.5 c 128,-1,17
 57 1070 57 1070 108.5 1157 c 128,-1,18
 160 1244 160 1244 231.5 1315 c 128,-1,19
 303 1386 303 1386 390.5 1437.5 c 128,-1,20
 478 1489 478 1489 577 1516.5 c 128,-1,21
 676 1544 676 1544 782 1544 c 0,0,1
781 109 m 0,22,23
 912 109 912 109 1031 160.5 c 128,-1,24
 1150 212 1150 212 1239 301 c 128,-1,25
 1328 390 1328 390 1381 509 c 128,-1,26
 1434 628 1434 628 1434 764 c 0,27,28
 1434 895 1434 895 1382.5 1013 c 128,-1,29
 1331 1131 1331 1131 1242.5 1220.5 c 128,-1,30
 1154 1310 1154 1310 1034.5 1362 c 128,-1,31
 915 1414 915 1414 781 1414 c 0,32,33
 645 1414 645 1414 526.5 1362 c 128,-1,34
 408 1310 408 1310 319 1220.5 c 128,-1,35
 230 1131 230 1131 179.5 1013 c 128,-1,36
 129 895 129 895 129 764 c 0,37,38
 129 631 129 631 180.5 511.5 c 128,-1,39
 232 392 232 392 321 302.5 c 128,-1,40
 410 213 410 213 529 161 c 128,-1,41
 648 109 648 109 781 109 c 0,22,23
1154 599 m 1,42,43
 1084 315 1084 315 785 315 c 0,44,45
 695 315 695 315 620 345 c 128,-1,46
 545 375 545 375 490 432.5 c 128,-1,47
 435 490 435 490 404 572.5 c 128,-1,48
 373 655 373 655 373 761 c 0,49,50
 373 865 373 865 402.5 946.5 c 128,-1,51
 432 1028 432 1028 487 1084.5 c 128,-1,52
 542 1141 542 1141 619 1171 c 128,-1,53
 696 1201 696 1201 792 1201 c 0,54,55
 859 1201 859 1201 918.5 1183 c 128,-1,56
 978 1165 978 1165 1025 1131.5 c 128,-1,57
 1072 1098 1072 1098 1103.5 1049.5 c 128,-1,58
 1135 1001 1135 1001 1147 940 c 1,59,-1
 1001 940 l 1,60,61
 970 1087 970 1087 788 1087 c 0,62,63
 721 1087 721 1087 670 1063.5 c 128,-1,64
 619 1040 619 1040 585 996 c 128,-1,65
 551 952 551 952 533.5 891.5 c 128,-1,66
 516 831 516 831 516 758 c 0,67,68
 516 686 516 686 534.5 627.5 c 128,-1,69
 553 569 553 569 588 527 c 128,-1,70
 623 485 623 485 672.5 461.5 c 128,-1,71
 722 438 722 438 782 438 c 0,72,73
 975 438 975 438 1010 599 c 1,74,-1
 1154 599 l 1,42,43
EndSplineSet
EndChar

StartChar: ordfeminine
Encoding: 105 170 108
Width: 785
GlyphClass: 2
Flags: W
LayerCount: 2
Fore
SplineSet
559 1007 m 1,0,-1
 559 1135 l 1,1,-1
 465 1135 l 2,2,3
 200 1135 200 1135 200 991 c 0,4,5
 200 897 200 897 336 897 c 0,6,7
 360 897 360 897 391.5 904.5 c 128,-1,8
 423 912 423 912 454.5 927 c 128,-1,9
 486 942 486 942 514 962 c 128,-1,10
 542 982 542 982 559 1007 c 1,0,-1
559 792 m 1,11,-1
 559 865 l 1,12,13
 460 775 460 775 297 775 c 0,14,15
 243 775 243 775 196.5 791 c 128,-1,16
 150 807 150 807 116.5 834.5 c 128,-1,17
 83 862 83 862 63.5 901 c 128,-1,18
 44 940 44 940 44 987 c 0,19,20
 44 1246 44 1246 490 1246 c 2,21,-1
 559 1246 l 1,22,23
 559 1304 559 1304 547 1339 c 128,-1,24
 535 1374 535 1374 512 1392.5 c 128,-1,25
 489 1411 489 1411 457.5 1417 c 128,-1,26
 426 1423 426 1423 386 1423 c 0,27,28
 223 1423 223 1423 219 1318 c 1,29,-1
 67 1318 l 1,30,31
 87 1544 87 1544 395 1544 c 0,32,33
 558 1544 558 1544 633 1480.5 c 128,-1,34
 708 1417 708 1417 708 1268 c 2,35,-1
 708 792 l 1,36,-1
 559 792 l 1,11,-1
694 536 m 1,37,-1
 83 536 l 1,38,-1
 83 658 l 1,39,-1
 694 658 l 1,40,-1
 694 536 l 1,37,-1
EndSplineSet
EndChar

StartChar: guillemotleft
Encoding: 106 171 109
Width: 1181
GlyphClass: 2
Flags: W
LayerCount: 2
Fore
SplineSet
1032 76 m 1,0,-1
 879 76 l 1,1,-1
 551 548 l 1,2,-1
 879 1020 l 1,3,-1
 1032 1020 l 1,4,-1
 764 548 l 1,5,-1
 1032 76 l 1,0,-1
628 76 m 1,6,-1
 475 76 l 1,7,-1
 146 548 l 1,8,-1
 475 1020 l 1,9,-1
 628 1020 l 1,10,-1
 359 548 l 1,11,-1
 628 76 l 1,6,-1
EndSplineSet
EndChar

StartChar: logicalnot
Encoding: 107 172 110
Width: 1238
GlyphClass: 2
Flags: W
LayerCount: 2
Fore
SplineSet
1123 430 m 1,0,-1
 947 430 l 1,1,-1
 947 892 l 1,2,-1
 117 892 l 1,3,-1
 117 1067 l 1,4,-1
 1123 1067 l 1,5,-1
 1123 430 l 1,0,-1
EndSplineSet
EndChar

StartChar: registered
Encoding: 109 174 111
Width: 1564
GlyphClass: 2
Flags: W
LayerCount: 2
Fore
SplineSet
782 1544 m 0,0,1
 941 1544 941 1544 1083.5 1482 c 128,-1,2
 1226 1420 1226 1420 1333 1313.5 c 128,-1,3
 1440 1207 1440 1207 1502 1064.5 c 128,-1,4
 1564 922 1564 922 1564 764 c 256,5,6
 1564 606 1564 606 1503.5 464 c 128,-1,7
 1443 322 1443 322 1336.5 214.5 c 128,-1,8
 1230 107 1230 107 1087.5 44 c 128,-1,9
 945 -19 945 -19 782 -19 c 0,10,11
 622 -19 622 -19 479.5 43.5 c 128,-1,12
 337 106 337 106 230.5 212.5 c 128,-1,13
 124 319 124 319 62 461 c 128,-1,14
 0 603 0 603 0 764 c 0,15,16
 0 871 0 871 28.5 970.5 c 128,-1,17
 57 1070 57 1070 108.5 1157 c 128,-1,18
 160 1244 160 1244 231.5 1315 c 128,-1,19
 303 1386 303 1386 390.5 1437.5 c 128,-1,20
 478 1489 478 1489 577 1516.5 c 128,-1,21
 676 1544 676 1544 782 1544 c 0,0,1
781 109 m 0,22,23
 912 109 912 109 1031 160.5 c 128,-1,24
 1150 212 1150 212 1239 301 c 128,-1,25
 1328 390 1328 390 1381 509 c 128,-1,26
 1434 628 1434 628 1434 764 c 0,27,28
 1434 895 1434 895 1382.5 1013 c 128,-1,29
 1331 1131 1331 1131 1242.5 1220.5 c 128,-1,30
 1154 1310 1154 1310 1034.5 1362 c 128,-1,31
 915 1414 915 1414 781 1414 c 0,32,33
 645 1414 645 1414 526.5 1362 c 128,-1,34
 408 1310 408 1310 319 1220.5 c 128,-1,35
 230 1131 230 1131 179.5 1013 c 128,-1,36
 129 895 129 895 129 764 c 0,37,38
 129 631 129 631 180.5 511.5 c 128,-1,39
 232 392 232 392 321 302.5 c 128,-1,40
 410 213 410 213 529 161 c 128,-1,41
 648 109 648 109 781 109 c 0,22,23
1135 330 m 1,42,-1
 978 330 l 1,43,-1
 912 513 l 2,44,45
 852 678 852 678 689 678 c 2,46,-1
 583 678 l 1,47,-1
 583 330 l 1,48,-1
 448 330 l 1,49,-1
 448 1171 l 1,50,-1
 764 1171 l 2,51,52
 1097 1171 1097 1171 1097 940 c 0,53,54
 1097 718 1097 718 878 701 c 1,55,56
 991 666 991 666 1044 541 c 2,57,-1
 1135 330 l 1,42,-1
583 797 m 1,58,-1
 754 797 l 2,59,60
 954 797 954 797 954 925 c 0,61,62
 954 1057 954 1057 746 1057 c 2,63,-1
 583 1057 l 1,64,-1
 583 797 l 1,58,-1
EndSplineSet
EndChar

StartChar: macron
Encoding: 110 175 112
Width: 708
GlyphClass: 2
Flags: W
LayerCount: 2
Fore
SplineSet
678 1324 m 1,0,-1
 30 1324 l 1,1,-1
 30 1479 l 1,2,-1
 678 1479 l 1,3,-1
 678 1324 l 1,0,-1
EndSplineSet
EndChar

StartChar: degree
Encoding: 111 176 113
Width: 848
GlyphClass: 2
Flags: W
LayerCount: 2
Fore
SplineSet
425 1537 m 0,0,1
 483 1537 483 1537 535.5 1514 c 128,-1,2
 588 1491 588 1491 626.5 1452.5 c 128,-1,3
 665 1414 665 1414 688 1362 c 128,-1,4
 711 1310 711 1310 711 1251 c 0,5,6
 711 1191 711 1191 688 1139 c 128,-1,7
 665 1087 665 1087 626.5 1048.5 c 128,-1,8
 588 1010 588 1010 535.5 987 c 128,-1,9
 483 964 483 964 425 964 c 0,10,11
 366 964 366 964 314 987 c 128,-1,12
 262 1010 262 1010 223 1048.5 c 128,-1,13
 184 1087 184 1087 161.5 1139 c 128,-1,14
 139 1191 139 1191 139 1251 c 256,15,16
 139 1311 139 1311 161.5 1363.5 c 128,-1,17
 184 1416 184 1416 223.5 1454.5 c 128,-1,18
 263 1493 263 1493 314.5 1515 c 128,-1,19
 366 1537 366 1537 425 1537 c 0,0,1
425 1075 m 256,20,21
 460 1075 460 1075 491.5 1089 c 128,-1,22
 523 1103 523 1103 547 1127 c 128,-1,23
 571 1151 571 1151 585 1182.5 c 128,-1,24
 599 1214 599 1214 599 1251 c 0,25,26
 599 1287 599 1287 585 1319 c 128,-1,27
 571 1351 571 1351 547 1375 c 128,-1,28
 523 1399 523 1399 491 1412.5 c 128,-1,29
 459 1426 459 1426 425 1426 c 0,30,31
 392 1426 392 1426 361 1413.5 c 128,-1,32
 330 1401 330 1401 306 1378.5 c 128,-1,33
 282 1356 282 1356 267 1323.5 c 128,-1,34
 252 1291 252 1291 252 1251 c 0,35,36
 252 1213 252 1213 266 1180 c 128,-1,37
 280 1147 280 1147 303.5 1124 c 128,-1,38
 327 1101 327 1101 358.5 1088 c 128,-1,39
 390 1075 390 1075 425 1075 c 256,20,21
EndSplineSet
EndChar

StartChar: plusminus
Encoding: 112 177 114
Width: 1238
GlyphClass: 2
Flags: W
LayerCount: 2
Fore
SplineSet
1123 708 m 1,0,-1
 708 708 l 1,1,-1
 708 292 l 1,2,-1
 533 292 l 1,3,-1
 533 708 l 1,4,-1
 117 708 l 1,5,-1
 117 879 l 1,6,-1
 533 879 l 1,7,-1
 533 1296 l 1,8,-1
 708 1296 l 1,9,-1
 708 879 l 1,10,-1
 1123 879 l 1,11,-1
 1123 708 l 1,0,-1
1123 0 m 1,12,-1
 117 0 l 1,13,-1
 117 174 l 1,14,-1
 1123 174 l 1,15,-1
 1123 0 l 1,12,-1
EndSplineSet
EndChar

StartChar: uni00B2
Encoding: 113 178 115
Width: 708
GlyphClass: 2
Flags: W
LayerCount: 2
Fore
SplineSet
669 759 m 1,0,-1
 24 759 l 1,1,2
 50 931 50 931 295 1077 c 0,3,4
 362 1117 362 1117 402.5 1147 c 128,-1,5
 443 1177 443 1177 465.5 1202 c 128,-1,6
 488 1227 488 1227 495 1250 c 128,-1,7
 502 1273 502 1273 502 1300 c 0,8,9
 502 1414 502 1414 360 1414 c 0,10,11
 226 1414 226 1414 204 1314 c 1,12,-1
 46 1314 l 1,13,14
 90 1537 90 1537 363 1537 c 0,15,16
 511 1537 511 1537 588.5 1473.5 c 128,-1,17
 666 1410 666 1410 666 1311 c 0,18,19
 666 1266 666 1266 654.5 1228 c 128,-1,20
 643 1190 643 1190 617.5 1156.5 c 128,-1,21
 592 1123 592 1123 551.5 1090.5 c 128,-1,22
 511 1058 511 1058 450 1024 c 0,23,24
 386 987 386 987 341.5 952.5 c 128,-1,25
 297 918 297 918 265 885 c 1,26,-1
 669 885 l 1,27,-1
 669 759 l 1,0,-1
EndSplineSet
EndChar

StartChar: uni00B3
Encoding: 114 179 116
Width: 708
GlyphClass: 2
Flags: W
LayerCount: 2
Fore
SplineSet
490 1165 m 1,0,1
 668 1134 668 1134 668 980 c 0,2,3
 668 929 668 929 646.5 885.5 c 128,-1,4
 625 842 625 842 584 810 c 128,-1,5
 543 778 543 778 485.5 759.5 c 128,-1,6
 428 741 428 741 355 741 c 0,7,8
 64 741 64 741 34 964 c 1,9,-1
 194 964 l 1,10,11
 206 862 206 862 347 862 c 0,12,13
 506 862 506 862 506 1000 c 0,14,15
 506 1105 506 1105 343 1105 c 2,16,-1
 286 1105 l 1,17,-1
 286 1220 l 1,18,19
 470 1220 470 1220 470 1330 c 0,20,21
 470 1417 470 1417 347 1417 c 0,22,23
 229 1417 229 1417 212 1333 c 1,24,-1
 51 1333 l 1,25,26
 90 1537 90 1537 347 1537 c 0,27,28
 489 1537 489 1537 560.5 1483 c 128,-1,29
 632 1429 632 1429 632 1346 c 0,30,31
 632 1205 632 1205 490 1165 c 1,0,1
EndSplineSet
EndChar

StartChar: acute
Encoding: 115 180 117
Width: 708
GlyphClass: 2
Flags: W
LayerCount: 2
Fore
SplineSet
616 1544 m 1,0,-1
 388 1253 l 1,1,-1
 235 1253 l 1,2,-1
 373 1544 l 1,3,-1
 616 1544 l 1,0,-1
EndSplineSet
EndChar

StartChar: mu
Encoding: 116 181 118
Width: 1181
GlyphClass: 2
Flags: W
LayerCount: 2
Fore
SplineSet
1155 -21 m 1,0,1
 1138 -26 1138 -26 1103 -26 c 0,2,3
 895 -26 895 -26 845 149 c 1,4,5
 705 -26 705 -26 516 -26 c 0,6,7
 418 -26 418 -26 337 24 c 1,8,-1
 340 -423 l 1,9,-1
 144 -423 l 1,10,-1
 144 1100 l 1,11,-1
 340 1100 l 1,12,-1
 340 352 l 2,13,14
 340 136 340 136 556 136 c 0,15,16
 596 136 596 136 630.5 143 c 128,-1,17
 665 150 665 150 698 170 c 128,-1,18
 731 190 731 190 766 224.5 c 128,-1,19
 801 259 801 259 841 313 c 1,20,-1
 841 1100 l 1,21,-1
 1034 1100 l 1,22,-1
 1034 249 l 2,23,24
 1034 136 1034 136 1123 136 c 0,25,26
 1134 136 1134 136 1142.5 137.5 c 128,-1,27
 1151 139 1151 139 1155 140 c 1,28,-1
 1155 -21 l 1,0,1
EndSplineSet
EndChar

StartChar: paragraph
Encoding: 117 182 119
Width: 1140
GlyphClass: 2
Flags: W
LayerCount: 2
Fore
SplineSet
1144 1367 m 1,0,-1
 997 1367 l 1,1,-1
 997 -423 l 1,2,-1
 822 -423 l 1,3,-1
 822 1367 l 1,4,-1
 589 1367 l 1,5,-1
 589 -423 l 1,6,-1
 416 -423 l 1,7,-1
 416 659 l 1,8,9
 316 666 316 666 238 700 c 128,-1,10
 160 734 160 734 107 789.5 c 128,-1,11
 54 845 54 845 26.5 919.5 c 128,-1,12
 -1 994 -1 994 -1 1083 c 0,13,14
 -1 1185 -1 1185 32.5 1266 c 128,-1,15
 66 1347 66 1347 129.5 1403 c 128,-1,16
 193 1459 193 1459 284 1488 c 128,-1,17
 375 1517 375 1517 489 1517 c 2,18,-1
 1144 1517 l 1,19,-1
 1144 1367 l 1,0,-1
EndSplineSet
EndChar

StartChar: periodcentered
Encoding: 118 183 120
AltUni2: 002219.ffffffff.0
Width: 589
GlyphClass: 2
Flags: W
LayerCount: 2
Fore
SplineSet
402 639 m 1,0,-1
 189 639 l 1,1,-1
 189 854 l 1,2,-1
 402 854 l 1,3,-1
 402 639 l 1,0,-1
EndSplineSet
EndChar

StartChar: cedilla
Encoding: 119 184 121
Width: 708
GlyphClass: 2
Flags: W
LayerCount: 2
Fore
SplineSet
385 -79 m 1,0,1
 559 -103 559 -103 559 -243 c 0,2,3
 559 -446 559 -446 243 -446 c 0,4,5
 219 -446 219 -446 193 -444.5 c 128,-1,6
 167 -443 167 -443 139 -440 c 1,7,-1
 139 -320 l 1,8,9
 167 -325 167 -325 194.5 -326 c 128,-1,10
 222 -327 222 -327 252 -327 c 0,11,12
 385 -327 385 -327 385 -242 c 0,13,14
 385 -163 385 -163 240 -163 c 1,15,-1
 240 0 l 1,16,-1
 385 0 l 1,17,-1
 385 -79 l 1,0,1
EndSplineSet
EndChar

StartChar: uni00B9
Encoding: 120 185 122
Width: 708
GlyphClass: 2
Flags: W
LayerCount: 2
Fore
SplineSet
492 759 m 1,0,-1
 342 759 l 1,1,-1
 342 1268 l 1,2,3
 270 1217 270 1217 109 1217 c 1,4,-1
 109 1346 l 1,5,6
 380 1346 380 1346 380 1537 c 1,7,-1
 492 1537 l 1,8,-1
 492 759 l 1,0,-1
EndSplineSet
EndChar

StartChar: ordmasculine
Encoding: 121 186 123
Width: 775
GlyphClass: 2
Flags: W
LayerCount: 2
Fore
SplineSet
388 1544 m 0,0,1
 465 1544 465 1544 528 1517.5 c 128,-1,2
 591 1491 591 1491 636 1441 c 128,-1,3
 681 1391 681 1391 706 1319 c 128,-1,4
 731 1247 731 1247 731 1155 c 0,5,6
 731 1064 731 1064 706 991.5 c 128,-1,7
 681 919 681 919 636 869 c 128,-1,8
 591 819 591 819 528 792.5 c 128,-1,9
 465 766 465 766 388 766 c 0,10,11
 312 766 312 766 249 792 c 128,-1,12
 186 818 186 818 141 868 c 128,-1,13
 96 918 96 918 71 990 c 128,-1,14
 46 1062 46 1062 46 1155 c 0,15,16
 46 1247 46 1247 71 1319 c 128,-1,17
 96 1391 96 1391 141 1441 c 128,-1,18
 186 1491 186 1491 249 1517.5 c 128,-1,19
 312 1544 312 1544 388 1544 c 0,0,1
388 902 m 0,20,21
 573 902 573 902 573 1155 c 0,22,23
 573 1406 573 1406 388 1406 c 0,24,25
 202 1406 202 1406 202 1155 c 0,26,27
 202 902 202 902 388 902 c 0,20,21
694 536 m 1,28,-1
 83 536 l 1,29,-1
 83 658 l 1,30,-1
 694 658 l 1,31,-1
 694 536 l 1,28,-1
EndSplineSet
EndChar

StartChar: guillemotright
Encoding: 122 187 124
Width: 1181
GlyphClass: 2
Flags: W
LayerCount: 2
Fore
SplineSet
1032 548 m 1,0,-1
 704 76 l 1,1,-1
 551 76 l 1,2,-1
 822 548 l 1,3,-1
 551 1020 l 1,4,-1
 704 1020 l 1,5,-1
 1032 548 l 1,0,-1
628 548 m 1,6,-1
 299 76 l 1,7,-1
 146 76 l 1,8,-1
 416 548 l 1,9,-1
 146 1020 l 1,10,-1
 299 1020 l 1,11,-1
 628 548 l 1,6,-1
EndSplineSet
EndChar

StartChar: onequarter
Encoding: 123 188 125
Width: 1769
GlyphClass: 2
Flags: W
LayerCount: 2
Fore
SplineSet
513 1537 m 1,0,-1
 513 759 l 1,1,-1
 363 759 l 1,2,-1
 363 1268 l 1,3,4
 292 1217 292 1217 132 1217 c 1,5,-1
 132 1346 l 1,6,7
 402 1346 402 1346 402 1537 c 1,8,-1
 513 1537 l 1,0,-1
1484 1517 m 1,9,-1
 405 0 l 1,10,-1
 242 0 l 1,11,-1
 1320 1517 l 1,12,-1
 1484 1517 l 1,9,-1
1675 160 m 1,13,-1
 1566 160 l 1,14,-1
 1566 0 l 1,15,-1
 1417 0 l 1,16,-1
 1417 160 l 1,17,-1
 1020 160 l 1,18,-1
 1020 286 l 1,19,-1
 1439 778 l 1,20,-1
 1566 778 l 1,21,-1
 1566 295 l 1,22,-1
 1675 295 l 1,23,-1
 1675 160 l 1,13,-1
1417 295 m 1,24,-1
 1417 588 l 1,25,-1
 1165 295 l 1,26,-1
 1417 295 l 1,24,-1
EndSplineSet
EndChar

StartChar: onehalf
Encoding: 124 189 126
Width: 1769
GlyphClass: 2
Flags: W
LayerCount: 2
Fore
SplineSet
513 1537 m 1,0,-1
 513 759 l 1,1,-1
 363 759 l 1,2,-1
 363 1268 l 1,3,4
 292 1217 292 1217 132 1217 c 1,5,-1
 132 1346 l 1,6,7
 402 1346 402 1346 402 1537 c 1,8,-1
 513 1537 l 1,0,-1
1484 1517 m 1,9,-1
 405 0 l 1,10,-1
 242 0 l 1,11,-1
 1320 1517 l 1,12,-1
 1484 1517 l 1,9,-1
1709 0 m 1,13,-1
 1065 0 l 1,14,15
 1088 170 1088 170 1333 317 c 0,16,17
 1400 357 1400 357 1441.5 386.5 c 128,-1,18
 1483 416 1483 416 1505 441 c 128,-1,19
 1527 466 1527 466 1534.5 489 c 128,-1,20
 1542 512 1542 512 1542 541 c 0,21,22
 1542 656 1542 656 1400 656 c 0,23,24
 1267 656 1267 656 1243 555 c 1,25,-1
 1085 555 l 1,26,27
 1130 779 1130 779 1403 779 c 0,28,29
 1473 779 1473 779 1528.5 762.5 c 128,-1,30
 1584 746 1584 746 1623.5 716 c 128,-1,31
 1663 686 1663 686 1684.5 644 c 128,-1,32
 1706 602 1706 602 1706 551 c 0,33,34
 1706 503 1706 503 1694.5 466 c 128,-1,35
 1683 429 1683 429 1657.5 396 c 128,-1,36
 1632 363 1632 363 1590.5 331.5 c 128,-1,37
 1549 300 1549 300 1489 265 c 0,38,39
 1427 227 1427 227 1382 192 c 128,-1,40
 1337 157 1337 157 1304 124 c 1,41,-1
 1709 124 l 1,42,-1
 1709 0 l 1,13,-1
EndSplineSet
EndChar

StartChar: threequarters
Encoding: 125 190 127
Width: 1769
GlyphClass: 2
Flags: W
LayerCount: 2
Fore
SplineSet
512 1165 m 1,0,1
 689 1134 689 1134 689 980 c 0,2,3
 689 928 689 928 667 884.5 c 128,-1,4
 645 841 645 841 604 808.5 c 128,-1,5
 563 776 563 776 504.5 758.5 c 128,-1,6
 446 741 446 741 375 741 c 0,7,8
 86 741 86 741 56 964 c 1,9,-1
 216 964 l 1,10,11
 227 862 227 862 369 862 c 0,12,13
 528 862 528 862 528 1000 c 0,14,15
 528 1105 528 1105 365 1105 c 2,16,-1
 306 1105 l 1,17,-1
 306 1220 l 1,18,19
 492 1220 492 1220 492 1330 c 0,20,21
 492 1417 492 1417 366 1417 c 0,22,23
 249 1417 249 1417 232 1333 c 1,24,-1
 70 1333 l 1,25,26
 113 1537 113 1537 369 1537 c 0,27,28
 438 1537 438 1537 490.5 1522 c 128,-1,29
 543 1507 543 1507 579.5 1480.5 c 128,-1,30
 616 1454 616 1454 635 1419 c 128,-1,31
 654 1384 654 1384 654 1346 c 0,32,33
 654 1205 654 1205 512 1165 c 1,0,1
1543 1517 m 1,34,-1
 462 0 l 1,35,-1
 299 0 l 1,36,-1
 1380 1517 l 1,37,-1
 1543 1517 l 1,34,-1
1675 160 m 1,38,-1
 1566 160 l 1,39,-1
 1566 0 l 1,40,-1
 1417 0 l 1,41,-1
 1417 160 l 1,42,-1
 1020 160 l 1,43,-1
 1020 286 l 1,44,-1
 1439 778 l 1,45,-1
 1566 778 l 1,46,-1
 1566 295 l 1,47,-1
 1675 295 l 1,48,-1
 1675 160 l 1,38,-1
1417 295 m 1,49,-1
 1417 588 l 1,50,-1
 1165 295 l 1,51,-1
 1417 295 l 1,49,-1
EndSplineSet
EndChar

StartChar: questiondown
Encoding: 126 191 128
Width: 1181
GlyphClass: 2
Flags: W
LayerCount: 2
Fore
SplineSet
1083 -7 m 1,0,1
 1074 -109 1074 -109 1034.5 -189.5 c 128,-1,2
 995 -270 995 -270 931 -327.5 c 128,-1,3
 867 -385 867 -385 779.5 -415.5 c 128,-1,4
 692 -446 692 -446 589 -446 c 0,5,6
 482 -446 482 -446 392.5 -415.5 c 128,-1,7
 303 -385 303 -385 238.5 -330.5 c 128,-1,8
 174 -276 174 -276 138 -199.5 c 128,-1,9
 102 -123 102 -123 102 -33 c 0,10,11
 102 20 102 20 112.5 66 c 128,-1,12
 123 112 123 112 148 157 c 128,-1,13
 173 202 173 202 215 248.5 c 128,-1,14
 257 295 257 295 322 349 c 0,15,16
 388 405 388 405 425 442.5 c 128,-1,17
 462 480 462 480 480 518 c 128,-1,18
 498 556 498 556 502 603.5 c 128,-1,19
 506 651 506 651 506 725 c 1,20,-1
 689 725 l 1,21,22
 689 529 689 529 645 442 c 0,23,24
 598 353 598 353 482 253 c 0,25,26
 423 203 423 203 389 166.5 c 128,-1,27
 355 130 355 130 335.5 100 c 128,-1,28
 316 70 316 70 310.5 42 c 128,-1,29
 305 14 305 14 305 -19 c 0,30,31
 305 -82 305 -82 327 -132.5 c 128,-1,32
 349 -183 349 -183 387.5 -219 c 128,-1,33
 426 -255 426 -255 477.5 -275 c 128,-1,34
 529 -295 529 -295 588 -295 c 0,35,36
 838 -295 838 -295 879 -7 c 1,37,-1
 1083 -7 l 1,0,1
699 887 m 1,38,-1
 485 887 l 1,39,-1
 485 1100 l 1,40,-1
 699 1100 l 1,41,-1
 699 887 l 1,38,-1
EndSplineSet
EndChar

StartChar: Aring
Encoding: 132 197 134
Width: 1414
GlyphClass: 2
Flags: W
LayerCount: 2
Fore
SplineSet
955 622 m 1,0,-1
 689 1326 l 1,1,-1
 432 622 l 1,2,-1
 955 622 l 1,0,-1
1417 0 m 1,3,-1
 1191 0 l 1,4,-1
 1015 462 l 1,5,-1
 379 462 l 1,6,-1
 210 0 l 1,7,-1
 -1 0 l 1,8,-1
 582 1517 l 1,9,-1
 798 1517 l 1,10,-1
 1417 0 l 1,3,-1
877 1706 m 0,11,12
 877 1666 877 1666 862 1632.5 c 128,-1,13
 847 1599 847 1599 821 1573 c 128,-1,14
 795 1547 795 1547 761.5 1533 c 128,-1,15
 728 1519 728 1519 691 1519 c 0,16,17
 652 1519 652 1519 618.5 1534 c 128,-1,18
 585 1549 585 1549 559 1574.5 c 128,-1,19
 533 1600 533 1600 519 1633.5 c 128,-1,20
 505 1667 505 1667 505 1706 c 0,21,22
 505 1743 505 1743 519 1777.5 c 128,-1,23
 533 1812 533 1812 559 1837.5 c 128,-1,24
 585 1863 585 1863 618.5 1878 c 128,-1,25
 652 1893 652 1893 691 1893 c 0,26,27
 728 1893 728 1893 761.5 1878 c 128,-1,28
 795 1863 795 1863 821 1838 c 128,-1,29
 847 1813 847 1813 862 1779 c 128,-1,30
 877 1745 877 1745 877 1706 c 0,11,12
802 1706 m 0,31,32
 802 1730 802 1730 792 1751 c 128,-1,33
 782 1772 782 1772 766.5 1787 c 128,-1,34
 751 1802 751 1802 731 1810 c 128,-1,35
 711 1818 711 1818 691 1818 c 0,36,37
 646 1818 646 1818 614 1785.5 c 128,-1,38
 582 1753 582 1753 582 1706 c 0,39,40
 582 1657 582 1657 613.5 1625 c 128,-1,41
 645 1593 645 1593 691 1593 c 0,42,43
 712 1593 712 1593 733 1602.5 c 128,-1,44
 754 1612 754 1612 769 1627 c 128,-1,45
 784 1642 784 1642 793 1662.5 c 128,-1,46
 802 1683 802 1683 802 1706 c 0,31,32
EndSplineSet
EndChar

StartChar: AE
Encoding: 133 198 135
Width: 2122
GlyphClass: 2
Flags: W
LayerCount: 2
Fore
SplineSet
2005 0 m 1,0,-1
 1011 0 l 1,1,-1
 1011 439 l 1,2,-1
 475 439 l 1,3,-1
 232 0 l 1,4,-1
 0 0 l 1,5,-1
 875 1517 l 1,6,-1
 1971 1517 l 1,7,-1
 1971 1338 l 1,8,-1
 1214 1338 l 1,9,-1
 1214 875 l 1,10,-1
 1910 875 l 1,11,-1
 1910 694 l 1,12,-1
 1214 694 l 1,13,-1
 1214 182 l 1,14,-1
 2005 182 l 1,15,-1
 2005 0 l 1,0,-1
1011 616 m 1,16,-1
 1011 1338 l 1,17,-1
 968 1338 l 1,18,-1
 573 616 l 1,19,-1
 1011 616 l 1,16,-1
EndSplineSet
EndChar

StartChar: Eth
Encoding: 143 208 145
Width: 1533
GlyphClass: 2
Flags: W
LayerCount: 2
Fore
SplineSet
172 1517 m 1,0,-1
 651 1517 l 2,1,2
 1426 1517 1426 1517 1426 768 c 0,3,4
 1426 0 1426 0 651 0 c 2,5,-1
 172 0 l 1,6,-1
 172 669 l 1,7,-1
 1 669 l 1,8,-1
 1 851 l 1,9,-1
 172 851 l 1,10,-1
 172 1517 l 1,0,-1
370 182 m 1,11,-1
 646 182 l 2,12,13
 818 182 818 182 929 222.5 c 128,-1,14
 1040 263 1040 263 1104 339 c 128,-1,15
 1168 415 1168 415 1193 523.5 c 128,-1,16
 1218 632 1218 632 1218 768 c 0,17,18
 1218 901 1218 901 1192.5 1006 c 128,-1,19
 1167 1111 1167 1111 1102.5 1185.5 c 128,-1,20
 1038 1260 1038 1260 927.5 1299 c 128,-1,21
 817 1338 817 1338 646 1338 c 2,22,-1
 370 1338 l 1,23,-1
 370 851 l 1,24,-1
 785 851 l 1,25,-1
 785 669 l 1,26,-1
 370 669 l 1,27,-1
 370 182 l 1,11,-1
EndSplineSet
EndChar

StartChar: multiply
Encoding: 150 215 152
Width: 1238
GlyphClass: 2
Flags: W
LayerCount: 2
Fore
SplineSet
1067 425 m 1,0,-1
 944 300 l 1,1,-1
 621 626 l 1,2,-1
 295 300 l 1,3,-1
 172 425 l 1,4,-1
 496 749 l 1,5,-1
 172 1072 l 1,6,-1
 295 1195 l 1,7,-1
 621 874 l 1,8,-1
 944 1195 l 1,9,-1
 1067 1072 l 1,10,-1
 744 749 l 1,11,-1
 1067 425 l 1,0,-1
EndSplineSet
EndChar

StartChar: Oslash
Encoding: 151 216 153
Width: 1652
GlyphClass: 2
Flags: W
LayerCount: 2
Fore
SplineSet
1570 1490 m 1,0,-1
 1389 1286 l 1,1,2
 1553 1078 1553 1078 1553 759 c 0,3,4
 1553 581 1553 581 1498.5 435.5 c 128,-1,5
 1444 290 1444 290 1347.5 188 c 128,-1,6
 1251 86 1251 86 1118 30 c 128,-1,7
 985 -26 985 -26 827 -26 c 0,8,9
 561 -26 561 -26 360 136 c 1,10,-1
 186 -57 l 1,11,-1
 83 30 l 1,12,-1
 265 232 l 1,13,14
 99 453 99 453 99 759 c 0,15,16
 99 932 99 932 151.5 1076.5 c 128,-1,17
 204 1221 204 1221 300 1325 c 128,-1,18
 396 1429 396 1429 530 1486.5 c 128,-1,19
 664 1544 664 1544 827 1544 c 0,20,21
 1100 1544 1100 1544 1291 1383 c 1,22,-1
 1466 1577 l 1,23,-1
 1570 1490 l 1,0,-1
1165 1243 m 1,24,25
 1032 1371 1032 1371 831 1371 c 0,26,27
 715 1371 715 1371 619 1329.5 c 128,-1,28
 523 1288 523 1288 454 1210.5 c 128,-1,29
 385 1133 385 1133 346 1019 c 128,-1,30
 307 905 307 905 307 759 c 0,31,32
 307 532 307 532 398 382 c 1,33,-1
 1165 1243 l 1,24,25
485 275 m 1,34,35
 626 146 626 146 825 146 c 0,36,37
 941 146 941 146 1037 189 c 128,-1,38
 1133 232 1133 232 1201.5 312 c 128,-1,39
 1270 392 1270 392 1308 505 c 128,-1,40
 1346 618 1346 618 1346 759 c 0,41,42
 1346 981 1346 981 1253 1138 c 1,43,-1
 485 275 l 1,34,35
EndSplineSet
EndChar

StartChar: Thorn
Encoding: 157 222 159
Width: 1414
GlyphClass: 2
Flags: W
LayerCount: 2
Fore
SplineSet
370 1220 m 1,0,-1
 736 1220 l 2,1,2
 828 1220 828 1220 906 1213.5 c 128,-1,3
 984 1207 984 1207 1047.5 1187 c 128,-1,4
 1111 1167 1111 1167 1161 1130.5 c 128,-1,5
 1211 1094 1211 1094 1248 1034 c 0,6,7
 1284 974 1284 974 1303.5 912.5 c 128,-1,8
 1323 851 1323 851 1323 778 c 0,9,10
 1323 307 1323 307 754 307 c 2,11,-1
 370 307 l 1,12,-1
 370 0 l 1,13,-1
 172 0 l 1,14,-1
 172 1517 l 1,15,-1
 370 1517 l 1,16,-1
 370 1220 l 1,0,-1
370 489 m 1,17,-1
 755 489 l 2,18,19
 854 489 854 489 922 507.5 c 128,-1,20
 990 526 990 526 1032.5 561 c 128,-1,21
 1075 596 1075 596 1094.5 648.5 c 128,-1,22
 1114 701 1114 701 1114 769 c 0,23,24
 1114 815 1114 815 1101 856.5 c 128,-1,25
 1088 898 1088 898 1066.5 931.5 c 128,-1,26
 1045 965 1045 965 1016 988 c 128,-1,27
 987 1011 987 1011 952 1020 c 0,28,29
 888 1041 888 1041 749 1041 c 2,30,-1
 370 1041 l 1,31,-1
 370 489 l 1,17,-1
EndSplineSet
EndChar

StartChar: germandbls
Encoding: 158 223 160
Width: 1296
GlyphClass: 2
Flags: W
LayerCount: 2
Fore
SplineSet
144 0 m 1,0,-1
 144 1034 l 2,1,2
 144 1544 144 1544 593 1544 c 0,3,4
 685 1544 685 1544 757 1521.5 c 128,-1,5
 829 1499 829 1499 879 1459 c 128,-1,6
 929 1419 929 1419 955.5 1364.5 c 128,-1,7
 982 1310 982 1310 982 1248 c 0,8,9
 982 1198 982 1198 955 1124.5 c 128,-1,10
 928 1051 928 1051 875 955 c 0,11,12
 825 867 825 867 825 825 c 0,13,14
 825 799 825 799 831 782 c 128,-1,15
 837 765 837 765 857 745.5 c 128,-1,16
 877 726 877 726 915.5 699 c 128,-1,17
 954 672 954 672 1018 629 c 0,18,19
 1080 588 1080 588 1120 550.5 c 128,-1,20
 1160 513 1160 513 1183.5 476.5 c 128,-1,21
 1207 440 1207 440 1216.5 402.5 c 128,-1,22
 1226 365 1226 365 1226 322 c 0,23,24
 1226 249 1226 249 1197 186 c 128,-1,25
 1168 123 1168 123 1118 76 c 128,-1,26
 1068 29 1068 29 998 1.5 c 128,-1,27
 928 -26 928 -26 845 -26 c 0,28,29
 771 -26 771 -26 705 -6 c 128,-1,30
 639 14 639 14 590 50.5 c 128,-1,31
 541 87 541 87 510.5 139.5 c 128,-1,32
 480 192 480 192 478 256 c 1,33,-1
 665 256 l 1,34,35
 682 129 682 129 842 129 c 0,36,37
 925 129 925 129 977.5 177.5 c 128,-1,38
 1030 226 1030 226 1030 307 c 0,39,40
 1030 345 1030 345 1022.5 369 c 128,-1,41
 1015 393 1015 393 995 414.5 c 128,-1,42
 975 436 975 436 940 461 c 128,-1,43
 905 486 905 486 851 523 c 0,44,45
 797 558 797 558 756 588 c 128,-1,46
 715 618 715 618 686.5 649.5 c 128,-1,47
 658 681 658 681 643.5 716.5 c 128,-1,48
 629 752 629 752 629 797 c 0,49,50
 629 864 629 864 708 1004 c 0,51,52
 754 1087 754 1087 775.5 1142.5 c 128,-1,53
 797 1198 797 1198 798 1228 c 0,54,55
 798 1263 798 1263 783 1293 c 128,-1,56
 768 1323 768 1323 740 1344.5 c 128,-1,57
 712 1366 712 1366 674 1378.5 c 128,-1,58
 636 1391 636 1391 589 1391 c 0,59,60
 533 1391 533 1391 487.5 1376 c 128,-1,61
 442 1361 442 1361 409 1320.5 c 128,-1,62
 376 1280 376 1280 358 1209 c 128,-1,63
 340 1138 340 1138 340 1027 c 2,64,-1
 340 0 l 1,65,-1
 144 0 l 1,0,-1
EndSplineSet
EndChar

StartChar: aring
Encoding: 164 229 166
Width: 1181
GlyphClass: 2
Flags: W
LayerCount: 2
Fore
SplineSet
841 289 m 1,0,-1
 841 533 l 1,1,-1
 708 533 l 2,2,3
 283 533 283 533 283 300 c 0,4,5
 283 214 283 214 344 171.5 c 128,-1,6
 405 129 405 129 513 129 c 0,7,8
 561 129 561 129 607.5 139.5 c 128,-1,9
 654 150 654 150 696.5 171 c 128,-1,10
 739 192 739 192 776.5 221 c 128,-1,11
 814 250 814 250 841 289 c 1,0,-1
841 113 m 1,12,13
 694 -26 694 -26 456 -26 c 0,14,15
 375 -26 375 -26 306 -3 c 128,-1,16
 237 20 237 20 186.5 61.5 c 128,-1,17
 136 103 136 103 108 161.5 c 128,-1,18
 80 220 80 220 80 292 c 0,19,20
 80 678 80 678 745 678 c 2,21,-1
 841 678 l 1,22,23
 841 754 841 754 834.5 809.5 c 128,-1,24
 828 865 828 865 802 901.5 c 128,-1,25
 776 938 776 938 723.5 955 c 128,-1,26
 671 972 671 972 578 972 c 0,27,28
 316 972 316 972 307 785 c 1,29,-1
 113 785 l 1,30,31
 137 1123 137 1123 588 1123 c 0,32,33
 692 1123 692 1123 775 1105.5 c 128,-1,34
 858 1088 858 1088 916 1042.5 c 128,-1,35
 974 997 974 997 1004 917 c 128,-1,36
 1034 837 1034 837 1034 711 c 2,37,-1
 1034 0 l 1,38,-1
 841 0 l 1,39,-1
 841 113 l 1,12,13
592 1596 m 0,40,41
 629 1596 629 1596 662.5 1581 c 128,-1,42
 696 1566 696 1566 722 1540 c 128,-1,43
 748 1514 748 1514 763 1480 c 128,-1,44
 778 1446 778 1446 778 1406 c 0,45,46
 778 1367 778 1367 763 1332.5 c 128,-1,47
 748 1298 748 1298 722 1273 c 128,-1,48
 696 1248 696 1248 662.5 1233 c 128,-1,49
 629 1218 629 1218 592 1218 c 0,50,51
 553 1218 553 1218 519 1233 c 128,-1,52
 485 1248 485 1248 460 1273 c 128,-1,53
 435 1298 435 1298 420 1332.5 c 128,-1,54
 405 1367 405 1367 405 1406 c 0,55,56
 405 1446 405 1446 420 1480 c 128,-1,57
 435 1514 435 1514 460 1540 c 128,-1,58
 485 1566 485 1566 519 1581 c 128,-1,59
 553 1596 553 1596 592 1596 c 0,40,41
592 1294 m 0,60,61
 611 1294 611 1294 631 1302 c 128,-1,62
 651 1310 651 1310 666.5 1325 c 128,-1,63
 682 1340 682 1340 692 1360.5 c 128,-1,64
 702 1381 702 1381 702 1406 c 0,65,66
 702 1429 702 1429 693 1449 c 128,-1,67
 684 1469 684 1469 669 1484 c 128,-1,68
 654 1499 654 1499 633.5 1508 c 128,-1,69
 613 1517 613 1517 592 1517 c 0,70,71
 551 1517 551 1517 516.5 1488.5 c 128,-1,72
 482 1460 482 1460 482 1406 c 0,73,74
 482 1380 482 1380 491 1360 c 128,-1,75
 500 1340 500 1340 516 1325 c 128,-1,76
 532 1310 532 1310 552 1302 c 128,-1,77
 572 1294 572 1294 592 1294 c 0,60,61
EndSplineSet
EndChar

StartChar: ae
Encoding: 165 230 167
Width: 1886
GlyphClass: 2
Flags: W
LayerCount: 2
Fore
SplineSet
819 453 m 2,0,-1
 819 533 l 1,1,-1
 686 533 l 2,2,3
 283 533 283 533 283 300 c 0,4,5
 283 129 283 129 502 129 c 0,6,7
 572 129 572 129 630.5 149 c 128,-1,8
 689 169 689 169 731.5 209.5 c 128,-1,9
 774 250 774 250 796.5 311 c 128,-1,10
 819 372 819 372 819 453 c 2,0,-1
902 186 m 1,11,12
 874 139 874 139 836.5 100 c 128,-1,13
 799 61 799 61 745.5 33.5 c 128,-1,14
 692 6 692 6 619 -10 c 128,-1,15
 546 -26 546 -26 446 -26 c 0,16,17
 365 -26 365 -26 297.5 -3 c 128,-1,18
 230 20 230 20 182 61.5 c 128,-1,19
 134 103 134 103 107 161.5 c 128,-1,20
 80 220 80 220 80 292 c 0,21,22
 80 678 80 678 724 678 c 2,23,-1
 819 678 l 1,24,25
 819 742 819 742 813.5 796.5 c 128,-1,26
 808 851 808 851 783.5 890 c 128,-1,27
 759 929 759 929 707.5 950.5 c 128,-1,28
 656 972 656 972 566 972 c 0,29,30
 323 972 323 972 307 785 c 1,31,-1
 113 785 l 1,32,33
 137 1123 137 1123 578 1123 c 0,34,35
 858 1123 858 1123 955 985 c 1,36,37
 1090 1123 1090 1123 1307 1123 c 0,38,39
 1424 1123 1424 1123 1518 1084 c 128,-1,40
 1612 1045 1612 1045 1677.5 971.5 c 128,-1,41
 1743 898 1743 898 1777.5 791.5 c 128,-1,42
 1812 685 1812 685 1812 549 c 2,43,-1
 1812 502 l 1,44,-1
 1015 502 l 1,45,46
 1025 317 1025 317 1107.5 223 c 128,-1,47
 1190 129 1190 129 1328 129 c 0,48,49
 1380 129 1380 129 1425.5 141.5 c 128,-1,50
 1471 154 1471 154 1507 180 c 128,-1,51
 1543 206 1543 206 1565 243 c 128,-1,52
 1587 280 1587 280 1590 329 c 1,53,-1
 1790 329 l 1,54,55
 1779 243 1779 243 1740.5 177.5 c 128,-1,56
 1702 112 1702 112 1641 66.5 c 128,-1,57
 1580 21 1580 21 1500.5 -2.5 c 128,-1,58
 1421 -26 1421 -26 1328 -26 c 0,59,60
 1044 -26 1044 -26 902 186 c 1,11,12
1607 656 m 1,61,62
 1557 972 1557 972 1307 972 c 0,63,64
 1062 972 1062 972 1020 656 c 1,65,-1
 1607 656 l 1,61,62
EndSplineSet
EndChar

StartChar: igrave
Encoding: 171 236 173
Width: 483
GlyphClass: 2
Flags: W
LayerCount: 2
Fore
SplineSet
340 0 m 1,0,-1
 144 0 l 1,1,-1
 144 1100 l 1,2,-1
 340 1100 l 1,3,-1
 340 0 l 1,0,-1
362 1253 m 1,4,-1
 209 1253 l 1,5,-1
 -21 1544 l 1,6,-1
 223 1544 l 1,7,-1
 362 1253 l 1,4,-1
EndSplineSet
EndChar

StartChar: iacute
Encoding: 172 237 174
Width: 483
GlyphClass: 2
Flags: W
LayerCount: 2
Fore
SplineSet
340 0 m 1,0,-1
 144 0 l 1,1,-1
 144 1100 l 1,2,-1
 340 1100 l 1,3,-1
 340 0 l 1,0,-1
508 1544 m 1,4,-1
 277 1253 l 1,5,-1
 124 1253 l 1,6,-1
 263 1544 l 1,7,-1
 508 1544 l 1,4,-1
EndSplineSet
EndChar

StartChar: icircumflex
Encoding: 173 238 175
Width: 483
GlyphClass: 2
Flags: W
LayerCount: 2
Fore
SplineSet
340 0 m 1,0,-1
 144 0 l 1,1,-1
 144 1100 l 1,2,-1
 340 1100 l 1,3,-1
 340 0 l 1,0,-1
571 1253 m 1,4,-1
 359 1253 l 1,5,-1
 242 1429 l 1,6,-1
 124 1253 l 1,7,-1
 -87 1253 l 1,8,-1
 142 1544 l 1,9,-1
 340 1544 l 1,10,-1
 571 1253 l 1,4,-1
EndSplineSet
EndChar

StartChar: idieresis
Encoding: 174 239 176
Width: 483
GlyphClass: 2
Flags: W
LayerCount: 2
Fore
SplineSet
340 0 m 1,0,-1
 144 0 l 1,1,-1
 144 1100 l 1,2,-1
 340 1100 l 1,3,-1
 340 0 l 1,0,-1
531 1296 m 1,4,-1
 340 1296 l 1,5,-1
 340 1509 l 1,6,-1
 531 1509 l 1,7,-1
 531 1296 l 1,4,-1
149 1296 m 1,8,-1
 -44 1296 l 1,9,-1
 -44 1509 l 1,10,-1
 149 1509 l 1,11,-1
 149 1296 l 1,8,-1
EndSplineSet
EndChar

StartChar: eth
Encoding: 175 240 177
Width: 1181
GlyphClass: 2
Flags: W
LayerCount: 2
Fore
SplineSet
766 1330 m 1,0,1
 857 1226 857 1226 922 1129 c 128,-1,2
 987 1032 987 1032 1027 938 c 0,3,4
 1065 844 1065 844 1085 744.5 c 128,-1,5
 1105 645 1105 645 1105 536 c 0,6,7
 1105 400 1105 400 1067.5 296 c 128,-1,8
 1030 192 1030 192 962 120.5 c 128,-1,9
 894 49 894 49 799 11.5 c 128,-1,10
 704 -26 704 -26 589 -26 c 0,11,12
 476 -26 476 -26 381.5 10 c 128,-1,13
 287 46 287 46 219.5 116.5 c 128,-1,14
 152 187 152 187 114 292.5 c 128,-1,15
 76 398 76 398 76 536 c 0,16,17
 76 676 76 676 114.5 782 c 128,-1,18
 153 888 153 888 221.5 959 c 128,-1,19
 290 1030 290 1030 384.5 1065 c 128,-1,20
 479 1100 479 1100 589 1100 c 0,21,22
 684 1100 684 1100 755 1061 c 1,23,24
 704 1173 704 1173 621 1264 c 1,25,-1
 366 1148 l 1,26,-1
 315 1248 l 1,27,-1
 536 1350 l 1,28,29
 453 1431 453 1431 322 1517 c 1,30,-1
 548 1517 l 1,31,32
 596 1481 596 1481 629 1455.5 c 128,-1,33
 662 1430 662 1430 678 1414 c 1,34,-1
 899 1517 l 1,35,-1
 954 1419 l 1,36,-1
 766 1330 l 1,0,1
589 129 m 0,37,38
 659 129 659 129 716.5 154.5 c 128,-1,39
 774 180 774 180 815.5 231 c 128,-1,40
 857 282 857 282 879.5 358.5 c 128,-1,41
 902 435 902 435 902 536 c 0,42,43
 902 639 902 639 879.5 715.5 c 128,-1,44
 857 792 857 792 815.5 843.5 c 128,-1,45
 774 895 774 895 716 920 c 128,-1,46
 658 945 658 945 589 945 c 0,47,48
 521 945 521 945 463 918.5 c 128,-1,49
 405 892 405 892 362.5 840.5 c 128,-1,50
 320 789 320 789 297.5 712.5 c 128,-1,51
 275 636 275 636 275 536 c 0,52,53
 275 337 275 337 358.5 233 c 128,-1,54
 442 129 442 129 589 129 c 0,37,38
EndSplineSet
EndChar

StartChar: divide
Encoding: 182 247 184
Width: 1238
GlyphClass: 2
Flags: W
LayerCount: 2
Fore
SplineSet
725 977 m 1,0,-1
 513 977 l 1,1,-1
 513 1187 l 1,2,-1
 725 1187 l 1,3,-1
 725 977 l 1,0,-1
1123 662 m 1,4,-1
 117 662 l 1,5,-1
 117 835 l 1,6,-1
 1123 835 l 1,7,-1
 1123 662 l 1,4,-1
725 309 m 1,8,-1
 513 309 l 1,9,-1
 513 523 l 1,10,-1
 725 523 l 1,11,-1
 725 309 l 1,8,-1
EndSplineSet
EndChar

StartChar: oslash
Encoding: 183 248 185
Width: 1181
GlyphClass: 2
Flags: W
LayerCount: 2
Fore
SplineSet
980 957 m 1,0,1
 1105 805 1105 805 1105 549 c 0,2,3
 1105 409 1105 409 1067.5 301.5 c 128,-1,4
 1030 194 1030 194 962 121.5 c 128,-1,5
 894 49 894 49 799 11.5 c 128,-1,6
 704 -26 704 -26 589 -26 c 0,7,8
 415 -26 415 -26 292 59 c 1,9,-1
 186 -76 l 1,10,-1
 89 0 l 1,11,12
 134 54 134 54 158.5 85.5 c 128,-1,13
 183 117 183 117 197 142 c 1,14,15
 76 293 76 293 76 549 c 0,16,17
 76 689 76 689 113 796.5 c 128,-1,18
 150 904 150 904 218 976 c 128,-1,19
 286 1048 286 1048 380.5 1085.5 c 128,-1,20
 475 1123 475 1123 589 1123 c 0,21,22
 761 1123 761 1123 888 1041 c 1,23,-1
 991 1175 l 1,24,-1
 1093 1103 l 1,25,-1
 980 957 l 1,0,1
782 901 m 1,26,27
 702 972 702 972 589 972 c 0,28,29
 519 972 519 972 461 944.5 c 128,-1,30
 403 917 403 917 361.5 863 c 128,-1,31
 320 809 320 809 297.5 730 c 128,-1,32
 275 651 275 651 275 549 c 0,33,34
 275 395 275 395 320 300 c 1,35,-1
 782 901 l 1,26,27
395 197 m 1,36,37
 473 129 473 129 589 129 c 0,38,39
 735 129 735 129 818.5 234 c 128,-1,40
 902 339 902 339 902 549 c 0,41,42
 902 706 902 706 857 798 c 1,43,-1
 395 197 l 1,36,37
EndSplineSet
EndChar

StartChar: thorn
Encoding: 189 254 191
Width: 1181
GlyphClass: 2
Flags: W
LayerCount: 2
Fore
SplineSet
340 968 m 1,0,1
 469 1123 469 1123 655 1123 c 0,2,3
 762 1123 762 1123 845.5 1082.5 c 128,-1,4
 929 1042 929 1042 987 968.5 c 128,-1,5
 1045 895 1045 895 1075 791.5 c 128,-1,6
 1105 688 1105 688 1105 559 c 0,7,8
 1105 425 1105 425 1070 317 c 128,-1,9
 1035 209 1035 209 973 132.5 c 128,-1,10
 911 56 911 56 825 15 c 128,-1,11
 739 -26 739 -26 639 -26 c 0,12,13
 460 -26 460 -26 340 86 c 1,14,-1
 340 -423 l 1,15,-1
 144 -423 l 1,16,-1
 144 1517 l 1,17,-1
 340 1517 l 1,18,-1
 340 968 l 1,0,1
340 262 m 1,19,20
 465 129 465 129 628 129 c 0,21,22
 758 129 758 129 830 234.5 c 128,-1,23
 902 340 902 340 902 559 c 0,24,25
 902 768 902 768 834 870 c 128,-1,26
 766 972 766 972 636 972 c 0,27,28
 475 972 475 972 340 782 c 1,29,-1
 340 262 l 1,19,20
EndSplineSet
EndChar

StartChar: dotlessi
Encoding: 191 305 193
Width: 483
GlyphClass: 2
Flags: W
LayerCount: 2
Fore
SplineSet
340 0 m 1,0,-1
 144 0 l 1,1,-1
 144 1100 l 1,2,-1
 340 1100 l 1,3,-1
 340 0 l 1,0,-1
EndSplineSet
EndChar

StartChar: OE
Encoding: 192 338 194
Width: 2122
GlyphClass: 2
Flags: W
LayerCount: 2
Fore
SplineSet
2009 0 m 1,0,-1
 1158 0 l 1,1,-1
 1158 200 l 1,2,3
 1125 149 1125 149 1078 107.5 c 128,-1,4
 1031 66 1031 66 975 36.5 c 128,-1,5
 919 7 919 7 858 -9.5 c 128,-1,6
 797 -26 797 -26 735 -26 c 0,7,8
 583 -26 583 -26 465 30 c 128,-1,9
 347 86 347 86 265.5 188 c 128,-1,10
 184 290 184 290 141.5 435.5 c 128,-1,11
 99 581 99 581 99 759 c 0,12,13
 99 940 99 940 141.5 1085 c 128,-1,14
 184 1230 184 1230 265.5 1332 c 128,-1,15
 347 1434 347 1434 466 1489 c 128,-1,16
 585 1544 585 1544 735 1544 c 0,17,18
 797 1544 797 1544 858 1528 c 128,-1,19
 919 1512 919 1512 975 1481.5 c 128,-1,20
 1031 1451 1031 1451 1078 1410 c 128,-1,21
 1125 1369 1125 1369 1158 1320 c 1,22,-1
 1158 1517 l 1,23,-1
 1973 1517 l 1,24,-1
 1973 1338 l 1,25,-1
 1360 1338 l 1,26,-1
 1360 875 l 1,27,-1
 1916 875 l 1,28,-1
 1916 694 l 1,29,-1
 1360 694 l 1,30,-1
 1360 182 l 1,31,-1
 2009 182 l 1,32,-1
 2009 0 l 1,0,-1
732 146 m 0,33,34
 1158 146 1158 146 1158 759 c 0,35,36
 1158 1371 1158 1371 736 1371 c 0,37,38
 632 1371 632 1371 552 1329.5 c 128,-1,39
 472 1288 472 1288 417.5 1210.5 c 128,-1,40
 363 1133 363 1133 335 1019 c 128,-1,41
 307 905 307 905 307 759 c 0,42,43
 307 609 307 609 337.5 494.5 c 128,-1,44
 368 380 368 380 423 302.5 c 128,-1,45
 478 225 478 225 556.5 185.5 c 128,-1,46
 635 146 635 146 732 146 c 0,33,34
EndSplineSet
EndChar

StartChar: oe
Encoding: 193 339 195
Width: 2003
GlyphClass: 2
Flags: W
LayerCount: 2
Fore
SplineSet
1929 502 m 1,0,-1
 1103 502 l 1,1,2
 1107 409 1107 409 1134 339.5 c 128,-1,3
 1161 270 1161 270 1204.5 223 c 128,-1,4
 1248 176 1248 176 1307 152.5 c 128,-1,5
 1366 129 1366 129 1434 129 c 0,6,7
 1484 129 1484 129 1532 141.5 c 128,-1,8
 1580 154 1580 154 1618 179 c 128,-1,9
 1656 204 1656 204 1679.5 241.5 c 128,-1,10
 1703 279 1703 279 1706 329 c 1,11,-1
 1908 329 l 1,12,13
 1896 243 1896 243 1855.5 176.5 c 128,-1,14
 1815 110 1815 110 1751 65 c 128,-1,15
 1687 20 1687 20 1606.5 -3 c 128,-1,16
 1526 -26 1526 -26 1434 -26 c 0,17,18
 1154 -26 1154 -26 1004 174 c 1,19,20
 864 -26 864 -26 589 -26 c 0,21,22
 475 -26 475 -26 380.5 11.5 c 128,-1,23
 286 49 286 49 218 121.5 c 128,-1,24
 150 194 150 194 113 301.5 c 128,-1,25
 76 409 76 409 76 549 c 256,26,27
 76 689 76 689 113 796.5 c 128,-1,28
 150 904 150 904 218 976 c 128,-1,29
 286 1048 286 1048 380.5 1085.5 c 128,-1,30
 475 1123 475 1123 589 1123 c 0,31,32
 864 1123 864 1123 1004 925 c 1,33,34
 1145 1123 1145 1123 1414 1123 c 0,35,36
 1530 1123 1530 1123 1625 1084 c 128,-1,37
 1720 1045 1720 1045 1787.5 971.5 c 128,-1,38
 1855 898 1855 898 1892 791.5 c 128,-1,39
 1929 685 1929 685 1929 549 c 2,40,-1
 1929 502 l 1,0,-1
1723 656 m 1,41,42
 1699 815 1699 815 1615.5 893.5 c 128,-1,43
 1532 972 1532 972 1414 972 c 0,44,45
 1293 972 1293 972 1213.5 896.5 c 128,-1,46
 1134 821 1134 821 1105 656 c 1,47,-1
 1723 656 l 1,41,42
589 129 m 0,48,49
 735 129 735 129 818.5 234 c 128,-1,50
 902 339 902 339 902 549 c 0,51,52
 902 655 902 655 879.5 734.5 c 128,-1,53
 857 814 857 814 815.5 866.5 c 128,-1,54
 774 919 774 919 716 945.5 c 128,-1,55
 658 972 658 972 589 972 c 0,56,57
 519 972 519 972 461 944.5 c 128,-1,58
 403 917 403 917 361.5 863 c 128,-1,59
 320 809 320 809 297.5 730 c 128,-1,60
 275 651 275 651 275 549 c 0,61,62
 275 340 275 340 358.5 234.5 c 128,-1,63
 442 129 442 129 589 129 c 0,48,49
EndSplineSet
EndChar

StartChar: Scaron
Encoding: 194 352 196
Width: 1414
GlyphClass: 2
Flags: W
LayerCount: 2
Fore
SplineSet
744 -26 m 0,0,1
 581 -26 581 -26 460 12.5 c 128,-1,2
 339 51 339 51 259 120 c 128,-1,3
 179 189 179 189 139 283.5 c 128,-1,4
 99 378 99 378 96 489 c 1,5,-1
 289 489 l 1,6,7
 296 403 296 403 332.5 340 c 128,-1,8
 369 277 369 277 428.5 236.5 c 128,-1,9
 488 196 488 196 566.5 176 c 128,-1,10
 645 156 645 156 735 156 c 0,11,12
 817 156 817 156 886 173 c 128,-1,13
 955 190 955 190 1004.5 223 c 128,-1,14
 1054 256 1054 256 1082 304 c 128,-1,15
 1110 352 1110 352 1110 413 c 0,16,17
 1110 476 1110 476 1085 519.5 c 128,-1,18
 1060 563 1060 563 1004 596 c 128,-1,19
 948 629 948 629 857 655 c 128,-1,20
 766 681 766 681 635 709 c 0,21,22
 502 736 502 736 409 774 c 128,-1,23
 316 812 316 812 258 862 c 128,-1,24
 200 912 200 912 174.5 976.5 c 128,-1,25
 149 1041 149 1041 149 1123 c 0,26,27
 149 1214 149 1214 187 1292 c 128,-1,28
 225 1370 225 1370 295.5 1425.5 c 128,-1,29
 366 1481 366 1481 466 1512.5 c 128,-1,30
 566 1544 566 1544 689 1544 c 0,31,32
 815 1544 815 1544 921 1513.5 c 128,-1,33
 1027 1483 1027 1483 1102.5 1425 c 128,-1,34
 1178 1367 1178 1367 1222 1282 c 128,-1,35
 1266 1197 1266 1197 1268 1088 c 1,36,-1
 1072 1088 l 1,37,38
 1044 1366 1044 1366 698 1366 c 0,39,40
 525 1366 525 1366 434 1302 c 128,-1,41
 343 1238 343 1238 343 1135 c 0,42,43
 343 1087 343 1087 358 1052.5 c 128,-1,44
 373 1018 373 1018 412.5 991.5 c 128,-1,45
 452 965 452 965 520 943 c 128,-1,46
 588 921 588 921 694 898 c 0,47,48
 798 874 798 874 877.5 852.5 c 128,-1,49
 957 831 957 831 1017 811 c 0,50,51
 1072 791 1072 791 1123.5 758 c 128,-1,52
 1175 725 1175 725 1216 678 c 128,-1,53
 1257 631 1257 631 1281.5 568.5 c 128,-1,54
 1306 506 1306 506 1306 429 c 0,55,56
 1306 330 1306 330 1264.5 247 c 128,-1,57
 1223 164 1223 164 1148.5 103.5 c 128,-1,58
 1074 43 1074 43 970.5 8.5 c 128,-1,59
 867 -26 867 -26 744 -26 c 0,0,1
1012 1906 m 1,60,-1
 785 1614 l 1,61,-1
 585 1614 l 1,62,-1
 357 1906 l 1,63,-1
 568 1906 l 1,64,-1
 686 1730 l 1,65,-1
 802 1906 l 1,66,-1
 1012 1906 l 1,60,-1
EndSplineSet
EndChar

StartChar: scaron
Encoding: 195 353 197
Width: 1061
GlyphClass: 2
Flags: W
LayerCount: 2
Fore
SplineSet
536 -26 m 0,0,1
 86 -26 86 -26 66 329 c 1,2,-1
 262 329 l 1,3,4
 265 129 265 129 535 129 c 0,5,6
 661 129 661 129 721.5 176 c 128,-1,7
 782 223 782 223 782 305 c 0,8,9
 782 340 782 340 770 364 c 128,-1,10
 758 388 758 388 723.5 407 c 128,-1,11
 689 426 689 426 626 444.5 c 128,-1,12
 563 463 563 463 463 489 c 0,13,14
 365 512 365 512 295 536.5 c 128,-1,15
 225 561 225 561 179 596 c 128,-1,16
 133 631 133 631 111.5 681.5 c 128,-1,17
 90 732 90 732 90 808 c 0,18,19
 90 877 90 877 118.5 934 c 128,-1,20
 147 991 147 991 201 1033 c 128,-1,21
 255 1075 255 1075 331.5 1099 c 128,-1,22
 408 1123 408 1123 502 1123 c 0,23,24
 931 1123 931 1123 942 815 c 1,25,-1
 746 815 l 1,26,27
 738 972 738 972 513 972 c 0,28,29
 468 972 468 972 426.5 963 c 128,-1,30
 385 954 385 954 353.5 936 c 128,-1,31
 322 918 322 918 304 890 c 128,-1,32
 286 862 286 862 286 825 c 0,33,34
 286 792 286 792 292.5 771.5 c 128,-1,35
 299 751 299 751 328 733.5 c 128,-1,36
 357 716 357 716 417.5 699 c 128,-1,37
 478 682 478 682 585 656 c 0,38,39
 684 632 684 632 757.5 606.5 c 128,-1,40
 831 581 831 581 880 544.5 c 128,-1,41
 929 508 929 508 953.5 454 c 128,-1,42
 978 400 978 400 978 322 c 0,43,44
 978 249 978 249 947.5 186 c 128,-1,45
 917 123 917 123 859.5 76 c 128,-1,46
 802 29 802 29 720.5 1.5 c 128,-1,47
 639 -26 639 -26 536 -26 c 0,0,1
815 1544 m 1,48,-1
 588 1253 l 1,49,-1
 388 1253 l 1,50,-1
 160 1544 l 1,51,-1
 370 1544 l 1,52,-1
 489 1369 l 1,53,-1
 605 1544 l 1,54,-1
 815 1544 l 1,48,-1
EndSplineSet
EndChar

StartChar: Zcaron
Encoding: 197 381 199
Width: 1296
GlyphClass: 2
Flags: W
LayerCount: 2
Fore
SplineSet
1238 0 m 1,0,-1
 37 0 l 1,1,-1
 37 189 l 1,2,-1
 982 1338 l 1,3,-1
 124 1338 l 1,4,-1
 124 1517 l 1,5,-1
 1214 1517 l 1,6,-1
 1214 1330 l 1,7,-1
 270 182 l 1,8,-1
 1238 182 l 1,9,-1
 1238 0 l 1,0,-1
991 1972 m 1,10,-1
 762 1680 l 1,11,-1
 563 1680 l 1,12,-1
 335 1972 l 1,13,-1
 545 1972 l 1,14,-1
 662 1796 l 1,15,-1
 781 1972 l 1,16,-1
 991 1972 l 1,10,-1
EndSplineSet
EndChar

StartChar: zcaron
Encoding: 198 382 200
Width: 1061
GlyphClass: 2
Flags: W
LayerCount: 2
Fore
SplineSet
1017 0 m 1,0,-1
 43 0 l 1,1,-1
 43 166 l 1,2,-1
 726 934 l 1,3,-1
 83 934 l 1,4,-1
 83 1100 l 1,5,-1
 982 1100 l 1,6,-1
 982 934 l 1,7,-1
 297 166 l 1,8,-1
 1017 166 l 1,9,-1
 1017 0 l 1,0,-1
862 1544 m 1,10,-1
 633 1253 l 1,11,-1
 435 1253 l 1,12,-1
 206 1544 l 1,13,-1
 416 1544 l 1,14,-1
 533 1369 l 1,15,-1
 652 1544 l 1,16,-1
 862 1544 l 1,10,-1
EndSplineSet
EndChar

StartChar: florin
Encoding: 199 402 201
Width: 1181
GlyphClass: 2
Flags: W
LayerCount: 2
Fore
SplineSet
1093 1328 m 1,0,1
 1048 1340 1048 1340 1010 1345.5 c 128,-1,2
 972 1351 972 1351 934 1351 c 0,3,4
 908 1351 908 1351 888.5 1347 c 128,-1,5
 869 1343 869 1343 853.5 1325.5 c 128,-1,6
 838 1308 838 1308 826 1275.5 c 128,-1,7
 814 1243 814 1243 802 1185 c 2,8,-1
 781 1077 l 1,9,-1
 991 1077 l 1,10,-1
 968 934 l 1,11,-1
 755 934 l 1,12,-1
 559 -176 l 2,13,14
 533 -319 533 -319 466 -382.5 c 128,-1,15
 399 -446 399 -446 280 -446 c 0,16,17
 167 -446 167 -446 67 -425 c 1,18,-1
 67 -260 l 1,19,20
 182 -283 182 -283 242 -283 c 0,21,22
 277 -283 277 -283 298.5 -274.5 c 128,-1,23
 320 -266 320 -266 333.5 -247.5 c 128,-1,24
 347 -229 347 -229 356 -198 c 128,-1,25
 365 -167 365 -167 373 -123 c 2,26,-1
 559 934 l 1,27,-1
 350 934 l 1,28,-1
 373 1077 l 1,29,-1
 583 1077 l 1,30,-1
 606 1218 l 2,31,32
 621 1310 621 1310 647.5 1370 c 128,-1,33
 674 1430 674 1430 710 1464.5 c 128,-1,34
 746 1499 746 1499 794 1512.5 c 128,-1,35
 842 1526 842 1526 901 1526 c 0,36,37
 955 1526 955 1526 1003 1522.5 c 128,-1,38
 1051 1519 1051 1519 1093 1510 c 1,39,-1
 1093 1328 l 1,0,1
EndSplineSet
EndChar

StartChar: circumflex
Encoding: 200 710 202
Width: 837
GlyphClass: 2
Flags: W
LayerCount: 2
Fore
SplineSet
746 1253 m 1,0,-1
 536 1253 l 1,1,-1
 418 1429 l 1,2,-1
 300 1253 l 1,3,-1
 90 1253 l 1,4,-1
 319 1544 l 1,5,-1
 518 1544 l 1,6,-1
 746 1253 l 1,0,-1
EndSplineSet
EndChar

StartChar: caron
Encoding: 201 711 203
Width: 837
GlyphClass: 2
Flags: W
LayerCount: 2
Fore
SplineSet
518 1253 m 1,0,-1
 319 1253 l 1,1,-1
 90 1544 l 1,2,-1
 300 1544 l 1,3,-1
 418 1368 l 1,4,-1
 536 1544 l 1,5,-1
 746 1544 l 1,6,-1
 518 1253 l 1,0,-1
EndSplineSet
EndChar

StartChar: breve
Encoding: 202 728 204
AltUni2: 00200c.ffffffff.0
Width: 0
GlyphClass: 2
Flags: W
LayerCount: 2
Fore
SplineSet
31 -249 m 1,0,-1
 -31 -249 l 1,1,-1
 -31 1427 l 1,2,-1
 31 1427 l 1,3,-1
 31 -249 l 1,0,-1
EndSplineSet
EndChar

StartChar: dotaccent
Encoding: 203 729 205
AltUni2: 00200d.ffffffff.0
Width: 0
GlyphClass: 2
Flags: W
LayerCount: 2
Fore
SplineSet
197 1233 m 1,0,-1
 153 1190 l 1,1,-1
 31 1311 l 1,2,-1
 31 -249 l 1,3,-1
 -31 -249 l 1,4,-1
 -31 1311 l 1,5,-1
 -153 1190 l 1,6,-1
 -197 1233 l 1,7,-1
 -43 1386 l 1,8,-1
 -197 1536 l 1,9,-1
 -153 1580 l 1,10,-1
 0 1427 l 1,11,-1
 153 1580 l 1,12,-1
 197 1536 l 1,13,-1
 43 1386 l 1,14,-1
 197 1233 l 1,0,-1
EndSplineSet
EndChar

StartChar: ring
Encoding: 204 730 206
Width: 708
GlyphClass: 2
Flags: W
LayerCount: 2
Fore
SplineSet
355 1596 m 0,0,1
 392 1596 392 1596 425.5 1581 c 128,-1,2
 459 1566 459 1566 485 1540 c 128,-1,3
 511 1514 511 1514 526 1480 c 128,-1,4
 541 1446 541 1446 541 1406 c 0,5,6
 541 1367 541 1367 526 1332.5 c 128,-1,7
 511 1298 511 1298 485 1273 c 128,-1,8
 459 1248 459 1248 425.5 1233 c 128,-1,9
 392 1218 392 1218 355 1218 c 0,10,11
 316 1218 316 1218 282 1233 c 128,-1,12
 248 1248 248 1248 223 1273 c 128,-1,13
 198 1298 198 1298 183 1332.5 c 128,-1,14
 168 1367 168 1367 168 1406 c 0,15,16
 168 1446 168 1446 183 1480 c 128,-1,17
 198 1514 198 1514 223 1540 c 128,-1,18
 248 1566 248 1566 282 1581 c 128,-1,19
 316 1596 316 1596 355 1596 c 0,0,1
355 1294 m 0,20,21
 374 1294 374 1294 394 1302 c 128,-1,22
 414 1310 414 1310 429.5 1325 c 128,-1,23
 445 1340 445 1340 455 1360.5 c 128,-1,24
 465 1381 465 1381 465 1406 c 0,25,26
 465 1429 465 1429 456 1449 c 128,-1,27
 447 1469 447 1469 432 1484 c 128,-1,28
 417 1499 417 1499 396.5 1508 c 128,-1,29
 376 1517 376 1517 355 1517 c 0,30,31
 314 1517 314 1517 279.5 1488.5 c 128,-1,32
 245 1460 245 1460 245 1406 c 0,33,34
 245 1380 245 1380 254 1360 c 128,-1,35
 263 1340 263 1340 279 1325 c 128,-1,36
 295 1310 295 1310 315 1302 c 128,-1,37
 335 1294 335 1294 355 1294 c 0,20,21
EndSplineSet
EndChar

StartChar: tilde
Encoding: 205 732 207
Width: 875
GlyphClass: 2
Flags: W
LayerCount: 2
Fore
SplineSet
785 1522 m 1,0,1
 785 1409 785 1409 728 1346.5 c 128,-1,2
 671 1284 671 1284 576 1284 c 0,3,4
 555 1284 555 1284 512.5 1297.5 c 128,-1,5
 470 1311 470 1311 427 1328 c 0,6,7
 383 1344 383 1344 346.5 1357.5 c 128,-1,8
 310 1371 310 1371 300 1371 c 0,9,10
 236 1371 236 1371 227 1281 c 1,11,-1
 90 1281 l 1,12,13
 90 1390 90 1390 148 1453.5 c 128,-1,14
 206 1517 206 1517 300 1517 c 0,15,16
 325 1517 325 1517 367 1504 c 128,-1,17
 409 1491 409 1491 452.5 1475 c 128,-1,18
 496 1459 496 1459 531 1446 c 256,19,20
 566 1433 566 1433 576 1433 c 0,21,22
 641 1433 641 1433 649 1522 c 1,23,-1
 785 1522 l 1,0,1
EndSplineSet
EndChar

StartChar: uni0951
Encoding: 206 2385 208
Width: 0
GlyphClass: 2
Flags: W
LayerCount: 2
Fore
SplineSet
-415 1022 m 1,0,-1
 -552 1022 l 1,1,-1
 -552 2006 l 1,2,-1
 -415 2006 l 1,3,-1
 -415 1022 l 1,0,-1
EndSplineSet
EndChar

StartChar: uni0952
Encoding: 207 2386 209
Width: 0
GlyphClass: 2
Flags: W
LayerCount: 2
Fore
SplineSet
14 -641 m 1,0,-1
 -1359 -641 l 1,1,-1
 -1359 -515 l 1,2,-1
 14 -515 l 1,3,-1
 14 -641 l 1,0,-1
EndSplineSet
EndChar

StartChar: uni0964
Encoding: 208 2404 210
Width: 1221
GlyphClass: 2
Flags: W
LayerCount: 2
Fore
SplineSet
847 -153 m 1,0,-1
 595 -153 l 1,1,-1
 595 1986 l 1,2,-1
 847 1986 l 1,3,-1
 847 -153 l 1,0,-1
EndSplineSet
EndChar

StartChar: uni0965
Encoding: 209 2405 211
Width: 1793
GlyphClass: 2
Flags: W
LayerCount: 2
Fore
SplineSet
1419 -153 m 1,0,-1
 1167 -153 l 1,1,-1
 1167 1986 l 1,2,-1
 1419 1986 l 1,3,-1
 1419 -153 l 1,0,-1
847 -153 m 1,4,-1
 595 -153 l 1,5,-1
 595 1986 l 1,6,-1
 847 1986 l 1,7,-1
 847 -153 l 1,4,-1
EndSplineSet
EndChar

StartChar: uni0D02
Encoding: 210 3330 212
Width: 1201
GlyphClass: 2
Flags: W
LayerCount: 2
Fore
SplineSet
1080 456 m 256,0,1
 1080 359 1080 359 1041 272.5 c 128,-1,2
 1002 186 1002 186 937 121 c 128,-1,3
 872 56 872 56 785 17.5 c 128,-1,4
 698 -21 698 -21 601 -21 c 0,5,6
 505 -21 505 -21 418.5 16.5 c 128,-1,7
 332 54 332 54 266 119 c 128,-1,8
 200 184 200 184 161 270.5 c 128,-1,9
 122 357 122 357 122 456 c 0,10,11
 122 556 122 556 160.5 643.5 c 128,-1,12
 199 731 199 731 264.5 796.5 c 128,-1,13
 330 862 330 862 416.5 900 c 128,-1,14
 503 938 503 938 601 938 c 0,15,16
 698 938 698 938 785 899.5 c 128,-1,17
 872 861 872 861 937 795 c 128,-1,18
 1002 729 1002 729 1041 641 c 128,-1,19
 1080 553 1080 553 1080 456 c 256,0,1
909 456 m 0,20,21
 909 519 909 519 884 575.5 c 128,-1,22
 859 632 859 632 816.5 674 c 128,-1,23
 774 716 774 716 718 741 c 128,-1,24
 662 766 662 766 601 766 c 0,25,26
 536 766 536 766 479.5 740.5 c 128,-1,27
 423 715 423 715 381 672 c 128,-1,28
 339 629 339 629 314.5 572.5 c 128,-1,29
 290 516 290 516 290 456 c 256,30,31
 290 396 290 396 314.5 340.5 c 128,-1,32
 339 285 339 285 381 242.5 c 128,-1,33
 423 200 423 200 479.5 175 c 128,-1,34
 536 150 536 150 601 150 c 0,35,36
 662 150 662 150 718 175 c 128,-1,37
 774 200 774 200 816.5 241.5 c 128,-1,38
 859 283 859 283 884 339 c 128,-1,39
 909 395 909 395 909 456 c 0,20,21
EndSplineSet
EndChar

StartChar: uni0D03
Encoding: 211 3331 213
Width: 792
GlyphClass: 2
Flags: W
LayerCount: 2
Fore
SplineSet
671 1067 m 0,0,1
 671 1012 671 1012 649.5 962 c 128,-1,2
 628 912 628 912 590.5 874.5 c 128,-1,3
 553 837 553 837 503 814 c 128,-1,4
 453 791 453 791 396 791 c 0,5,6
 340 791 340 791 290 813 c 128,-1,7
 240 835 240 835 203 873 c 128,-1,8
 166 911 166 911 144 961 c 128,-1,9
 122 1011 122 1011 122 1067 c 256,10,11
 122 1123 122 1123 144 1172 c 128,-1,12
 166 1221 166 1221 203 1259 c 128,-1,13
 240 1297 240 1297 290 1319 c 128,-1,14
 340 1341 340 1341 396 1341 c 0,15,16
 453 1341 453 1341 503 1318.5 c 128,-1,17
 553 1296 553 1296 590.5 1258 c 128,-1,18
 628 1220 628 1220 649.5 1170 c 128,-1,19
 671 1120 671 1120 671 1067 c 0,0,1
671 253 m 0,20,21
 671 199 671 199 649.5 149.5 c 128,-1,22
 628 100 628 100 590.5 62 c 128,-1,23
 553 24 553 24 503 1.5 c 128,-1,24
 453 -21 453 -21 396 -21 c 0,25,26
 340 -21 340 -21 290 1 c 128,-1,27
 240 23 240 23 203 60 c 128,-1,28
 166 97 166 97 144 147 c 128,-1,29
 122 197 122 197 122 253 c 256,30,31
 122 309 122 309 144 359 c 128,-1,32
 166 409 166 409 203 446 c 128,-1,33
 240 483 240 483 290 505.5 c 128,-1,34
 340 528 340 528 396 528 c 0,35,36
 453 528 453 528 503 505 c 128,-1,37
 553 482 553 482 590.5 444 c 128,-1,38
 628 406 628 406 649.5 356 c 128,-1,39
 671 306 671 306 671 253 c 0,20,21
499 1067 m 0,40,41
 499 1108 499 1108 468.5 1138 c 128,-1,42
 438 1168 438 1168 396 1168 c 0,43,44
 356 1168 356 1168 324.5 1137.5 c 128,-1,45
 293 1107 293 1107 293 1067 c 0,46,47
 293 1045 293 1045 301.5 1026.5 c 128,-1,48
 310 1008 310 1008 324.5 994.5 c 128,-1,49
 339 981 339 981 357.5 972.5 c 128,-1,50
 376 964 376 964 396 964 c 256,51,52
 416 964 416 964 434.5 972.5 c 128,-1,53
 453 981 453 981 467.5 994.5 c 128,-1,54
 482 1008 482 1008 490.5 1026.5 c 128,-1,55
 499 1045 499 1045 499 1067 c 0,40,41
499 253 m 0,56,57
 499 295 499 295 468.5 325.5 c 128,-1,58
 438 356 438 356 396 356 c 0,59,60
 376 356 376 356 357.5 347.5 c 128,-1,61
 339 339 339 339 324.5 325.5 c 128,-1,62
 310 312 310 312 301.5 293.5 c 128,-1,63
 293 275 293 275 293 253 c 0,64,65
 293 213 293 213 324.5 182.5 c 128,-1,66
 356 152 356 152 396 152 c 0,67,68
 438 152 438 152 468.5 182 c 128,-1,69
 499 212 499 212 499 253 c 0,56,57
EndSplineSet
EndChar

StartChar: uni0D05
Encoding: 212 3333 214
Width: 3014
GlyphClass: 2
Flags: W
LayerCount: 2
Fore
SplineSet
2893 593 m 0,0,1
 2893 466 2893 466 2861 354.5 c 128,-1,2
 2829 243 2829 243 2771 159.5 c 128,-1,3
 2713 76 2713 76 2631.5 27.5 c 128,-1,4
 2550 -21 2550 -21 2451 -21 c 0,5,6
 2364 -21 2364 -21 2288 16.5 c 128,-1,7
 2212 54 2212 54 2155.5 118 c 128,-1,8
 2099 182 2099 182 2067 266 c 128,-1,9
 2035 350 2035 350 2035 443 c 0,10,11
 2035 549 2035 549 2080 647.5 c 128,-1,12
 2125 746 2125 746 2199.5 821.5 c 128,-1,13
 2274 897 2274 897 2369.5 942 c 128,-1,14
 2465 987 2465 987 2568 987 c 2,15,-1
 2588 987 l 2,16,17
 2603 987 2603 987 2607 985 c 1,18,19
 2547 1077 2547 1077 2459 1122.5 c 128,-1,20
 2371 1168 2371 1168 2279 1168 c 0,21,22
 2191 1168 2191 1168 2115 1124.5 c 128,-1,23
 2039 1081 2039 1081 1982 1007.5 c 128,-1,24
 1925 934 1925 934 1892.5 836.5 c 128,-1,25
 1860 739 1860 739 1860 633 c 2,26,-1
 1860 0 l 1,27,-1
 1689 0 l 1,28,-1
 1689 633 l 2,29,30
 1689 741 1689 741 1664.5 831 c 128,-1,31
 1640 921 1640 921 1593 989 c 128,-1,32
 1546 1057 1546 1057 1477.5 1100.5 c 128,-1,33
 1409 1144 1409 1144 1320 1160 c 1,34,35
 1419 1045 1419 1045 1419 885 c 0,36,37
 1419 812 1419 812 1394.5 758.5 c 128,-1,38
 1370 705 1370 705 1310 666 c 1,39,40
 1346 649 1346 649 1375 619 c 128,-1,41
 1404 589 1404 589 1425.5 550.5 c 128,-1,42
 1447 512 1447 512 1458.5 468.5 c 128,-1,43
 1470 425 1470 425 1470 382 c 0,44,45
 1470 299 1470 299 1438 226 c 128,-1,46
 1406 153 1406 153 1351.5 98 c 128,-1,47
 1297 43 1297 43 1222.5 11 c 128,-1,48
 1148 -21 1148 -21 1065 -21 c 0,49,50
 947 -21 947 -21 845.5 31 c 128,-1,51
 744 83 744 83 670 172.5 c 128,-1,52
 596 262 596 262 554.5 380.5 c 128,-1,53
 513 499 513 499 513 632 c 0,54,55
 513 718 513 718 529.5 794.5 c 128,-1,56
 546 871 546 871 583 948 c 0,57,58
 612 1008 612 1008 648.5 1059.5 c 128,-1,59
 685 1111 685 1111 732 1155 c 1,60,61
 635 1134 635 1134 554 1082 c 128,-1,62
 473 1030 473 1030 415 954.5 c 128,-1,63
 357 879 357 879 326 785 c 128,-1,64
 295 691 295 691 295 583 c 0,65,66
 295 322 295 322 489 136 c 1,67,-1
 385 -3 l 1,68,69
 122 212 122 212 122 591 c 0,70,71
 122 752 122 752 179 890 c 128,-1,72
 236 1028 236 1028 337 1128 c 128,-1,73
 438 1228 438 1228 574.5 1284.5 c 128,-1,74
 711 1341 711 1341 871 1341 c 0,75,76
 917 1341 917 1341 959 1337 c 128,-1,77
 1001 1333 1001 1333 1042 1321 c 1,78,79
 1084 1331 1084 1331 1128.5 1336 c 128,-1,80
 1173 1341 1173 1341 1221 1341 c 0,81,82
 1589 1341 1589 1341 1770 1021 c 1,83,84
 1800 1088 1800 1088 1854.5 1146.5 c 128,-1,85
 1909 1205 1909 1205 1977 1248 c 128,-1,86
 2045 1291 2045 1291 2120.5 1316 c 128,-1,87
 2196 1341 2196 1341 2269 1341 c 0,88,89
 2405 1341 2405 1341 2519.5 1282 c 128,-1,90
 2634 1223 2634 1223 2717 1120.5 c 128,-1,91
 2800 1018 2800 1018 2846.5 882 c 128,-1,92
 2893 746 2893 746 2893 593 c 0,0,1
1300 362 m 256,93,94
 1300 405 1300 405 1279 442 c 128,-1,95
 1258 479 1258 479 1219 506 c 128,-1,96
 1180 533 1180 533 1122 549 c 128,-1,97
 1064 565 1064 565 991 565 c 1,98,-1
 991 738 l 1,99,100
 1247 738 1247 738 1247 891 c 0,101,102
 1247 977 1247 977 1191 1042 c 128,-1,103
 1135 1107 1135 1107 1037 1140 c 1,104,105
 957 1114 957 1114 892 1063 c 128,-1,106
 827 1012 827 1012 781 944.5 c 128,-1,107
 735 877 735 877 710 796.5 c 128,-1,108
 685 716 685 716 685 632 c 0,109,110
 685 533 685 533 711.5 446 c 128,-1,111
 738 359 738 359 786.5 294 c 128,-1,112
 835 229 835 229 903.5 190.5 c 128,-1,113
 972 152 972 152 1057 152 c 0,114,115
 1105 152 1105 152 1149 168 c 128,-1,116
 1193 184 1193 184 1226.5 213 c 128,-1,117
 1260 242 1260 242 1280 280.5 c 128,-1,118
 1300 319 1300 319 1300 362 c 256,93,94
2710 579 m 0,119,120
 2710 635 2710 635 2703.5 687 c 128,-1,121
 2697 739 2697 739 2681 786 c 1,122,123
 2657 794 2657 794 2631 798 c 128,-1,124
 2605 802 2605 802 2575 802 c 0,125,126
 2504 802 2504 802 2437.5 772 c 128,-1,127
 2371 742 2371 742 2319.5 692.5 c 128,-1,128
 2268 643 2268 643 2237 578 c 128,-1,129
 2206 513 2206 513 2206 443 c 0,130,131
 2206 388 2206 388 2222.5 335.5 c 128,-1,132
 2239 283 2239 283 2269 242.5 c 128,-1,133
 2299 202 2299 202 2339.5 177 c 128,-1,134
 2380 152 2380 152 2427 152 c 0,135,136
 2491 152 2491 152 2543 185.5 c 128,-1,137
 2595 219 2595 219 2632.5 277.5 c 128,-1,138
 2670 336 2670 336 2690 413 c 128,-1,139
 2710 490 2710 490 2710 579 c 0,119,120
EndSplineSet
EndChar

StartChar: uni0D06
Encoding: 213 3334 215
Width: 3286
GlyphClass: 2
Flags: W
LayerCount: 2
Fore
SplineSet
3165 263 m 0,0,1
 3165 109 3165 109 3113.5 -19 c 128,-1,2
 3062 -147 3062 -147 2969.5 -239.5 c 128,-1,3
 2877 -332 2877 -332 2749 -383.5 c 128,-1,4
 2621 -435 2621 -435 2468 -435 c 0,5,6
 2214 -435 2214 -435 2022 -273 c 1,7,-1
 2125 -143 l 1,8,9
 2282 -262 2282 -262 2477 -262 c 0,10,11
 2590 -262 2590 -262 2685.5 -222 c 128,-1,12
 2781 -182 2781 -182 2850.5 -109.5 c 128,-1,13
 2920 -37 2920 -37 2959.5 61.5 c 128,-1,14
 2999 160 2999 160 2999 276 c 0,15,16
 2999 453 2999 453 2891 615 c 1,17,-1
 2893 593 l 1,18,19
 2893 466 2893 466 2861 354.5 c 128,-1,20
 2829 243 2829 243 2771 159.5 c 128,-1,21
 2713 76 2713 76 2631.5 27.5 c 128,-1,22
 2550 -21 2550 -21 2451 -21 c 0,23,24
 2364 -21 2364 -21 2288 16.5 c 128,-1,25
 2212 54 2212 54 2155.5 118 c 128,-1,26
 2099 182 2099 182 2067 266 c 128,-1,27
 2035 350 2035 350 2035 443 c 0,28,29
 2035 549 2035 549 2080 647.5 c 128,-1,30
 2125 746 2125 746 2199.5 821.5 c 128,-1,31
 2274 897 2274 897 2369.5 942 c 128,-1,32
 2465 987 2465 987 2568 988 c 0,33,34
 2603 987 2603 987 2607 985 c 1,35,36
 2547 1077 2547 1077 2459 1122.5 c 128,-1,37
 2371 1168 2371 1168 2279 1168 c 0,38,39
 2191 1168 2191 1168 2115 1124.5 c 128,-1,40
 2039 1081 2039 1081 1982 1007.5 c 128,-1,41
 1925 934 1925 934 1892.5 836.5 c 128,-1,42
 1860 739 1860 739 1860 633 c 2,43,-1
 1860 0 l 1,44,-1
 1689 0 l 1,45,-1
 1689 633 l 2,46,47
 1689 741 1689 741 1664.5 831 c 128,-1,48
 1640 921 1640 921 1593 989 c 128,-1,49
 1546 1057 1546 1057 1477.5 1100.5 c 128,-1,50
 1409 1144 1409 1144 1320 1160 c 1,51,52
 1419 1045 1419 1045 1419 885 c 0,53,54
 1419 812 1419 812 1394.5 758.5 c 128,-1,55
 1370 705 1370 705 1310 666 c 1,56,57
 1346 649 1346 649 1375 619 c 128,-1,58
 1404 589 1404 589 1425.5 550.5 c 128,-1,59
 1447 512 1447 512 1458.5 468.5 c 128,-1,60
 1470 425 1470 425 1470 382 c 0,61,62
 1470 299 1470 299 1438 226 c 128,-1,63
 1406 153 1406 153 1351.5 98 c 128,-1,64
 1297 43 1297 43 1222.5 11 c 128,-1,65
 1148 -21 1148 -21 1065 -21 c 0,66,67
 947 -21 947 -21 845.5 31 c 128,-1,68
 744 83 744 83 670 172.5 c 128,-1,69
 596 262 596 262 554.5 380.5 c 128,-1,70
 513 499 513 499 513 632 c 0,71,72
 513 718 513 718 529.5 794.5 c 128,-1,73
 546 871 546 871 583 948 c 0,74,75
 612 1008 612 1008 648.5 1059.5 c 128,-1,76
 685 1111 685 1111 732 1155 c 1,77,78
 635 1134 635 1134 554 1082 c 128,-1,79
 473 1030 473 1030 415 954.5 c 128,-1,80
 357 879 357 879 326 785 c 128,-1,81
 295 691 295 691 295 583 c 0,82,83
 295 322 295 322 489 136 c 1,84,-1
 385 -3 l 1,85,86
 122 212 122 212 122 591 c 0,87,88
 122 752 122 752 179 890 c 128,-1,89
 236 1028 236 1028 337 1128 c 128,-1,90
 438 1228 438 1228 574.5 1284.5 c 128,-1,91
 711 1341 711 1341 871 1341 c 0,92,93
 917 1341 917 1341 959 1337 c 128,-1,94
 1001 1333 1001 1333 1042 1321 c 1,95,96
 1084 1331 1084 1331 1128.5 1336 c 128,-1,97
 1173 1341 1173 1341 1221 1341 c 0,98,99
 1589 1341 1589 1341 1770 1021 c 1,100,101
 1800 1088 1800 1088 1854.5 1146.5 c 128,-1,102
 1909 1205 1909 1205 1977 1248 c 128,-1,103
 2045 1291 2045 1291 2120.5 1316 c 128,-1,104
 2196 1341 2196 1341 2269 1341 c 0,105,106
 2370 1341 2370 1341 2457.5 1308.5 c 128,-1,107
 2545 1276 2545 1276 2618 1218 c 128,-1,108
 2691 1160 2691 1160 2747.5 1078.5 c 128,-1,109
 2804 997 2804 997 2840 901 c 1,110,111
 2919 849 2919 849 2979.5 778.5 c 128,-1,112
 3040 708 3040 708 3081 624.5 c 128,-1,113
 3122 541 3122 541 3143.5 449 c 128,-1,114
 3165 357 3165 357 3165 263 c 0,0,1
1300 362 m 256,115,116
 1300 405 1300 405 1279 442 c 128,-1,117
 1258 479 1258 479 1219 506 c 128,-1,118
 1180 533 1180 533 1122 549 c 128,-1,119
 1064 565 1064 565 991 565 c 1,120,-1
 991 738 l 1,121,122
 1247 738 1247 738 1247 891 c 0,123,124
 1247 977 1247 977 1191 1042 c 128,-1,125
 1135 1107 1135 1107 1037 1140 c 1,126,127
 957 1114 957 1114 892 1063 c 128,-1,128
 827 1012 827 1012 781 944.5 c 128,-1,129
 735 877 735 877 710 796.5 c 128,-1,130
 685 716 685 716 685 632 c 0,131,132
 685 533 685 533 711.5 446 c 128,-1,133
 738 359 738 359 786.5 294 c 128,-1,134
 835 229 835 229 903.5 190.5 c 128,-1,135
 972 152 972 152 1057 152 c 0,136,137
 1105 152 1105 152 1149 168 c 128,-1,138
 1193 184 1193 184 1226.5 213 c 128,-1,139
 1260 242 1260 242 1280 280.5 c 128,-1,140
 1300 319 1300 319 1300 362 c 256,115,116
2710 579 m 0,141,142
 2710 635 2710 635 2703.5 687 c 128,-1,143
 2697 739 2697 739 2681 786 c 1,144,145
 2657 794 2657 794 2631 798 c 128,-1,146
 2605 802 2605 802 2575 802 c 0,147,148
 2504 802 2504 802 2437.5 772 c 128,-1,149
 2371 742 2371 742 2319.5 692.5 c 128,-1,150
 2268 643 2268 643 2237 578 c 128,-1,151
 2206 513 2206 513 2206 443 c 0,152,153
 2206 388 2206 388 2222.5 335.5 c 128,-1,154
 2239 283 2239 283 2269 242.5 c 128,-1,155
 2299 202 2299 202 2339.5 177 c 128,-1,156
 2380 152 2380 152 2427 152 c 0,157,158
 2491 152 2491 152 2543 185.5 c 128,-1,159
 2595 219 2595 219 2632.5 277.5 c 128,-1,160
 2670 336 2670 336 2690 413 c 128,-1,161
 2710 490 2710 490 2710 579 c 0,141,142
EndSplineSet
EndChar

StartChar: uni0D07
Encoding: 214 3335 216
Width: 2452
GlyphClass: 2
Flags: W
LayerCount: 2
Fore
SplineSet
2331 -469 m 1,0,-1
 2331 -641 l 1,1,-1
 475 -641 l 2,2,3
 122 -641 122 -641 122 -372 c 0,4,5
 122 -109 122 -109 475 -109 c 2,6,-1
 1469 -109 l 2,7,8
 1630 -109 1630 -109 1743 -88 c 128,-1,9
 1856 -67 1856 -67 1932.5 -25 c 128,-1,10
 2009 17 2009 17 2052.5 81.5 c 128,-1,11
 2096 146 2096 146 2119 232.5 c 128,-1,12
 2142 319 2142 319 2148 427.5 c 128,-1,13
 2154 536 2154 536 2154 668 c 0,14,15
 2154 762 2154 762 2125 852 c 128,-1,16
 2096 942 2096 942 2047 1012.5 c 128,-1,17
 1998 1083 1998 1083 1931.5 1125.5 c 128,-1,18
 1865 1168 1865 1168 1790 1168 c 0,19,20
 1709 1168 1709 1168 1633 1121.5 c 128,-1,21
 1557 1075 1557 1075 1498.5 998.5 c 128,-1,22
 1440 922 1440 922 1405 823 c 128,-1,23
 1370 724 1370 724 1370 616 c 2,24,-1
 1370 133 l 1,25,-1
 1194 133 l 1,26,-1
 1194 616 l 2,27,28
 1194 716 1194 716 1171 815 c 128,-1,29
 1148 914 1148 914 1097.5 992.5 c 128,-1,30
 1047 1071 1047 1071 966 1119.5 c 128,-1,31
 885 1168 885 1168 769 1168 c 0,32,33
 669 1168 669 1168 582.5 1124.5 c 128,-1,34
 496 1081 496 1081 432 1008 c 128,-1,35
 368 935 368 935 331.5 840 c 128,-1,36
 295 745 295 745 295 643 c 0,37,38
 295 566 295 566 311 493 c 128,-1,39
 327 420 327 420 363 366 c 1,40,41
 368 430 368 430 395 484.5 c 128,-1,42
 422 539 422 539 467 580 c 128,-1,43
 512 621 512 621 572 643.5 c 128,-1,44
 632 666 632 666 704 666 c 0,45,46
 774 666 774 666 836 639 c 128,-1,47
 898 612 898 612 945 565 c 128,-1,48
 992 518 992 518 1019.5 454 c 128,-1,49
 1047 390 1047 390 1047 319 c 0,50,51
 1047 252 1047 252 1018.5 190.5 c 128,-1,52
 990 129 990 129 942 81.5 c 128,-1,53
 894 34 894 34 831 6.5 c 128,-1,54
 768 -21 768 -21 699 -21 c 0,55,56
 575 -21 575 -21 469 36.5 c 128,-1,57
 363 94 363 94 286 191.5 c 128,-1,58
 209 289 209 289 165.5 418.5 c 128,-1,59
 122 548 122 548 122 691 c 0,60,61
 122 817 122 817 176 934.5 c 128,-1,62
 230 1052 230 1052 321.5 1142.5 c 128,-1,63
 413 1233 413 1233 532 1287 c 128,-1,64
 651 1341 651 1341 779 1341 c 0,65,66
 965 1341 965 1341 1089 1241 c 128,-1,67
 1213 1141 1213 1141 1278 1015 c 1,68,69
 1351 1155 1351 1155 1477.5 1248 c 128,-1,70
 1604 1341 1604 1341 1769 1341 c 0,71,72
 1898 1341 1898 1341 2001.5 1288.5 c 128,-1,73
 2105 1236 2105 1236 2178 1145 c 128,-1,74
 2251 1054 2251 1054 2291 931 c 128,-1,75
 2331 808 2331 808 2331 668 c 0,76,77
 2331 509 2331 509 2319 377.5 c 128,-1,78
 2307 246 2307 246 2274.5 141 c 128,-1,79
 2242 36 2242 36 2183.5 -43 c 128,-1,80
 2125 -122 2125 -122 2031.5 -174.5 c 128,-1,81
 1938 -227 1938 -227 1805.5 -253.5 c 128,-1,82
 1673 -280 1673 -280 1491 -280 c 2,83,-1
 456 -280 l 2,84,85
 389 -280 389 -280 342 -305 c 128,-1,86
 295 -330 295 -330 295 -372 c 0,87,88
 295 -469 295 -469 456 -469 c 2,89,-1
 2331 -469 l 1,0,-1
874 322 m 0,90,91
 874 356 874 356 860.5 387.5 c 128,-1,92
 847 419 847 419 823 442.5 c 128,-1,93
 799 466 799 466 768.5 479.5 c 128,-1,94
 738 493 738 493 704 493 c 0,95,96
 669 493 669 493 637.5 479.5 c 128,-1,97
 606 466 606 466 582.5 442.5 c 128,-1,98
 559 419 559 419 545.5 387.5 c 128,-1,99
 532 356 532 356 532 322 c 0,100,101
 532 230 532 230 549 209 c 0,102,103
 573 179 573 179 612.5 165.5 c 128,-1,104
 652 152 652 152 704 152 c 0,105,106
 736 152 736 152 767 165.5 c 128,-1,107
 798 179 798 179 821.5 202 c 128,-1,108
 845 225 845 225 859.5 255.5 c 128,-1,109
 874 286 874 286 874 322 c 0,90,91
EndSplineSet
EndChar

StartChar: uni0D09
Encoding: 216 3337 218
Width: 1783
GlyphClass: 2
Flags: W
LayerCount: 2
Fore
SplineSet
1662 -473 m 1,0,-1
 1662 -641 l 1,1,-1
 493 -641 l 2,2,3
 408 -641 408 -641 338.5 -621 c 128,-1,4
 269 -601 269 -601 221 -564.5 c 128,-1,5
 173 -528 173 -528 147.5 -478 c 128,-1,6
 122 -428 122 -428 122 -368 c 0,7,8
 122 -302 122 -302 147.5 -253 c 128,-1,9
 173 -204 173 -204 219 -172 c 128,-1,10
 265 -140 265 -140 330 -124.5 c 128,-1,11
 395 -109 395 -109 475 -109 c 2,12,-1
 941 -109 l 2,13,14
 1111 -109 1111 -109 1217.5 -74.5 c 128,-1,15
 1324 -40 1324 -40 1383.5 37 c 128,-1,16
 1443 114 1443 114 1464.5 238 c 128,-1,17
 1486 362 1486 362 1486 541 c 0,18,19
 1486 671 1486 671 1438 785 c 128,-1,20
 1390 899 1390 899 1308.5 984.5 c 128,-1,21
 1227 1070 1227 1070 1120.5 1119 c 128,-1,22
 1014 1168 1014 1168 897 1168 c 0,23,24
 769 1168 769 1168 659 1113 c 128,-1,25
 549 1058 549 1058 468.5 968 c 128,-1,26
 388 878 388 878 341.5 762 c 128,-1,27
 295 646 295 646 293 525 c 1,28,29
 337 589 337 589 412.5 627.5 c 128,-1,30
 488 666 488 666 566 666 c 0,31,32
 635 666 635 666 698 638.5 c 128,-1,33
 761 611 761 611 809 563.5 c 128,-1,34
 857 516 857 516 884.5 454 c 128,-1,35
 912 392 912 392 912 322 c 256,36,37
 912 252 912 252 884.5 189.5 c 128,-1,38
 857 127 857 127 809 80 c 128,-1,39
 761 33 761 33 698.5 6 c 128,-1,40
 636 -21 636 -21 568 -21 c 0,41,42
 475 -21 475 -21 393.5 26.5 c 128,-1,43
 312 74 312 74 252 153.5 c 128,-1,44
 192 233 192 233 157 335.5 c 128,-1,45
 122 438 122 438 122 548 c 0,46,47
 122 711 122 711 177 854.5 c 128,-1,48
 232 998 232 998 333.5 1106.5 c 128,-1,49
 435 1215 435 1215 578 1278 c 128,-1,50
 721 1341 721 1341 897 1341 c 0,51,52
 1070 1341 1070 1341 1210 1278 c 128,-1,53
 1350 1215 1350 1215 1450 1106.5 c 128,-1,54
 1550 998 1550 998 1604.5 852 c 128,-1,55
 1659 706 1659 706 1659 541 c 0,56,57
 1659 429 1659 429 1650.5 325.5 c 128,-1,58
 1642 222 1642 222 1614.5 130.5 c 128,-1,59
 1587 39 1587 39 1538.5 -36.5 c 128,-1,60
 1490 -112 1490 -112 1410.5 -166 c 128,-1,61
 1331 -220 1331 -220 1215.5 -250 c 128,-1,62
 1100 -280 1100 -280 941 -280 c 2,63,-1
 446 -280 l 2,64,65
 369 -280 369 -280 333 -299.5 c 128,-1,66
 297 -319 297 -319 297 -368 c 0,67,68
 297 -412 297 -412 343.5 -442.5 c 128,-1,69
 390 -473 390 -473 485 -473 c 2,70,-1
 1662 -473 l 1,0,-1
738 322 m 0,71,72
 738 356 738 356 723.5 387 c 128,-1,73
 709 418 709 418 685.5 441.5 c 128,-1,74
 662 465 662 465 631.5 479 c 128,-1,75
 601 493 601 493 566 493 c 256,76,77
 531 493 531 493 498 477.5 c 128,-1,78
 465 462 465 462 439 436 c 128,-1,79
 413 410 413 410 397.5 378.5 c 128,-1,80
 382 347 382 347 380 317 c 1,81,82
 389 287 389 287 407 257 c 128,-1,83
 425 227 425 227 450 203.5 c 128,-1,84
 475 180 475 180 504 166 c 128,-1,85
 533 152 533 152 566 152 c 0,86,87
 601 152 601 152 631.5 165.5 c 128,-1,88
 662 179 662 179 685.5 202.5 c 128,-1,89
 709 226 709 226 723.5 256.5 c 128,-1,90
 738 287 738 287 738 322 c 0,71,72
EndSplineSet
EndChar

StartChar: uni0D0B
Encoding: 218 3339 220
Width: 2208
GlyphClass: 2
Flags: W
LayerCount: 2
Fore
SplineSet
2086 772 m 0,0,1
 2086 525 2086 525 1918 339 c 0,2,3
 1849 265 1849 265 1764 207 c 128,-1,4
 1679 149 1679 149 1576 104 c 1,5,6
 1660 73 1660 73 1729 31 c 128,-1,7
 1798 -11 1798 -11 1846.5 -60.5 c 128,-1,8
 1895 -110 1895 -110 1921.5 -166 c 128,-1,9
 1948 -222 1948 -222 1948 -279 c 0,10,11
 1948 -405 1948 -405 1875 -493 c 128,-1,12
 1802 -581 1802 -581 1684 -636 c 128,-1,13
 1566 -691 1566 -691 1415 -716 c 128,-1,14
 1264 -741 1264 -741 1110 -741 c 0,15,16
 1002 -741 1002 -741 898 -731.5 c 128,-1,17
 794 -722 794 -722 699.5 -701.5 c 128,-1,18
 605 -681 605 -681 525 -646 c 128,-1,19
 445 -611 445 -611 385.5 -560 c 128,-1,20
 326 -509 326 -509 293 -439.5 c 128,-1,21
 260 -370 260 -370 260 -280 c 0,22,23
 260 -223 260 -223 286.5 -168 c 128,-1,24
 313 -113 313 -113 361.5 -63.5 c 128,-1,25
 410 -14 410 -14 479 28 c 128,-1,26
 548 70 548 70 632 100 c 1,27,28
 438 182 438 182 297 335 c 0,29,30
 207 433 207 433 165 539.5 c 128,-1,31
 123 646 123 646 122 762 c 0,32,33
 122 872 122 872 162 976.5 c 128,-1,34
 202 1081 202 1081 269.5 1162 c 128,-1,35
 337 1243 337 1243 429 1292 c 128,-1,36
 521 1341 521 1341 623 1341 c 0,37,38
 695 1341 695 1341 756.5 1314 c 128,-1,39
 818 1287 818 1287 863 1240 c 128,-1,40
 908 1193 908 1193 933 1129 c 128,-1,41
 958 1065 958 1065 958 994 c 0,42,43
 958 925 958 925 929.5 863.5 c 128,-1,44
 901 802 901 802 854 755 c 128,-1,45
 807 708 807 708 744.5 681 c 128,-1,46
 682 654 682 654 616 654 c 0,47,48
 565 654 565 654 517.5 669 c 128,-1,49
 470 684 470 684 429.5 710 c 128,-1,50
 389 736 389 736 357 773.5 c 128,-1,51
 325 811 325 811 303 854 c 1,52,53
 300 832 300 832 298.5 810 c 128,-1,54
 297 788 297 788 297 768 c 0,55,56
 297 636 297 636 364.5 528 c 128,-1,57
 432 420 432 420 545.5 342.5 c 128,-1,58
 659 265 659 265 808.5 222 c 128,-1,59
 958 179 958 179 1124 179 c 0,60,61
 1271 179 1271 179 1402 217 c 128,-1,62
 1533 255 1533 255 1650 333 c 0,63,64
 1780 419 1780 419 1846.5 527.5 c 128,-1,65
 1913 636 1913 636 1913 775 c 2,66,-1
 1913 809 l 2,67,68
 1913 817 1913 817 1912.5 825.5 c 128,-1,69
 1912 834 1912 834 1910 844 c 1,70,71
 1888 801 1888 801 1855 766 c 128,-1,72
 1822 731 1822 731 1782.5 706 c 128,-1,73
 1743 681 1743 681 1699 667.5 c 128,-1,74
 1655 654 1655 654 1607 654 c 0,75,76
 1534 654 1534 654 1471.5 681.5 c 128,-1,77
 1409 709 1409 709 1361.5 757 c 128,-1,78
 1314 805 1314 805 1287 868 c 128,-1,79
 1260 931 1260 931 1260 1002 c 0,80,81
 1260 1071 1260 1071 1287 1132.5 c 128,-1,82
 1314 1194 1314 1194 1360 1240.5 c 128,-1,83
 1406 1287 1406 1287 1466.5 1314 c 128,-1,84
 1527 1341 1527 1341 1594 1341 c 0,85,86
 1695 1341 1695 1341 1784 1293.5 c 128,-1,87
 1873 1246 1873 1246 1940.5 1166.5 c 128,-1,88
 2008 1087 2008 1087 2047 984 c 128,-1,89
 2086 881 2086 881 2086 772 c 0,0,1
1776 -280 m 256,90,91
 1776 -237 1776 -237 1747.5 -199.5 c 128,-1,92
 1719 -162 1719 -162 1670.5 -130.5 c 128,-1,93
 1622 -99 1622 -99 1556 -74.5 c 128,-1,94
 1490 -50 1490 -50 1415 -33 c 128,-1,95
 1340 -16 1340 -16 1260.5 -6 c 128,-1,96
 1181 4 1181 4 1104 6 c 0,97,98
 1028 6 1028 6 948.5 -3.5 c 128,-1,99
 869 -13 869 -13 794 -31 c 128,-1,100
 719 -49 719 -49 653.5 -74 c 128,-1,101
 588 -99 588 -99 538.5 -130.5 c 128,-1,102
 489 -162 489 -162 460.5 -199.5 c 128,-1,103
 432 -237 432 -237 432 -280 c 0,104,105
 432 -336 432 -336 469 -379.5 c 128,-1,106
 506 -423 506 -423 565.5 -454.5 c 128,-1,107
 625 -486 625 -486 699.5 -508.5 c 128,-1,108
 774 -531 774 -531 848 -543.5 c 128,-1,109
 922 -556 922 -556 990 -562 c 128,-1,110
 1058 -568 1058 -568 1104 -568 c 0,111,112
 1180 -568 1180 -568 1259 -558.5 c 128,-1,113
 1338 -549 1338 -549 1413.5 -532 c 128,-1,114
 1489 -515 1489 -515 1554.5 -489 c 128,-1,115
 1620 -463 1620 -463 1669.5 -431.5 c 128,-1,116
 1719 -400 1719 -400 1747.5 -361.5 c 128,-1,117
 1776 -323 1776 -323 1776 -280 c 256,90,91
1603 1168 m 0,118,119
 1569 1168 1569 1168 1538 1154.5 c 128,-1,120
 1507 1141 1507 1141 1483.5 1117.5 c 128,-1,121
 1460 1094 1460 1094 1446.5 1062.5 c 128,-1,122
 1433 1031 1433 1031 1433 997 c 0,123,124
 1433 962 1433 962 1446.5 931.5 c 128,-1,125
 1460 901 1460 901 1483 877.5 c 128,-1,126
 1506 854 1506 854 1537.5 840.5 c 128,-1,127
 1569 827 1569 827 1603 827 c 0,128,129
 1642 827 1642 827 1677 845.5 c 128,-1,130
 1712 864 1712 864 1739 895.5 c 128,-1,131
 1766 927 1766 927 1782 969 c 128,-1,132
 1798 1011 1798 1011 1798 1058 c 1,133,134
 1755 1114 1755 1114 1703.5 1141 c 128,-1,135
 1652 1168 1652 1168 1603 1168 c 0,118,119
785 997 m 0,136,137
 785 1031 785 1031 771.5 1062 c 128,-1,138
 758 1093 758 1093 734.5 1116.5 c 128,-1,139
 711 1140 711 1140 680 1154 c 128,-1,140
 649 1168 649 1168 615 1168 c 0,141,142
 566 1168 566 1168 514 1140.5 c 128,-1,143
 462 1113 462 1113 419 1065 c 1,144,145
 419 1015 419 1015 434.5 972 c 128,-1,146
 450 929 450 929 476.5 896.5 c 128,-1,147
 503 864 503 864 539 845.5 c 128,-1,148
 575 827 575 827 615 827 c 0,149,150
 649 827 649 827 680 840.5 c 128,-1,151
 711 854 711 854 734.5 877.5 c 128,-1,152
 758 901 758 901 771.5 931.5 c 128,-1,153
 785 962 785 962 785 997 c 0,136,137
EndSplineSet
EndChar

StartChar: uni0D0C
Encoding: 219 3340 221
Width: 2334
GlyphClass: 2
Flags: W
LayerCount: 2
Fore
SplineSet
2212 566 m 0,0,1
 2212 439 2212 439 2180.5 331 c 128,-1,2
 2149 223 2149 223 2091 144.5 c 128,-1,3
 2033 66 2033 66 1951.5 22.5 c 128,-1,4
 1870 -21 1870 -21 1770 -21 c 0,5,6
 1682 -21 1682 -21 1610.5 14 c 128,-1,7
 1539 49 1539 49 1488 109 c 128,-1,8
 1437 169 1437 169 1409 250.5 c 128,-1,9
 1381 332 1381 332 1381 425 c 0,10,11
 1381 525 1381 525 1407 618.5 c 128,-1,12
 1433 712 1433 712 1489.5 795.5 c 128,-1,13
 1546 879 1546 879 1634.5 950.5 c 128,-1,14
 1723 1022 1723 1022 1849 1078 c 1,15,16
 1800 1124 1800 1124 1746.5 1146 c 128,-1,17
 1693 1168 1693 1168 1639 1168 c 0,18,19
 1563 1168 1563 1168 1490 1125.5 c 128,-1,20
 1417 1083 1417 1083 1359 1015 c 128,-1,21
 1301 947 1301 947 1266 862.5 c 128,-1,22
 1231 778 1231 778 1231 695 c 2,23,-1
 1231 0 l 1,24,-1
 1058 0 l 1,25,-1
 1058 695 l 2,26,27
 1058 786 1058 786 1027.5 872 c 128,-1,28
 997 958 997 958 945.5 1024 c 128,-1,29
 894 1090 894 1090 825 1129 c 128,-1,30
 756 1168 756 1168 682 1168 c 0,31,32
 599 1168 599 1168 528.5 1121.5 c 128,-1,33
 458 1075 458 1075 405.5 998 c 128,-1,34
 353 921 353 921 324 823 c 128,-1,35
 295 725 295 725 295 622 c 0,36,37
 295 606 295 606 296 587 c 128,-1,38
 297 568 297 568 300 552 c 1,39,40
 346 612 346 612 409 639 c 128,-1,41
 472 666 472 666 553 666 c 0,42,43
 622 666 622 666 685 639 c 128,-1,44
 748 612 748 612 795 565 c 128,-1,45
 842 518 842 518 870.5 455 c 128,-1,46
 899 392 899 392 899 322 c 0,47,48
 899 255 899 255 872 192.5 c 128,-1,49
 845 130 845 130 798.5 83 c 128,-1,50
 752 36 752 36 690 7.5 c 128,-1,51
 628 -21 628 -21 559 -21 c 0,52,53
 460 -21 460 -21 380 28 c 128,-1,54
 300 77 300 77 242 162 c 128,-1,55
 184 247 184 247 153 361.5 c 128,-1,56
 122 476 122 476 122 606 c 0,57,58
 122 746 122 746 164.5 878.5 c 128,-1,59
 207 1011 207 1011 282 1114 c 128,-1,60
 357 1217 357 1217 459.5 1279 c 128,-1,61
 562 1341 562 1341 682 1341 c 0,62,63
 752 1341 752 1341 820.5 1317.5 c 128,-1,64
 889 1294 889 1294 949.5 1251 c 128,-1,65
 1010 1208 1010 1208 1060 1149.5 c 128,-1,66
 1110 1091 1110 1091 1143 1022 c 1,67,68
 1173 1083 1173 1083 1224.5 1140.5 c 128,-1,69
 1276 1198 1276 1198 1340 1242.5 c 128,-1,70
 1404 1287 1404 1287 1478 1314 c 128,-1,71
 1552 1341 1552 1341 1627 1341 c 0,72,73
 1769 1341 1769 1341 1878.5 1277 c 128,-1,74
 1988 1213 1988 1213 2062 1105 c 128,-1,75
 2136 997 2136 997 2174 856.5 c 128,-1,76
 2212 716 2212 716 2212 566 c 0,0,1
1549 425 m 0,77,78
 1549 366 1549 366 1562.5 316 c 128,-1,79
 1576 266 1576 266 1601.5 229.5 c 128,-1,80
 1627 193 1627 193 1663.5 172.5 c 128,-1,81
 1700 152 1700 152 1746 152 c 0,82,83
 1812 152 1812 152 1864 181 c 128,-1,84
 1916 210 1916 210 1952.5 263 c 128,-1,85
 1989 316 1989 316 2009 389.5 c 128,-1,86
 2029 463 2029 463 2029 552 c 0,87,88
 2029 665 2029 665 2010.5 755 c 128,-1,89
 1992 845 1992 845 1961 918 c 1,90,91
 1873 898 1873 898 1798 853 c 128,-1,92
 1723 808 1723 808 1667.5 743.5 c 128,-1,93
 1612 679 1612 679 1580.5 597.5 c 128,-1,94
 1549 516 1549 516 1549 425 c 0,77,78
726 322 m 0,95,96
 726 356 726 356 712.5 387 c 128,-1,97
 699 418 699 418 675.5 441.5 c 128,-1,98
 652 465 652 465 620.5 479 c 128,-1,99
 589 493 589 493 555 493 c 0,100,101
 490 493 490 493 441.5 459 c 128,-1,102
 393 425 393 425 363 352 c 1,103,104
 380 266 380 266 431 209 c 128,-1,105
 482 152 482 152 555 152 c 0,106,107
 589 152 589 152 620 165.5 c 128,-1,108
 651 179 651 179 674.5 202.5 c 128,-1,109
 698 226 698 226 712 256.5 c 128,-1,110
 726 287 726 287 726 322 c 0,95,96
EndSplineSet
EndChar

StartChar: uni0D0E
Encoding: 220 3342 222
Width: 3046
GlyphClass: 2
Flags: W
LayerCount: 2
Fore
SplineSet
2924 556 m 2,0,1
 2924 403 2924 403 2905.5 242.5 c 128,-1,2
 2887 82 2887 82 2844 -70.5 c 128,-1,3
 2801 -223 2801 -223 2729.5 -359 c 128,-1,4
 2658 -495 2658 -495 2553 -596 c 1,5,-1
 2434 -486 l 1,6,7
 2508 -395 2508 -395 2567.5 -287.5 c 128,-1,8
 2627 -180 2627 -180 2668.5 -52 c 128,-1,9
 2710 76 2710 76 2732 227 c 128,-1,10
 2754 378 2754 378 2754 556 c 0,11,12
 2754 654 2754 654 2740.5 761 c 128,-1,13
 2727 868 2727 868 2697 971.5 c 128,-1,14
 2667 1075 2667 1075 2619 1170.5 c 128,-1,15
 2571 1266 2571 1266 2504.5 1337.5 c 128,-1,16
 2438 1409 2438 1409 2351 1451 c 128,-1,17
 2264 1493 2264 1493 2154 1493 c 0,18,19
 2048 1493 2048 1493 1964 1449.5 c 128,-1,20
 1880 1406 1880 1406 1816.5 1332 c 128,-1,21
 1753 1258 1753 1258 1709 1161.5 c 128,-1,22
 1665 1065 1665 1065 1637 961.5 c 128,-1,23
 1609 858 1609 858 1596 753 c 128,-1,24
 1583 648 1583 648 1583 556 c 0,25,26
 1583 456 1583 456 1588.5 361.5 c 128,-1,27
 1594 267 1594 267 1607 173 c 1,28,-1
 2084 173 l 1,29,-1
 2084 1203 l 1,30,-1
 2257 1203 l 1,31,-1
 2257 -30 l 2,32,33
 2257 -623 2257 -623 1935 -623 c 0,34,35
 1569 -623 1569 -623 1466 0 c 1,36,-1
 734 0 l 1,37,-1
 734 157 l 1,38,39
 771 162 771 162 795 182 c 128,-1,40
 819 202 819 202 833 227.5 c 128,-1,41
 847 253 847 253 852.5 280 c 128,-1,42
 858 307 858 307 858 325 c 0,43,44
 858 373 858 373 834.5 416.5 c 128,-1,45
 811 460 811 460 773 492.5 c 128,-1,46
 735 525 735 525 685.5 544 c 128,-1,47
 636 563 636 563 585 563 c 0,48,49
 522 563 522 563 469 544.5 c 128,-1,50
 416 526 416 526 377.5 494 c 128,-1,51
 339 462 339 462 317 417 c 128,-1,52
 295 372 295 372 295 319 c 0,53,54
 295 295 295 295 299 268.5 c 128,-1,55
 303 242 303 242 314 217 c 128,-1,56
 325 192 325 192 343.5 169 c 128,-1,57
 362 146 362 146 390 127 c 1,58,-1
 303 -21 l 1,59,60
 249 6 249 6 214 44.5 c 128,-1,61
 179 83 179 83 158 128.5 c 128,-1,62
 137 174 137 174 129.5 223 c 128,-1,63
 122 272 122 272 122 319 c 0,64,65
 122 409 122 409 157 485.5 c 128,-1,66
 192 562 192 562 254 618 c 128,-1,67
 316 674 316 674 401 705 c 128,-1,68
 486 736 486 736 585 736 c 0,69,70
 672 736 672 736 753 704 c 128,-1,71
 834 672 834 672 896 617 c 128,-1,72
 958 562 958 562 995 489 c 128,-1,73
 1032 416 1032 416 1032 335 c 0,74,75
 1032 295 1032 295 1024.5 250.5 c 128,-1,76
 1017 206 1017 206 992 173 c 1,77,-1
 1436 173 l 1,78,79
 1424 267 1424 267 1420 361.5 c 128,-1,80
 1416 456 1416 456 1416 556 c 0,81,82
 1416 674 1416 674 1433.5 801.5 c 128,-1,83
 1451 929 1451 929 1490 1053 c 128,-1,84
 1529 1177 1529 1177 1588 1288 c 128,-1,85
 1647 1399 1647 1399 1729.5 1483 c 128,-1,86
 1812 1567 1812 1567 1918.5 1616.5 c 128,-1,87
 2025 1666 2025 1666 2158 1666 c 0,88,89
 2289 1666 2289 1666 2397 1619.5 c 128,-1,90
 2505 1573 2505 1573 2590.5 1493.5 c 128,-1,91
 2676 1414 2676 1414 2738.5 1308.5 c 128,-1,92
 2801 1203 2801 1203 2842.5 1083.5 c 128,-1,93
 2884 964 2884 964 2904 836.5 c 128,-1,94
 2924 709 2924 709 2924 589 c 2,95,-1
 2924 556 l 2,0,1
2084 0 m 1,96,-1
 1639 0 l 1,97,98
 1660 -102 1660 -102 1691 -184.5 c 128,-1,99
 1722 -267 1722 -267 1760 -326.5 c 128,-1,100
 1798 -386 1798 -386 1842 -418 c 128,-1,101
 1886 -450 1886 -450 1935 -450 c 0,102,103
 2084 -450 2084 -450 2084 -63 c 2,104,-1
 2084 0 l 1,96,-1
EndSplineSet
EndChar

StartChar: uni0D0F
Encoding: 221 3343 223
Width: 3050
GlyphClass: 2
Flags: W
LayerCount: 2
Fore
SplineSet
2929 847 m 0,0,1
 2929 552 2929 552 2865 369 c 128,-1,2
 2801 186 2801 186 2658 100 c 1,3,4
 2688 79 2688 79 2716 49.5 c 128,-1,5
 2744 20 2744 20 2764 -21.5 c 128,-1,6
 2784 -63 2784 -63 2796.5 -119.5 c 128,-1,7
 2809 -176 2809 -176 2809 -252 c 0,8,9
 2809 -355 2809 -355 2773 -426.5 c 128,-1,10
 2737 -498 2737 -498 2678.5 -543.5 c 128,-1,11
 2620 -589 2620 -589 2545.5 -610 c 128,-1,12
 2471 -631 2471 -631 2392 -631 c 1,13,-1
 2392 -463 l 1,14,15
 2441 -455 2441 -455 2486 -443.5 c 128,-1,16
 2531 -432 2531 -432 2564 -409 c 128,-1,17
 2597 -386 2597 -386 2617 -346 c 128,-1,18
 2637 -306 2637 -306 2637 -239 c 0,19,20
 2637 -160 2637 -160 2606 -113 c 128,-1,21
 2575 -66 2575 -66 2533 -41.5 c 128,-1,22
 2491 -17 2491 -17 2445.5 -9 c 128,-1,23
 2400 -1 2400 -1 2370 0 c 1,24,-1
 2370 173 l 1,25,26
 2471 190 2471 190 2544 231.5 c 128,-1,27
 2617 273 2617 273 2664 351 c 128,-1,28
 2711 429 2711 429 2733.5 549 c 128,-1,29
 2756 669 2756 669 2756 844 c 0,30,31
 2756 917 2756 917 2744.5 992.5 c 128,-1,32
 2733 1068 2733 1068 2707 1139 c 128,-1,33
 2681 1210 2681 1210 2642 1272 c 128,-1,34
 2603 1334 2603 1334 2547 1380.5 c 128,-1,35
 2491 1427 2491 1427 2418 1454 c 128,-1,36
 2345 1481 2345 1481 2254 1481 c 0,37,38
 2089 1481 2089 1481 1962 1414 c 128,-1,39
 1835 1347 1835 1347 1747.5 1225 c 128,-1,40
 1660 1103 1660 1103 1615 932.5 c 128,-1,41
 1570 762 1570 762 1570 556 c 0,42,43
 1570 465 1570 465 1576.5 370.5 c 128,-1,44
 1583 276 1583 276 1599 173 c 1,45,-1
 2072 173 l 1,46,-1
 2072 1203 l 1,47,-1
 2244 1203 l 1,48,-1
 2244 -30 l 2,49,50
 2244 -623 2244 -623 1925 -623 c 0,51,52
 1750 -623 1750 -623 1633.5 -469.5 c 128,-1,53
 1517 -316 1517 -316 1459 0 c 1,54,-1
 734 0 l 1,55,-1
 734 157 l 1,56,57
 771 162 771 162 795 182 c 128,-1,58
 819 202 819 202 833 227.5 c 128,-1,59
 847 253 847 253 852.5 280 c 128,-1,60
 858 307 858 307 858 325 c 0,61,62
 858 373 858 373 834.5 416.5 c 128,-1,63
 811 460 811 460 773 492.5 c 128,-1,64
 735 525 735 525 685.5 544 c 128,-1,65
 636 563 636 563 585 563 c 0,66,67
 522 563 522 563 469 544.5 c 128,-1,68
 416 526 416 526 377.5 494 c 128,-1,69
 339 462 339 462 317 417 c 128,-1,70
 295 372 295 372 295 319 c 0,71,72
 295 295 295 295 299 268.5 c 128,-1,73
 303 242 303 242 314 217 c 128,-1,74
 325 192 325 192 343.5 169 c 128,-1,75
 362 146 362 146 390 127 c 1,76,-1
 303 -21 l 1,77,78
 249 6 249 6 214 44.5 c 128,-1,79
 179 83 179 83 158 128.5 c 128,-1,80
 137 174 137 174 129.5 223 c 128,-1,81
 122 272 122 272 122 319 c 0,82,83
 122 409 122 409 157 485.5 c 128,-1,84
 192 562 192 562 254 618 c 128,-1,85
 316 674 316 674 401 705 c 128,-1,86
 486 736 486 736 585 736 c 0,87,88
 672 736 672 736 753 704 c 128,-1,89
 834 672 834 672 896 617 c 128,-1,90
 958 562 958 562 995 489 c 128,-1,91
 1032 416 1032 416 1032 335 c 0,92,93
 1032 295 1032 295 1024.5 250.5 c 128,-1,94
 1017 206 1017 206 992 173 c 1,95,-1
 1430 173 l 1,96,97
 1417 269 1417 269 1411.5 363.5 c 128,-1,98
 1406 458 1406 458 1406 556 c 0,99,100
 1406 797 1406 797 1464 997.5 c 128,-1,101
 1522 1198 1522 1198 1630.5 1344 c 128,-1,102
 1739 1490 1739 1490 1895.5 1571.5 c 128,-1,103
 2052 1653 2052 1653 2251 1653 c 0,104,105
 2371 1653 2371 1653 2467.5 1621 c 128,-1,106
 2564 1589 2564 1589 2639 1531.5 c 128,-1,107
 2714 1474 2714 1474 2769 1397.5 c 128,-1,108
 2824 1321 2824 1321 2859 1231 c 128,-1,109
 2894 1141 2894 1141 2911.5 1043 c 128,-1,110
 2929 945 2929 945 2929 847 c 0,0,1
2072 0 m 1,111,-1
 1629 0 l 1,112,113
 1675 -219 1675 -219 1750 -334.5 c 128,-1,114
 1825 -450 1825 -450 1925 -450 c 0,115,116
 2072 -450 2072 -450 2072 -73 c 2,117,-1
 2072 0 l 1,111,-1
EndSplineSet
EndChar

StartChar: uni0D12
Encoding: 223 3346 225
Width: 1753
GlyphClass: 2
Flags: W
LayerCount: 2
Fore
SplineSet
1632 330 m 0,0,1
 1632 253 1632 253 1603 188.5 c 128,-1,2
 1574 124 1574 124 1525.5 77.5 c 128,-1,3
 1477 31 1477 31 1414 5 c 128,-1,4
 1351 -21 1351 -21 1281 -21 c 0,5,6
 1164 -21 1164 -21 1034 77 c 1,7,-1
 1143 219 l 1,8,9
 1205 152 1205 152 1281 152 c 0,10,11
 1317 152 1317 152 1349 164 c 128,-1,12
 1381 176 1381 176 1406 199.5 c 128,-1,13
 1431 223 1431 223 1445.5 256.5 c 128,-1,14
 1460 290 1460 290 1460 332 c 0,15,16
 1460 396 1460 396 1430 444.5 c 128,-1,17
 1400 493 1400 493 1344 511 c 0,18,19
 1314 521 1314 521 1249 523 c 128,-1,20
 1184 525 1184 525 1085 526 c 1,21,-1
 1085 698 l 1,22,23
 1191 698 1191 698 1263.5 708.5 c 128,-1,24
 1336 719 1336 719 1379.5 742 c 128,-1,25
 1423 765 1423 765 1441.5 802 c 128,-1,26
 1460 839 1460 839 1460 892 c 0,27,28
 1460 955 1460 955 1425 1006 c 128,-1,29
 1390 1057 1390 1057 1323.5 1093.5 c 128,-1,30
 1257 1130 1257 1130 1160.5 1149 c 128,-1,31
 1064 1168 1064 1168 940 1168 c 0,32,33
 794 1168 794 1168 676 1119.5 c 128,-1,34
 558 1071 558 1071 473 986.5 c 128,-1,35
 388 902 388 902 339 789 c 128,-1,36
 290 676 290 676 283 548 c 1,37,38
 327 602 327 602 396.5 634 c 128,-1,39
 466 666 466 666 543 666 c 0,40,41
 616 666 616 666 678.5 638.5 c 128,-1,42
 741 611 741 611 787.5 563 c 128,-1,43
 834 515 834 515 859.5 452.5 c 128,-1,44
 885 390 885 390 885 322 c 0,45,46
 885 252 885 252 858.5 189.5 c 128,-1,47
 832 127 832 127 787 80 c 128,-1,48
 742 33 742 33 680.5 6 c 128,-1,49
 619 -21 619 -21 549 -21 c 0,50,51
 456 -21 456 -21 377.5 21.5 c 128,-1,52
 299 64 299 64 242.5 138.5 c 128,-1,53
 186 213 186 213 154 312.5 c 128,-1,54
 122 412 122 412 122 523 c 0,55,56
 122 692 122 692 181 841.5 c 128,-1,57
 240 991 240 991 347.5 1102 c 128,-1,58
 455 1213 455 1213 605.5 1277 c 128,-1,59
 756 1341 756 1341 940 1341 c 0,60,61
 1110 1341 1110 1341 1239.5 1308.5 c 128,-1,62
 1369 1276 1369 1276 1455.5 1213.5 c 128,-1,63
 1542 1151 1542 1151 1586 1062.5 c 128,-1,64
 1630 974 1630 974 1630 862 c 0,65,66
 1630 789 1630 789 1597 727 c 128,-1,67
 1564 665 1564 665 1500 622 c 1,68,69
 1530 601 1530 601 1554.5 568 c 128,-1,70
 1579 535 1579 535 1596 496.5 c 128,-1,71
 1613 458 1613 458 1622.5 415 c 128,-1,72
 1632 372 1632 372 1632 330 c 0,0,1
715 322 m 0,73,74
 715 356 715 356 700.5 387 c 128,-1,75
 686 418 686 418 662.5 441.5 c 128,-1,76
 639 465 639 465 608.5 479 c 128,-1,77
 578 493 578 493 543 493 c 256,78,79
 508 493 508 493 475.5 478 c 128,-1,80
 443 463 443 463 417.5 437.5 c 128,-1,81
 392 412 392 412 374 377 c 128,-1,82
 356 342 356 342 350 302 c 1,83,84
 438 152 438 152 543 152 c 0,85,86
 578 152 578 152 608.5 165.5 c 128,-1,87
 639 179 639 179 662.5 202.5 c 128,-1,88
 686 226 686 226 700.5 256.5 c 128,-1,89
 715 287 715 287 715 322 c 0,73,74
EndSplineSet
EndChar

StartChar: uni0D15
Encoding: 226 3349 228
Width: 2151
GlyphClass: 2
Flags: W
LayerCount: 2
Fore
SplineSet
2029 356 m 0,0,1
 2029 280 2029 280 2002.5 212 c 128,-1,2
 1976 144 1976 144 1929.5 92 c 128,-1,3
 1883 40 1883 40 1819 9.5 c 128,-1,4
 1755 -21 1755 -21 1680 -21 c 0,5,6
 1536 -21 1536 -21 1404 93 c 1,7,-1
 1519 222 l 1,8,9
 1557 184 1557 184 1594.5 168 c 128,-1,10
 1632 152 1632 152 1669 152 c 0,11,12
 1710 152 1710 152 1744.5 168 c 128,-1,13
 1779 184 1779 184 1804 212 c 128,-1,14
 1829 240 1829 240 1842.5 277.5 c 128,-1,15
 1856 315 1856 315 1856 356 c 0,16,17
 1856 433 1856 433 1827.5 485.5 c 128,-1,18
 1799 538 1799 538 1747.5 570 c 128,-1,19
 1696 602 1696 602 1624 618.5 c 128,-1,20
 1552 635 1552 635 1466 641 c 1,21,22
 1464 490 1464 490 1441.5 368.5 c 128,-1,23
 1419 247 1419 247 1369.5 160 c 128,-1,24
 1320 73 1320 73 1242.5 26 c 128,-1,25
 1165 -21 1165 -21 1057 -21 c 0,26,27
 882 -21 882 -21 784 99 c 1,28,29
 715 44 715 44 640 11.5 c 128,-1,30
 565 -21 565 -21 475 -21 c 0,31,32
 395 -21 395 -21 330 8 c 128,-1,33
 265 37 265 37 219 88.5 c 128,-1,34
 173 140 173 140 147.5 208.5 c 128,-1,35
 122 277 122 277 122 356 c 0,36,37
 122 479 122 479 159.5 561 c 128,-1,38
 197 643 197 643 267 694.5 c 128,-1,39
 337 746 337 746 436 772.5 c 128,-1,40
 535 799 535 799 655 809 c 1,41,42
 665 927 665 927 693.5 1024 c 128,-1,43
 722 1121 722 1121 770.5 1192 c 128,-1,44
 819 1263 819 1263 890 1302 c 128,-1,45
 961 1341 961 1341 1057 1341 c 256,46,47
 1153 1341 1153 1341 1223.5 1302 c 128,-1,48
 1294 1263 1294 1263 1342.5 1193 c 128,-1,49
 1391 1123 1391 1123 1419 1025 c 128,-1,50
 1447 927 1447 927 1459 811 c 1,51,52
 1584 802 1584 802 1689.5 777 c 128,-1,53
 1795 752 1795 752 1870.5 700 c 128,-1,54
 1946 648 1946 648 1987.5 564 c 128,-1,55
 2029 480 2029 480 2029 356 c 0,0,1
1057 152 m 0,56,57
 1130 152 1130 152 1175.5 190.5 c 128,-1,58
 1221 229 1221 229 1247 296 c 128,-1,59
 1273 363 1273 363 1283 453 c 128,-1,60
 1293 543 1293 543 1293 646 c 1,61,-1
 821 646 l 1,62,63
 821 543 821 543 831 453 c 128,-1,64
 841 363 841 363 867.5 296 c 128,-1,65
 894 229 894 229 939.5 190.5 c 128,-1,66
 985 152 985 152 1057 152 c 0,56,57
704 247 m 1,67,68
 675 326 675 326 662 424.5 c 128,-1,69
 649 523 649 523 649 639 c 1,70,71
 569 632 569 632 504 615.5 c 128,-1,72
 439 599 439 599 392.5 567 c 128,-1,73
 346 535 346 535 320.5 483.5 c 128,-1,74
 295 432 295 432 295 356 c 0,75,76
 295 313 295 313 307 275 c 128,-1,77
 319 237 319 237 342 210 c 128,-1,78
 365 183 365 183 398.5 167.5 c 128,-1,79
 432 152 432 152 475 152 c 0,80,81
 492 152 492 152 520 157.5 c 128,-1,82
 548 163 548 163 580 175 c 128,-1,83
 612 187 612 187 645 205 c 128,-1,84
 678 223 678 223 704 247 c 1,67,68
1286 819 m 1,85,86
 1278 889 1278 889 1263 953 c 128,-1,87
 1248 1017 1248 1017 1221 1065 c 128,-1,88
 1194 1113 1194 1113 1154 1140.5 c 128,-1,89
 1114 1168 1114 1168 1057 1168 c 0,90,91
 998 1168 998 1168 958 1140.5 c 128,-1,92
 918 1113 918 1113 891 1065 c 128,-1,93
 864 1017 864 1017 849 953 c 128,-1,94
 834 889 834 889 827 819 c 1,95,-1
 1286 819 l 1,85,86
EndSplineSet
EndChar

StartChar: uni0D16
Encoding: 227 3350 229
Width: 2378
GlyphClass: 2
Flags: W
LayerCount: 2
Fore
SplineSet
2257 1320 m 1,0,-1
 2257 0 l 1,1,-1
 1072 0 l 1,2,-1
 1072 173 l 1,3,4
 1118 203 1118 203 1156.5 245 c 128,-1,5
 1195 287 1195 287 1223 346 c 128,-1,6
 1251 405 1251 405 1267 482 c 128,-1,7
 1283 559 1283 559 1283 659 c 0,8,9
 1283 762 1283 762 1248.5 854.5 c 128,-1,10
 1214 947 1214 947 1149.5 1017 c 128,-1,11
 1085 1087 1085 1087 993 1127.5 c 128,-1,12
 901 1168 901 1168 786 1168 c 0,13,14
 678 1168 678 1168 587 1125.5 c 128,-1,15
 496 1083 496 1083 431 1007.5 c 128,-1,16
 366 932 366 932 329.5 832 c 128,-1,17
 293 732 293 732 293 618 c 0,18,19
 293 543 293 543 303 505 c 1,20,21
 346 579 346 579 422.5 622.5 c 128,-1,22
 499 666 499 666 589 666 c 0,23,24
 664 666 664 666 726.5 639 c 128,-1,25
 789 612 789 612 835.5 565.5 c 128,-1,26
 882 519 882 519 908.5 456 c 128,-1,27
 935 393 935 393 935 322 c 0,28,29
 935 250 935 250 908.5 187 c 128,-1,30
 882 124 882 124 835 77.5 c 128,-1,31
 788 31 788 31 725 5 c 128,-1,32
 662 -21 662 -21 589 -21 c 0,33,34
 495 -21 495 -21 410 36.5 c 128,-1,35
 325 94 325 94 261 186.5 c 128,-1,36
 197 279 197 279 159.5 394 c 128,-1,37
 122 509 122 509 122 625 c 0,38,39
 122 766 122 766 172 896.5 c 128,-1,40
 222 1027 222 1027 311 1125.5 c 128,-1,41
 400 1224 400 1224 521.5 1282.5 c 128,-1,42
 643 1341 643 1341 786 1341 c 0,43,44
 940 1341 940 1341 1062.5 1284.5 c 128,-1,45
 1185 1228 1185 1228 1271.5 1134 c 128,-1,46
 1358 1040 1358 1040 1404.5 917 c 128,-1,47
 1451 794 1451 794 1451 659 c 0,48,49
 1451 511 1451 511 1417 382 c 128,-1,50
 1383 253 1383 253 1297 173 c 1,51,-1
 2085 173 l 1,52,-1
 2085 1320 l 1,53,-1
 2257 1320 l 1,0,-1
762 322 m 0,54,55
 762 356 762 356 748.5 387.5 c 128,-1,56
 735 419 735 419 711.5 442.5 c 128,-1,57
 688 466 688 466 657 479.5 c 128,-1,58
 626 493 626 493 592 493 c 0,59,60
 526 493 526 493 474 450.5 c 128,-1,61
 422 408 422 408 403 329 c 1,62,63
 420 243 420 243 471.5 197.5 c 128,-1,64
 523 152 523 152 592 152 c 0,65,66
 625 152 625 152 655.5 165.5 c 128,-1,67
 686 179 686 179 710 202 c 128,-1,68
 734 225 734 225 748 255.5 c 128,-1,69
 762 286 762 286 762 322 c 0,54,55
EndSplineSet
EndChar

StartChar: uni0D17
Encoding: 228 3351 230
Width: 1908
GlyphClass: 2
Flags: W
LayerCount: 2
Fore
SplineSet
1786 668 m 0,0,1
 1786 538 1786 538 1749 417 c 128,-1,2
 1712 296 1712 296 1647 204 c 128,-1,3
 1582 112 1582 112 1494 56 c 128,-1,4
 1406 0 1406 0 1303 0 c 1,5,-1
 1303 173 l 1,6,7
 1371 173 1371 173 1428.5 212.5 c 128,-1,8
 1486 252 1486 252 1526.5 320 c 128,-1,9
 1567 388 1567 388 1590 477 c 128,-1,10
 1613 566 1613 566 1613 668 c 0,11,12
 1613 749 1613 749 1596.5 837 c 128,-1,13
 1580 925 1580 925 1546 998.5 c 128,-1,14
 1512 1072 1512 1072 1459 1120 c 128,-1,15
 1406 1168 1406 1168 1333 1168 c 0,16,17
 1237 1168 1237 1168 1182.5 1114 c 128,-1,18
 1128 1060 1128 1060 1098 975.5 c 128,-1,19
 1068 891 1068 891 1054 789 c 0,20,21
 1040 686 1040 686 1025 592 c 0,22,23
 1005 476 1005 476 979.5 366 c 128,-1,24
 954 256 954 256 906 170 c 128,-1,25
 858 84 858 84 778.5 31.5 c 128,-1,26
 699 -21 699 -21 572 -21 c 0,27,28
 470 -21 470 -21 387.5 33 c 128,-1,29
 305 87 305 87 246 181.5 c 128,-1,30
 187 276 187 276 154.5 401 c 128,-1,31
 122 526 122 526 122 668 c 0,32,33
 122 744 122 744 134.5 821.5 c 128,-1,34
 147 899 147 899 172 971.5 c 128,-1,35
 197 1044 197 1044 234.5 1107.5 c 128,-1,36
 272 1171 272 1171 321 1218.5 c 128,-1,37
 370 1266 370 1266 431.5 1293 c 128,-1,38
 493 1320 493 1320 565 1320 c 2,39,-1
 586 1320 l 1,40,-1
 586 1147 l 1,41,42
 523 1145 523 1145 470.5 1103 c 128,-1,43
 418 1061 418 1061 378.5 994.5 c 128,-1,44
 339 928 339 928 317 844.5 c 128,-1,45
 295 761 295 761 295 678 c 0,46,47
 295 579 295 579 315 484.5 c 128,-1,48
 335 390 335 390 371.5 316.5 c 128,-1,49
 408 243 408 243 458.5 197.5 c 128,-1,50
 509 152 509 152 572 152 c 0,51,52
 661 152 661 152 713.5 195.5 c 128,-1,53
 766 239 766 239 797.5 309.5 c 128,-1,54
 829 380 829 380 844 469.5 c 128,-1,55
 859 559 859 559 872 651 c 0,56,57
 882 729 882 729 894.5 810.5 c 128,-1,58
 907 892 907 892 926 968.5 c 128,-1,59
 945 1045 945 1045 975 1113 c 128,-1,60
 1005 1181 1005 1181 1051.5 1232 c 128,-1,61
 1098 1283 1098 1283 1164.5 1312 c 128,-1,62
 1231 1341 1231 1341 1323 1341 c 0,63,64
 1439 1341 1439 1341 1525.5 1284 c 128,-1,65
 1612 1227 1612 1227 1669.5 1132.5 c 128,-1,66
 1727 1038 1727 1038 1756.5 917.5 c 128,-1,67
 1786 797 1786 797 1786 668 c 0,0,1
EndSplineSet
EndChar

StartChar: uni0D18
Encoding: 229 3352 231
Width: 2907
GlyphClass: 2
Flags: W
LayerCount: 2
Fore
SplineSet
2786 0 m 1,0,-1
 1190 0 l 1,1,-1
 1190 412 l 1,2,-1
 734 412 l 1,3,-1
 734 569 l 1,4,5
 771 573 771 573 795 593 c 128,-1,6
 819 613 819 613 833 639 c 128,-1,7
 847 665 847 665 852.5 692 c 128,-1,8
 858 719 858 719 858 736 c 0,9,10
 858 785 858 785 834.5 828.5 c 128,-1,11
 811 872 811 872 773 904.5 c 128,-1,12
 735 937 735 937 685.5 956 c 128,-1,13
 636 975 636 975 585 975 c 0,14,15
 522 975 522 975 469 956.5 c 128,-1,16
 416 938 416 938 377.5 906 c 128,-1,17
 339 874 339 874 317 829 c 128,-1,18
 295 784 295 784 295 731 c 0,19,20
 295 706 295 706 299 680 c 128,-1,21
 303 654 303 654 314 628.5 c 128,-1,22
 325 603 325 603 343.5 580.5 c 128,-1,23
 362 558 362 558 390 539 c 1,24,-1
 303 390 l 1,25,26
 249 418 249 418 214 456.5 c 128,-1,27
 179 495 179 495 158 540.5 c 128,-1,28
 137 586 137 586 129.5 635 c 128,-1,29
 122 684 122 684 122 731 c 0,30,31
 122 821 122 821 157 897.5 c 128,-1,32
 192 974 192 974 254 1029.5 c 128,-1,33
 316 1085 316 1085 401 1116.5 c 128,-1,34
 486 1148 486 1148 585 1148 c 0,35,36
 672 1148 672 1148 753 1116 c 128,-1,37
 834 1084 834 1084 896 1029 c 128,-1,38
 958 974 958 974 995 901 c 128,-1,39
 1032 828 1032 828 1032 746 c 0,40,41
 1032 706 1032 706 1024.5 662 c 128,-1,42
 1017 618 1017 618 992 585 c 1,43,-1
 1190 585 l 1,44,-1
 1190 821 l 2,45,46
 1190 927 1190 927 1234 1022 c 128,-1,47
 1278 1117 1278 1117 1352.5 1187.5 c 128,-1,48
 1427 1258 1427 1258 1523 1299.5 c 128,-1,49
 1619 1341 1619 1341 1720 1341 c 0,50,51
 1826 1341 1826 1341 1921 1299 c 128,-1,52
 2016 1257 2016 1257 2087.5 1186 c 128,-1,53
 2159 1115 2159 1115 2201.5 1020 c 128,-1,54
 2244 925 2244 925 2244 821 c 2,55,-1
 2244 412 l 1,56,-1
 1361 412 l 1,57,-1
 1361 173 l 1,58,-1
 2613 173 l 1,59,-1
 2613 1320 l 1,60,-1
 2786 1320 l 1,61,-1
 2786 0 l 1,0,-1
2072 585 m 1,62,-1
 2072 811 l 2,63,64
 2072 881 2072 881 2044 946 c 128,-1,65
 2016 1011 2016 1011 1968 1060.5 c 128,-1,66
 1920 1110 1920 1110 1856.5 1139 c 128,-1,67
 1793 1168 1793 1168 1720 1168 c 0,68,69
 1649 1168 1649 1168 1584 1139.5 c 128,-1,70
 1519 1111 1519 1111 1469.5 1062.5 c 128,-1,71
 1420 1014 1420 1014 1390.5 949 c 128,-1,72
 1361 884 1361 884 1361 811 c 2,73,-1
 1361 585 l 1,74,-1
 2072 585 l 1,62,-1
EndSplineSet
EndChar

StartChar: uni0D19
Encoding: 230 3353 232
Width: 2105
GlyphClass: 2
Flags: W
LayerCount: 2
Fore
SplineSet
1983 922 m 0,0,1
 1983 839 1983 839 1942.5 764 c 128,-1,2
 1902 689 1902 689 1838 646 c 1,3,4
 1870 622 1870 622 1897.5 594 c 128,-1,5
 1925 566 1925 566 1944 529.5 c 128,-1,6
 1963 493 1963 493 1973 445.5 c 128,-1,7
 1983 398 1983 398 1983 333 c 0,8,9
 1983 247 1983 247 1953 184.5 c 128,-1,10
 1923 122 1923 122 1874 81 c 128,-1,11
 1825 40 1825 40 1761 20 c 128,-1,12
 1697 0 1697 0 1630 0 c 2,13,-1
 1483 0 l 1,14,-1
 1483 173 l 1,15,16
 1574 173 1574 173 1637 183.5 c 128,-1,17
 1700 194 1700 194 1738.5 216.5 c 128,-1,18
 1777 239 1777 239 1794.5 275.5 c 128,-1,19
 1812 312 1812 312 1812 363 c 0,20,21
 1812 450 1812 450 1732 499 c 128,-1,22
 1652 548 1652 548 1483 548 c 1,23,-1
 1483 719 l 1,24,25
 1553 719 1553 719 1612.5 734 c 128,-1,26
 1672 749 1672 749 1713.5 777 c 128,-1,27
 1755 805 1755 805 1778.5 844.5 c 128,-1,28
 1802 884 1802 884 1802 934 c 0,29,30
 1802 982 1802 982 1785.5 1025 c 128,-1,31
 1769 1068 1769 1068 1736 1099.5 c 128,-1,32
 1703 1131 1703 1131 1653 1149.5 c 128,-1,33
 1603 1168 1603 1168 1536 1168 c 0,34,35
 1460 1168 1460 1168 1403 1148 c 128,-1,36
 1346 1128 1346 1128 1308 1094.5 c 128,-1,37
 1270 1061 1270 1061 1250.5 1017.5 c 128,-1,38
 1231 974 1231 974 1231 928 c 2,39,-1
 1231 0 l 1,40,-1
 1060 0 l 1,41,-1
 1060 648 l 2,42,43
 1060 756 1060 756 1032.5 850.5 c 128,-1,44
 1005 945 1005 945 956 1016 c 128,-1,45
 907 1087 907 1087 836.5 1127.5 c 128,-1,46
 766 1168 766 1168 682 1168 c 256,47,48
 598 1168 598 1168 527 1121 c 128,-1,49
 456 1074 456 1074 404.5 997.5 c 128,-1,50
 353 921 353 921 324 823 c 128,-1,51
 295 725 295 725 295 622 c 0,52,53
 295 605 295 605 296 591.5 c 128,-1,54
 297 578 297 578 302 558 c 1,55,56
 346 615 346 615 407 640.5 c 128,-1,57
 468 666 468 666 553 666 c 0,58,59
 622 666 622 666 685 638.5 c 128,-1,60
 748 611 748 611 796 563 c 128,-1,61
 844 515 844 515 871.5 452.5 c 128,-1,62
 899 390 899 390 899 322 c 0,63,64
 899 255 899 255 872 192.5 c 128,-1,65
 845 130 845 130 798.5 83 c 128,-1,66
 752 36 752 36 690 7.5 c 128,-1,67
 628 -21 628 -21 559 -21 c 0,68,69
 460 -21 460 -21 380 28 c 128,-1,70
 300 77 300 77 242 162 c 128,-1,71
 184 247 184 247 153 361.5 c 128,-1,72
 122 476 122 476 122 606 c 0,73,74
 122 688 122 688 136 774.5 c 128,-1,75
 150 861 150 861 180 943 c 128,-1,76
 210 1025 210 1025 256 1097.5 c 128,-1,77
 302 1170 302 1170 364 1224 c 128,-1,78
 426 1278 426 1278 505.5 1309.5 c 128,-1,79
 585 1341 585 1341 682 1341 c 0,80,81
 817 1341 817 1341 928.5 1289 c 128,-1,82
 1040 1237 1040 1237 1113 1133 c 1,83,84
 1134 1168 1134 1168 1170.5 1205.5 c 128,-1,85
 1207 1243 1207 1243 1257 1273 c 128,-1,86
 1307 1303 1307 1303 1372 1322 c 128,-1,87
 1437 1341 1437 1341 1516 1341 c 0,88,89
 1633 1341 1633 1341 1721 1309 c 128,-1,90
 1809 1277 1809 1277 1867 1220.5 c 128,-1,91
 1925 1164 1925 1164 1954 1087.5 c 128,-1,92
 1983 1011 1983 1011 1983 922 c 0,0,1
726 322 m 0,93,94
 726 356 726 356 712.5 387 c 128,-1,95
 699 418 699 418 675.5 441.5 c 128,-1,96
 652 465 652 465 620.5 479 c 128,-1,97
 589 493 589 493 555 493 c 0,98,99
 419 493 419 493 362 350 c 1,100,101
 370 307 370 307 388 271 c 128,-1,102
 406 235 406 235 432 208.5 c 128,-1,103
 458 182 458 182 489.5 167 c 128,-1,104
 521 152 521 152 555 152 c 256,105,106
 589 152 589 152 620 165.5 c 128,-1,107
 651 179 651 179 674.5 202.5 c 128,-1,108
 698 226 698 226 712 256.5 c 128,-1,109
 726 287 726 287 726 322 c 0,93,94
EndSplineSet
EndChar

StartChar: uni0D1A
Encoding: 231 3354 233
Width: 2347
GlyphClass: 2
Flags: W
LayerCount: 2
Fore
SplineSet
2225 1320 m 1,0,-1
 2225 0 l 1,1,-1
 122 0 l 1,2,-1
 122 173 l 1,3,-1
 889 173 l 2,4,5
 954 173 954 173 1017.5 209.5 c 128,-1,6
 1081 246 1081 246 1131 304 c 128,-1,7
 1181 362 1181 362 1212 435 c 128,-1,8
 1243 508 1243 508 1243 579 c 0,9,10
 1243 639 1243 639 1227 689 c 128,-1,11
 1211 739 1211 739 1183 775.5 c 128,-1,12
 1155 812 1155 812 1115 833 c 128,-1,13
 1075 854 1075 854 1027 854 c 0,14,15
 981 854 981 854 940 836.5 c 128,-1,16
 899 819 899 819 868 788.5 c 128,-1,17
 837 758 837 758 819 716.5 c 128,-1,18
 801 675 801 675 801 628 c 0,19,20
 801 549 801 549 878 496 c 1,21,-1
 785 366 l 1,22,23
 628 482 628 482 628 638 c 0,24,25
 628 719 628 719 657 790 c 128,-1,26
 686 861 686 861 738.5 914 c 128,-1,27
 791 967 791 967 861.5 997 c 128,-1,28
 932 1027 932 1027 1017 1027 c 0,29,30
 1105 1027 1105 1027 1179 993.5 c 128,-1,31
 1253 960 1253 960 1305.5 900.5 c 128,-1,32
 1358 841 1358 841 1387.5 758.5 c 128,-1,33
 1417 676 1417 676 1417 579 c 0,34,35
 1417 346 1417 346 1227 173 c 1,36,-1
 2052 173 l 1,37,-1
 2052 1320 l 1,38,-1
 2225 1320 l 1,0,-1
EndSplineSet
EndChar

StartChar: uni0D1B
Encoding: 232 3355 234
Width: 3238
GlyphClass: 2
Flags: W
LayerCount: 2
Fore
SplineSet
3103 566 m 0,0,1
 3103 439 3103 439 3071.5 331 c 128,-1,2
 3040 223 3040 223 2982 144.5 c 128,-1,3
 2924 66 2924 66 2842.5 22.5 c 128,-1,4
 2761 -21 2761 -21 2661 -21 c 0,5,6
 2573 -21 2573 -21 2501.5 14 c 128,-1,7
 2430 49 2430 49 2379 109 c 128,-1,8
 2328 169 2328 169 2300 250.5 c 128,-1,9
 2272 332 2272 332 2272 425 c 0,10,11
 2272 525 2272 525 2295.5 616.5 c 128,-1,12
 2319 708 2319 708 2368.5 788 c 128,-1,13
 2418 868 2418 868 2494.5 934.5 c 128,-1,14
 2571 1001 2571 1001 2677 1051 c 1,15,16
 2656 1070 2656 1070 2620 1090 c 128,-1,17
 2584 1110 2584 1110 2541 1125.5 c 128,-1,18
 2498 1141 2498 1141 2449.5 1152 c 128,-1,19
 2401 1163 2401 1163 2354 1163 c 0,20,21
 2235 1163 2235 1163 2128.5 1117.5 c 128,-1,22
 2022 1072 2022 1072 1940.5 994.5 c 128,-1,23
 1859 917 1859 917 1811 813 c 128,-1,24
 1763 709 1763 709 1763 592 c 0,25,26
 1763 516 1763 516 1779.5 444.5 c 128,-1,27
 1796 373 1796 373 1826 315 c 128,-1,28
 1856 257 1856 257 1897 218.5 c 128,-1,29
 1938 180 1938 180 1986 170 c 1,30,-1
 1986 0 l 1,31,-1
 122 0 l 1,32,-1
 122 173 l 1,33,-1
 628 173 l 2,34,35
 691 173 691 173 754.5 211.5 c 128,-1,36
 818 250 818 250 869.5 309.5 c 128,-1,37
 921 369 921 369 953 441 c 128,-1,38
 985 513 985 513 985 581 c 0,39,40
 985 638 985 638 968.5 688 c 128,-1,41
 952 738 952 738 922 774.5 c 128,-1,42
 892 811 892 811 850.5 831.5 c 128,-1,43
 809 852 809 852 759 852 c 0,44,45
 712 852 712 852 671.5 835.5 c 128,-1,46
 631 819 631 819 600 790 c 128,-1,47
 569 761 569 761 551 719.5 c 128,-1,48
 533 678 533 678 533 629 c 0,49,50
 533 555 533 555 616 499 c 1,51,-1
 523 360 l 1,52,53
 359 476 359 476 359 633 c 0,54,55
 359 715 359 715 390.5 786.5 c 128,-1,56
 422 858 422 858 476.5 911.5 c 128,-1,57
 531 965 531 965 603 996 c 128,-1,58
 675 1027 675 1027 758 1027 c 0,59,60
 847 1027 847 1027 920.5 992 c 128,-1,61
 994 957 994 957 1046 895.5 c 128,-1,62
 1098 834 1098 834 1127.5 751.5 c 128,-1,63
 1157 669 1157 669 1157 575 c 0,64,65
 1157 453 1157 453 1113.5 356 c 128,-1,66
 1070 259 1070 259 971 173 c 1,67,-1
 1717 173 l 1,68,69
 1589 357 1589 357 1589 583 c 0,70,71
 1589 734 1589 734 1646 871 c 128,-1,72
 1703 1008 1703 1008 1804.5 1112.5 c 128,-1,73
 1906 1217 1906 1217 2046 1279 c 128,-1,74
 2186 1341 2186 1341 2354 1341 c 0,75,76
 2458 1341 2458 1341 2554.5 1312 c 128,-1,77
 2651 1283 2651 1283 2734 1230 c 128,-1,78
 2817 1177 2817 1177 2885 1104.5 c 128,-1,79
 2953 1032 2953 1032 3001.5 945.5 c 128,-1,80
 3050 859 3050 859 3076.5 762.5 c 128,-1,81
 3103 666 3103 666 3103 566 c 0,0,1
2440 425 m 0,82,83
 2440 366 2440 366 2453.5 316 c 128,-1,84
 2467 266 2467 266 2492.5 229.5 c 128,-1,85
 2518 193 2518 193 2554.5 172.5 c 128,-1,86
 2591 152 2591 152 2637 152 c 0,87,88
 2703 152 2703 152 2755 181 c 128,-1,89
 2807 210 2807 210 2843.5 263 c 128,-1,90
 2880 316 2880 316 2900 389.5 c 128,-1,91
 2920 463 2920 463 2920 552 c 0,92,93
 2920 622 2920 622 2910.5 674 c 128,-1,94
 2901 726 2901 726 2887.5 766.5 c 128,-1,95
 2874 807 2874 807 2856.5 839 c 128,-1,96
 2839 871 2839 871 2821 901 c 1,97,98
 2744 884 2744 884 2674.5 841.5 c 128,-1,99
 2605 799 2605 799 2553 737 c 128,-1,100
 2501 675 2501 675 2470.5 595.5 c 128,-1,101
 2440 516 2440 516 2440 425 c 0,82,83
EndSplineSet
EndChar

StartChar: uni0D1C
Encoding: 233 3356 235
Width: 1685
GlyphClass: 2
Flags: W
LayerCount: 2
Fore
SplineSet
1563 961 m 0,0,1
 1563 862 1563 862 1528 795.5 c 128,-1,2
 1493 729 1493 729 1431 684 c 128,-1,3
 1369 639 1369 639 1283 610.5 c 128,-1,4
 1197 582 1197 582 1097 559 c 2,5,-1
 811 490 l 2,6,7
 771 480 771 480 718 470 c 0,8,9
 664 459 664 459 606.5 445.5 c 128,-1,10
 549 432 549 432 492.5 416 c 128,-1,11
 436 400 436 400 392.5 381 c 128,-1,12
 349 362 349 362 322 338.5 c 128,-1,13
 295 315 295 315 295 287 c 0,14,15
 295 226 295 226 337 189 c 128,-1,16
 379 152 379 152 485 152 c 0,17,18
 535 152 535 152 590 167 c 128,-1,19
 645 182 645 182 701.5 209 c 128,-1,20
 758 236 758 236 813.5 272.5 c 128,-1,21
 869 309 869 309 919 350 c 0,22,23
 962 386 962 386 1008 421 c 128,-1,24
 1054 456 1054 456 1099.5 484 c 128,-1,25
 1145 512 1145 512 1190.5 530 c 128,-1,26
 1236 548 1236 548 1274 548 c 0,27,28
 1334 548 1334 548 1387 523.5 c 128,-1,29
 1440 499 1440 499 1478.5 458.5 c 128,-1,30
 1517 418 1517 418 1540 363.5 c 128,-1,31
 1563 309 1563 309 1563 250 c 0,32,33
 1563 189 1563 189 1541.5 139 c 128,-1,34
 1520 89 1520 89 1481.5 53 c 128,-1,35
 1443 17 1443 17 1391.5 -2 c 128,-1,36
 1340 -21 1340 -21 1280 -21 c 0,37,38
 1230 -21 1230 -21 1185 -2.5 c 128,-1,39
 1140 16 1140 16 1105 46 c 128,-1,40
 1070 76 1070 76 1047 116 c 128,-1,41
 1024 156 1024 156 1017 199 c 1,42,43
 865 83 865 83 735 31 c 128,-1,44
 605 -21 605 -21 479 -21 c 0,45,46
 297 -21 297 -21 209.5 61.5 c 128,-1,47
 122 144 122 144 122 287 c 0,48,49
 122 349 122 349 147 395.5 c 128,-1,50
 172 442 172 442 216 476.5 c 128,-1,51
 260 511 260 511 321.5 536 c 128,-1,52
 383 561 383 561 455.5 581 c 128,-1,53
 528 601 528 601 609 618 c 0,54,55
 689 635 689 635 772 654 c 2,56,-1
 1071 721 l 2,57,58
 1167 746 1167 746 1229 770 c 128,-1,59
 1291 794 1291 794 1327 821.5 c 128,-1,60
 1363 849 1363 849 1377 882 c 128,-1,61
 1391 915 1391 915 1391 961 c 0,62,63
 1391 1005 1391 1005 1374.5 1043 c 128,-1,64
 1358 1081 1358 1081 1329 1109 c 128,-1,65
 1300 1137 1300 1137 1260 1152.5 c 128,-1,66
 1220 1168 1220 1168 1171 1168 c 0,67,68
 1058 1168 1058 1168 1009.5 1089.5 c 128,-1,69
 961 1011 961 1011 961 834 c 2,70,-1
 961 781 l 1,71,-1
 788 781 l 1,72,-1
 788 940 l 2,73,74
 788 985 788 985 768 1026.5 c 128,-1,75
 748 1068 748 1068 714.5 1099.5 c 128,-1,76
 681 1131 681 1131 636.5 1149.5 c 128,-1,77
 592 1168 592 1168 543 1168 c 0,78,79
 475 1168 475 1168 425 1140 c 1,80,81
 472 1140 472 1140 515 1118.5 c 128,-1,82
 558 1097 558 1097 590.5 1061 c 128,-1,83
 623 1025 623 1025 642.5 978.5 c 128,-1,84
 662 932 662 932 662 884 c 0,85,86
 662 832 662 832 640 785.5 c 128,-1,87
 618 739 618 739 581.5 702.5 c 128,-1,88
 545 666 545 666 498.5 644.5 c 128,-1,89
 452 623 452 623 403 623 c 0,90,91
 343 623 343 623 291 649 c 128,-1,92
 239 675 239 675 201.5 719.5 c 128,-1,93
 164 764 164 764 143 824 c 128,-1,94
 122 884 122 884 122 952 c 0,95,96
 122 1030 122 1030 155.5 1100 c 128,-1,97
 189 1170 189 1170 246 1223.5 c 128,-1,98
 303 1277 303 1277 376.5 1309 c 128,-1,99
 450 1341 450 1341 531 1341 c 0,100,101
 638 1341 638 1341 722.5 1302.5 c 128,-1,102
 807 1264 807 1264 871 1191 c 1,103,104
 931 1268 931 1268 1003 1304.5 c 128,-1,105
 1075 1341 1075 1341 1170 1341 c 0,106,107
 1260 1341 1260 1341 1333 1315.5 c 128,-1,108
 1406 1290 1406 1290 1457.5 1240.5 c 128,-1,109
 1509 1191 1509 1191 1536 1120.5 c 128,-1,110
 1563 1050 1563 1050 1563 961 c 0,0,1
1394 259 m 0,111,112
 1394 282 1394 282 1384 302.5 c 128,-1,113
 1374 323 1374 323 1357.5 339.5 c 128,-1,114
 1341 356 1341 356 1319.5 366 c 128,-1,115
 1298 376 1298 376 1276 376 c 0,116,117
 1227 376 1227 376 1173 330 c 1,118,119
 1168 315 1168 315 1166.5 301 c 128,-1,120
 1165 287 1165 287 1165 276 c 0,121,122
 1165 220 1165 220 1196 185 c 128,-1,123
 1227 150 1227 150 1280 150 c 0,124,125
 1331 150 1331 150 1362.5 177 c 128,-1,126
 1394 204 1394 204 1394 259 c 0,111,112
489 887 m 0,127,128
 489 924 489 924 460.5 949.5 c 128,-1,129
 432 975 432 975 399 975 c 0,130,131
 350 975 350 975 315 952 c 1,132,133
 313 941 313 941 311 928 c 128,-1,134
 309 915 309 915 309 899 c 0,135,136
 309 857 309 857 337 827 c 128,-1,137
 365 797 365 797 399 797 c 0,138,139
 452 797 452 797 470.5 825.5 c 128,-1,140
 489 854 489 854 489 887 c 0,127,128
EndSplineSet
EndChar

StartChar: uni0D1D
Encoding: 234 3357 236
Width: 3265
GlyphClass: 2
Flags: W
LayerCount: 2
Fore
SplineSet
3143 648 m 0,0,1
 3143 512 3143 512 3111 390.5 c 128,-1,2
 3079 269 3079 269 3020.5 177.5 c 128,-1,3
 2962 86 2962 86 2879 32.5 c 128,-1,4
 2796 -21 2796 -21 2693 -21 c 0,5,6
 2488 -21 2488 -21 2361 132 c 1,7,8
 2315 61 2315 61 2238.5 20 c 128,-1,9
 2162 -21 2162 -21 2063 -21 c 0,10,11
 1972 -21 1972 -21 1907.5 4.5 c 128,-1,12
 1843 30 1843 30 1800 75 c 128,-1,13
 1757 120 1757 120 1732 181 c 128,-1,14
 1707 242 1707 242 1693 310.5 c 128,-1,15
 1679 379 1679 379 1672.5 453.5 c 128,-1,16
 1666 528 1666 528 1662 599 c 0,17,18
 1652 754 1652 754 1618 862 c 128,-1,19
 1584 970 1584 970 1525.5 1038.5 c 128,-1,20
 1467 1107 1467 1107 1382.5 1137.5 c 128,-1,21
 1298 1168 1298 1168 1190 1168 c 0,22,23
 1173 1168 1173 1168 1154 1165 c 1,24,25
 1267 1047 1267 1047 1325 883 c 128,-1,26
 1383 719 1383 719 1383 528 c 0,27,28
 1383 419 1383 419 1351.5 319.5 c 128,-1,29
 1320 220 1320 220 1263.5 144.5 c 128,-1,30
 1207 69 1207 69 1130.5 24 c 128,-1,31
 1054 -21 1054 -21 964 -21 c 0,32,33
 875 -21 875 -21 799.5 24.5 c 128,-1,34
 724 70 724 70 667.5 146 c 128,-1,35
 611 222 611 222 578.5 321 c 128,-1,36
 546 420 546 420 546 528 c 0,37,38
 546 608 546 608 561 699.5 c 128,-1,39
 576 791 576 791 606 878 c 128,-1,40
 636 965 636 965 682 1041 c 128,-1,41
 728 1117 728 1117 788 1165 c 1,42,43
 771 1168 771 1168 758 1168 c 0,44,45
 659 1168 659 1168 574 1118 c 128,-1,46
 489 1068 489 1068 427 985 c 128,-1,47
 365 902 365 902 329 793.5 c 128,-1,48
 293 685 293 685 293 569 c 0,49,50
 293 282 293 282 462 109 c 1,51,-1
 346 -9 l 1,52,53
 122 216 122 216 122 569 c 0,54,55
 122 724 122 724 167.5 863 c 128,-1,56
 213 1002 213 1002 296.5 1108.5 c 128,-1,57
 380 1215 380 1215 497.5 1278 c 128,-1,58
 615 1341 615 1341 758 1341 c 0,59,60
 851 1341 851 1341 962 1294 c 1,61,62
 1065 1341 1065 1341 1258 1341 c 0,63,64
 1406 1341 1406 1341 1511 1286 c 128,-1,65
 1616 1231 1616 1231 1684.5 1133 c 128,-1,66
 1753 1035 1753 1035 1789 899.5 c 128,-1,67
 1825 764 1825 764 1835 601 c 0,68,69
 1843 468 1843 468 1860.5 381.5 c 128,-1,70
 1878 295 1878 295 1905 244 c 128,-1,71
 1932 193 1932 193 1969 172.5 c 128,-1,72
 2006 152 2006 152 2053 152 c 0,73,74
 2156 152 2156 152 2216.5 234.5 c 128,-1,75
 2277 317 2277 317 2277 482 c 2,76,-1
 2277 1320 l 1,77,-1
 2448 1320 l 1,78,-1
 2448 482 l 2,79,80
 2448 415 2448 415 2466 355 c 128,-1,81
 2484 295 2484 295 2516 249.5 c 128,-1,82
 2548 204 2548 204 2593 178 c 128,-1,83
 2638 152 2638 152 2693 152 c 0,84,85
 2757 152 2757 152 2808.5 194 c 128,-1,86
 2860 236 2860 236 2896.5 309.5 c 128,-1,87
 2933 383 2933 383 2953 484.5 c 128,-1,88
 2973 586 2973 586 2973 706 c 0,89,90
 2973 779 2973 779 2958.5 851.5 c 128,-1,91
 2944 924 2944 924 2917.5 989 c 128,-1,92
 2891 1054 2891 1054 2854 1109.5 c 128,-1,93
 2817 1165 2817 1165 2773 1204 c 1,94,-1
 2863 1346 l 1,95,96
 3143 1131 3143 1131 3143 648 c 0,0,1
1211 528 m 0,97,98
 1211 599 1211 599 1192.5 680 c 128,-1,99
 1174 761 1174 761 1141 839.5 c 128,-1,100
 1108 918 1108 918 1062.5 986 c 128,-1,101
 1017 1054 1017 1054 961 1100 c 1,102,103
 901 1058 901 1058 855 991.5 c 128,-1,104
 809 925 809 925 778.5 846.5 c 128,-1,105
 748 768 748 768 733 685 c 128,-1,106
 718 602 718 602 718 528 c 0,107,108
 718 455 718 455 736.5 387 c 128,-1,109
 755 319 755 319 787 266.5 c 128,-1,110
 819 214 819 214 864 183 c 128,-1,111
 909 152 909 152 964 152 c 0,112,113
 1011 152 1011 152 1055.5 187 c 128,-1,114
 1100 222 1100 222 1135 276 c 128,-1,115
 1170 330 1170 330 1190.5 397.5 c 128,-1,116
 1211 465 1211 465 1211 528 c 0,97,98
EndSplineSet
EndChar

StartChar: uni0D1E
Encoding: 235 3358 237
Width: 2854
GlyphClass: 2
Flags: W
LayerCount: 2
Fore
SplineSet
2733 549 m 0,0,1
 2733 246 2733 246 2517 -9 c 1,2,-1
 2387 96 l 1,3,4
 2425 137 2425 137 2457.5 192 c 128,-1,5
 2490 247 2490 247 2512.5 308.5 c 128,-1,6
 2535 370 2535 370 2548 434.5 c 128,-1,7
 2561 499 2561 499 2561 559 c 0,8,9
 2561 679 2561 679 2526 789 c 128,-1,10
 2491 899 2491 899 2429.5 983.5 c 128,-1,11
 2368 1068 2368 1068 2284.5 1118 c 128,-1,12
 2201 1168 2201 1168 2102 1168 c 0,13,14
 2089 1168 2089 1168 2075 1166.5 c 128,-1,15
 2061 1165 2061 1165 2043 1163 c 1,16,17
 2096 1104 2096 1104 2138.5 1032 c 128,-1,18
 2181 960 2181 960 2210 880.5 c 128,-1,19
 2239 801 2239 801 2255 716 c 128,-1,20
 2271 631 2271 631 2271 545 c 0,21,22
 2271 425 2271 425 2243 322 c 128,-1,23
 2215 219 2215 219 2164.5 142.5 c 128,-1,24
 2114 66 2114 66 2043 22.5 c 128,-1,25
 1972 -21 1972 -21 1886 -21 c 0,26,27
 1792 -21 1792 -21 1714 24 c 128,-1,28
 1636 69 1636 69 1579.5 146 c 128,-1,29
 1523 223 1523 223 1492 326 c 128,-1,30
 1461 429 1461 429 1461 545 c 0,31,32
 1461 732 1461 732 1522 889.5 c 128,-1,33
 1583 1047 1583 1047 1705 1168 c 1,34,35
 1702 1168 1702 1168 1701 1169 c 0,36,37
 1699 1170 1699 1170 1696 1170 c 0,38,39
 1549 1170 1549 1170 1458 1117.5 c 128,-1,40
 1367 1065 1367 1065 1316.5 976.5 c 128,-1,41
 1266 888 1266 888 1248.5 769.5 c 128,-1,42
 1231 651 1231 651 1231 518 c 2,43,-1
 1231 0 l 1,44,-1
 1058 0 l 1,45,-1
 1058 648 l 2,46,47
 1058 756 1058 756 1031 850.5 c 128,-1,48
 1004 945 1004 945 954.5 1016 c 128,-1,49
 905 1087 905 1087 835 1127.5 c 128,-1,50
 765 1168 765 1168 681 1168 c 0,51,52
 596 1168 596 1168 525.5 1121 c 128,-1,53
 455 1074 455 1074 403.5 997.5 c 128,-1,54
 352 921 352 921 322 823 c 128,-1,55
 292 725 292 725 292 606 c 0,56,57
 292 583 292 583 295 556 c 1,58,59
 337 608 337 608 406.5 637 c 128,-1,60
 476 666 476 666 553 666 c 0,61,62
 622 666 622 666 684 639 c 128,-1,63
 746 612 746 612 793.5 565 c 128,-1,64
 841 518 841 518 869.5 455 c 128,-1,65
 898 392 898 392 898 322 c 0,66,67
 898 255 898 255 871 192.5 c 128,-1,68
 844 130 844 130 797.5 83 c 128,-1,69
 751 36 751 36 689.5 7.5 c 128,-1,70
 628 -21 628 -21 559 -21 c 0,71,72
 460 -21 460 -21 379.5 28 c 128,-1,73
 299 77 299 77 241.5 162 c 128,-1,74
 184 247 184 247 153 361.5 c 128,-1,75
 122 476 122 476 122 606 c 0,76,77
 122 746 122 746 164.5 878.5 c 128,-1,78
 207 1011 207 1011 282 1114 c 128,-1,79
 357 1217 357 1217 459.5 1279 c 128,-1,80
 562 1341 562 1341 681 1341 c 0,81,82
 756 1341 756 1341 825 1319 c 128,-1,83
 894 1297 894 1297 954 1255.5 c 128,-1,84
 1014 1214 1014 1214 1063.5 1155.5 c 128,-1,85
 1113 1097 1113 1097 1148 1024 c 1,86,87
 1178 1097 1178 1097 1227.5 1155.5 c 128,-1,88
 1277 1214 1277 1214 1340.5 1255.5 c 128,-1,89
 1404 1297 1404 1297 1480 1319 c 128,-1,90
 1556 1341 1556 1341 1640 1341 c 0,91,92
 1697 1341 1697 1341 1754.5 1327 c 128,-1,93
 1812 1313 1812 1313 1866 1286 c 1,94,95
 1986 1341 1986 1341 2112 1341 c 0,96,97
 2214 1341 2214 1341 2299.5 1307.5 c 128,-1,98
 2385 1274 2385 1274 2454 1216 c 128,-1,99
 2523 1158 2523 1158 2575 1080 c 128,-1,100
 2627 1002 2627 1002 2662 914.5 c 128,-1,101
 2697 827 2697 827 2715 733 c 128,-1,102
 2733 639 2733 639 2733 549 c 0,0,1
2099 535 m 0,103,104
 2099 699 2099 699 2042 843 c 128,-1,105
 1985 987 1985 987 1863 1091 c 1,106,107
 1759 1014 1759 1014 1696 876.5 c 128,-1,108
 1633 739 1633 739 1633 555 c 0,109,110
 1633 469 1633 469 1651 395.5 c 128,-1,111
 1669 322 1669 322 1701 267.5 c 128,-1,112
 1733 213 1733 213 1777.5 182.5 c 128,-1,113
 1822 152 1822 152 1876 152 c 0,114,115
 1928 152 1928 152 1968.5 181 c 128,-1,116
 2009 210 2009 210 2038.5 261.5 c 128,-1,117
 2068 313 2068 313 2083.5 383 c 128,-1,118
 2099 453 2099 453 2099 535 c 0,103,104
555 493 m 0,119,120
 486 493 486 493 435.5 455.5 c 128,-1,121
 385 418 385 418 362 353 c 1,122,123
 378 263 378 263 430 207.5 c 128,-1,124
 482 152 482 152 555 152 c 0,125,126
 589 152 589 152 620 165.5 c 128,-1,127
 651 179 651 179 674.5 202.5 c 128,-1,128
 698 226 698 226 712 256.5 c 128,-1,129
 726 287 726 287 726 322 c 0,130,131
 726 356 726 356 712.5 387 c 128,-1,132
 699 418 699 418 675.5 441.5 c 128,-1,133
 652 465 652 465 620.5 479 c 128,-1,134
 589 493 589 493 555 493 c 0,119,120
EndSplineSet
EndChar

StartChar: uni0D1F
Encoding: 236 3359 238
Width: 1210
GlyphClass: 2
Flags: W
LayerCount: 2
Fore
SplineSet
1088 369 m 0,0,1
 1088 279 1088 279 1049.5 206.5 c 128,-1,2
 1011 134 1011 134 945 83.5 c 128,-1,3
 879 33 879 33 791.5 6 c 128,-1,4
 704 -21 704 -21 605 -21 c 0,5,6
 489 -21 489 -21 399.5 11 c 128,-1,7
 310 43 310 43 248 101.5 c 128,-1,8
 186 160 186 160 154 240 c 128,-1,9
 122 320 122 320 122 418 c 1,10,-1
 293 418 l 1,11,12
 293 355 293 355 317.5 305.5 c 128,-1,13
 342 256 342 256 384 221.5 c 128,-1,14
 426 187 426 187 480.5 169.5 c 128,-1,15
 535 152 535 152 595 152 c 0,16,17
 659 152 659 152 717 167.5 c 128,-1,18
 775 183 775 183 819.5 212.5 c 128,-1,19
 864 242 864 242 890.5 282 c 128,-1,20
 917 322 917 322 917 369 c 0,21,22
 917 413 917 413 899.5 451 c 128,-1,23
 882 489 882 489 847 517 c 128,-1,24
 812 545 812 545 758 560.5 c 128,-1,25
 704 576 704 576 631 576 c 2,26,-1
 502 576 l 2,27,28
 412 576 412 576 341 604.5 c 128,-1,29
 270 633 270 633 221.5 684 c 128,-1,30
 173 735 173 735 147.5 805 c 128,-1,31
 122 875 122 875 122 958 c 0,32,33
 122 1037 122 1037 155.5 1107 c 128,-1,34
 189 1177 189 1177 252 1229 c 128,-1,35
 315 1281 315 1281 407 1311 c 128,-1,36
 499 1341 499 1341 615 1341 c 0,37,38
 726 1341 726 1341 813.5 1309 c 128,-1,39
 901 1277 901 1277 962.5 1220 c 128,-1,40
 1024 1163 1024 1163 1056 1086.5 c 128,-1,41
 1088 1010 1088 1010 1088 922 c 1,42,-1
 918 922 l 1,43,44
 915 977 915 977 892 1022 c 128,-1,45
 869 1067 869 1067 830 1100 c 128,-1,46
 791 1133 791 1133 736 1150.5 c 128,-1,47
 681 1168 681 1168 615 1168 c 0,48,49
 536 1168 536 1168 476 1151.5 c 128,-1,50
 416 1135 416 1135 375.5 1106 c 128,-1,51
 335 1077 335 1077 314 1039 c 128,-1,52
 293 1001 293 1001 293 958 c 0,53,54
 293 904 293 904 313 864.5 c 128,-1,55
 333 825 333 825 368 799.5 c 128,-1,56
 403 774 403 774 452.5 761.5 c 128,-1,57
 502 749 502 749 561 749 c 2,58,-1
 659 749 l 2,59,60
 759 749 759 749 838.5 722.5 c 128,-1,61
 918 696 918 696 974 647 c 128,-1,62
 1030 598 1030 598 1059 527 c 128,-1,63
 1088 456 1088 456 1088 369 c 0,0,1
EndSplineSet
EndChar

StartChar: uni0D20
Encoding: 237 3360 239
Width: 1519
GlyphClass: 2
Flags: W
LayerCount: 2
Fore
SplineSet
1397 661 m 0,0,1
 1397 508 1397 508 1347 382.5 c 128,-1,2
 1297 257 1297 257 1210.5 167 c 128,-1,3
 1124 77 1124 77 1008 28 c 128,-1,4
 892 -21 892 -21 759 -21 c 256,5,6
 626 -21 626 -21 510.5 28 c 128,-1,7
 395 77 395 77 308.5 167 c 128,-1,8
 222 257 222 257 172 382.5 c 128,-1,9
 122 508 122 508 122 661 c 0,10,11
 122 801 122 801 172 925.5 c 128,-1,12
 222 1050 222 1050 307.5 1142 c 128,-1,13
 393 1234 393 1234 509.5 1287.5 c 128,-1,14
 626 1341 626 1341 759 1341 c 256,15,16
 892 1341 892 1341 1008 1287.5 c 128,-1,17
 1124 1234 1124 1234 1210.5 1142 c 128,-1,18
 1297 1050 1297 1050 1347 925.5 c 128,-1,19
 1397 801 1397 801 1397 661 c 0,0,1
1226 661 m 0,20,21
 1226 765 1226 765 1189.5 857.5 c 128,-1,22
 1153 950 1153 950 1090 1019 c 128,-1,23
 1027 1088 1027 1088 942 1128 c 128,-1,24
 857 1168 857 1168 759 1168 c 256,25,26
 661 1168 661 1168 575.5 1128 c 128,-1,27
 490 1088 490 1088 427.5 1019 c 128,-1,28
 365 950 365 950 329 857.5 c 128,-1,29
 293 765 293 765 293 661 c 0,30,31
 293 555 293 555 329 462.5 c 128,-1,32
 365 370 365 370 427.5 301 c 128,-1,33
 490 232 490 232 575.5 192 c 128,-1,34
 661 152 661 152 759 152 c 256,35,36
 857 152 857 152 942 187.5 c 128,-1,37
 1027 223 1027 223 1090 289.5 c 128,-1,38
 1153 356 1153 356 1189.5 450.5 c 128,-1,39
 1226 545 1226 545 1226 661 c 0,20,21
EndSplineSet
EndChar

